<svg width="18" height="18" viewBox="0 0 18 18" fill="none" xmlns="http://www.w3.org/2000/svg">
<path d="M13.5602 13.5581C13.5602 13.5581 13.254 13.7431 13.1553 13.8231C13.0478 13.9118 12.9903 14.0643 13.0815 14.1768C13.1815 14.2993 13.3278 14.2893 13.4627 14.2193C13.5977 14.1493 13.9102 13.9393 13.9102 13.9393L13.5602 13.5581Z" fill="#9A9A9A"/>
<path d="M4.02784 13.3018C4.02784 13.3018 3.50537 14.0492 3.50537 14.108C3.50537 14.168 3.85535 14.5504 3.89535 14.5504C3.93535 14.5504 4.69531 14.008 4.69531 14.008L4.58906 13.4655L4.02784 13.3018Z" fill="#9A9A9A"/>
<path d="M5.63481 11.1C5.63481 11.1 2.20124 10.3663 2.1425 10.3776C2.08375 10.3888 1.39629 11.0763 1.42003 11.1825C1.44378 11.29 4.45112 12.8762 4.45112 12.8762L5.31483 11.965L5.63481 11.1Z" fill="#006CA8"/>
<path d="M5.16162 13.5277C5.16162 13.5277 6.83028 16.4163 6.90153 16.4163C6.97278 16.4163 7.74148 15.8238 7.74148 15.765C7.74148 15.7063 7.03152 12.2615 7.03152 12.2615L5.81159 12.404L5.16162 13.5277Z" fill="#006CA8"/>
<path d="M12.6429 11.9529C12.6429 11.9529 12.3966 12.1254 12.2941 12.2066C12.1941 12.2854 12.1554 12.4391 12.2391 12.5391C12.3579 12.6816 12.5366 12.6053 12.6379 12.5403C12.7329 12.4804 13.0053 12.2904 13.0053 12.2904L12.6429 11.9529Z" fill="#9A9A9A"/>
<path d="M11.6399 10.3826C11.6399 10.3826 11.3424 10.5888 11.2687 10.6688C11.1962 10.7488 11.1474 10.9088 11.2412 10.9925C11.3337 11.0763 11.4737 11.0688 11.5561 11.0138C11.6386 10.9588 12.0511 10.6476 12.0511 10.6476C12.0511 10.6476 11.6736 10.3688 11.6399 10.3826Z" fill="#9A9A9A"/>
<path d="M13.7466 8.4321C13.7466 8.4321 14.0603 8.06712 14.2428 7.88463C14.4315 7.69589 14.739 7.43965 14.8015 7.44465C14.864 7.4509 15.1403 7.61839 15.4002 7.88463C15.6965 8.18711 15.8802 8.56334 15.8852 8.59834C15.8915 8.63209 15.3377 9.18581 15.0915 9.39705C14.9153 9.54829 13.8191 9.99577 13.8191 9.93952C13.8216 9.88203 13.7466 8.4321 13.7466 8.4321Z" fill="#9A9A9A"/>
<path d="M13.9277 9.13857C13.9277 9.13857 14.8352 8.14363 15.0427 8.32987C15.2502 8.51611 14.004 9.63605 14.004 9.63605L13.9277 9.13857Z" fill="#C8C8C8"/>
<path d="M14.1741 9.71483C14.1741 9.71483 14.694 9.24611 14.7828 9.17236C14.8715 9.09861 15.0153 9.04612 15.129 9.12486C15.214 9.18361 15.2515 9.25485 15.2515 9.25485C15.2515 9.25485 14.8515 9.68983 14.6103 9.84357C14.459 9.93982 14.1016 9.99482 14.1016 9.99482L14.1741 9.71483Z" fill="#848484"/>
<path d="M13.8606 8.88852C13.8606 8.88852 14.1193 8.60353 14.1918 8.52354C14.3093 8.3948 14.3018 8.2223 14.2668 8.14731C14.2218 8.05106 14.1055 8.02856 14.1055 8.02856L13.6743 8.48729L13.8606 8.88852Z" fill="#848484"/>
<path d="M7.2608 6.09717C7.2608 6.09717 7.00706 6.3509 6.93207 6.45215C6.84832 6.56339 6.82957 6.72589 6.94456 6.81338C7.07081 6.90838 7.2108 6.86463 7.32454 6.76213C7.43829 6.66089 7.69203 6.38215 7.69203 6.38215L7.2608 6.09717Z" fill="#9A9A9A"/>
<path d="M5.60172 5.20435C5.60172 5.20435 5.40798 5.43433 5.32923 5.53933C5.25299 5.64057 5.25424 5.79931 5.36048 5.87431C5.51297 5.98181 5.66422 5.86181 5.74671 5.77307C5.82296 5.69057 6.03795 5.43808 6.03795 5.43808L5.60172 5.20435Z" fill="#9A9A9A"/>
<path d="M3.8492 4.22314C3.8492 4.22314 3.60921 4.49437 3.55796 4.59062C3.50671 4.68686 3.49796 4.85185 3.60796 4.9106C3.71795 4.96935 3.8517 4.92935 3.91794 4.8556C3.98419 4.78186 4.31042 4.38063 4.31042 4.38063C4.31042 4.38063 3.87794 4.20064 3.8492 4.22314Z" fill="#9A9A9A"/>
<path d="M8.15945 3.96649C8.15945 3.96649 8.1157 3.67526 8.35194 3.34652C8.58817 3.01779 9.37188 2.25033 9.49313 2.24408C9.61437 2.23783 9.90435 2.39157 10.1956 2.67781C10.4731 2.94904 10.6018 3.29778 10.6068 3.38027C10.6118 3.46277 10.0643 4.00524 9.92185 4.13648C9.77936 4.26772 9.39563 4.6952 9.39563 4.6952L8.15945 3.96649Z" fill="#9A9A9A"/>
<path d="M8.51709 4.01035C8.51709 4.01035 9.47704 2.83666 9.73453 3.01291C9.99451 3.1904 8.95582 4.19784 8.95582 4.19784L8.51709 4.01035Z" fill="#C8C8C8"/>
<path d="M9.2334 4.21925C9.2334 4.21925 9.43964 4.00551 9.54338 3.92052C9.63713 3.84427 9.77587 3.85177 9.85837 3.90052C9.96461 3.96301 9.98961 4.07051 9.98961 4.07051L9.60713 4.47674L9.2334 4.21925Z" fill="#848484"/>
<path d="M8.2972 3.93543C8.2972 3.93543 8.84092 3.38421 8.90092 3.29672C8.96091 3.20922 8.90592 3.07798 8.85717 3.00548C8.80842 2.93424 8.73343 2.90674 8.73343 2.90674C8.73343 2.90674 8.3497 3.25047 8.21845 3.5517C8.11596 3.78544 8.13346 3.90419 8.13346 3.90419L8.2972 3.93543Z" fill="#848484"/>
<path d="M2.45641 2.11505C2.33389 2.12505 1.55754 3.04266 1.53004 3.11017C1.50254 3.17768 1.53004 3.28769 1.72131 3.38271C1.91134 3.47772 7.28076 6.31307 7.36327 6.38058C7.44453 6.44934 8.50841 7.63449 8.50841 7.63449C8.50841 7.63449 11.1387 5.82176 11.125 5.76801C11.1112 5.713 11.03 4.58286 11.03 4.58286C11.03 4.58286 2.63393 2.1013 2.45641 2.11505Z" fill="#006CA8"/>
<path d="M10.1299 9.22986C10.1299 9.22986 11.7376 10.6875 11.8739 10.8651C12.0101 11.0426 14.7905 16.112 14.8317 16.1932C14.873 16.2745 15.0492 16.3432 15.1455 16.2482C15.2418 16.1532 15.9631 15.5256 15.9769 15.3756C15.9906 15.2256 13.3053 6.57202 13.3053 6.57202L11.2338 7.32212L10.1299 9.22986Z" fill="#006CA8"/>
<path d="M11.3013 8.55735C11.3013 8.55735 12.6974 10.2726 12.7812 10.3838C12.8649 10.4951 15.3136 16.0908 15.3136 16.0908L15.5573 15.8633C15.5573 15.8633 13.1112 10.1538 13.0674 10.0763C13.0237 9.99878 11.3975 7.98853 11.3975 7.98853L11.3013 8.55735Z" fill="#014EAC"/>
<path d="M9.35195 6.40757C9.35195 6.40757 8.08429 5.18139 7.98928 5.11264C7.89427 5.04515 1.95228 2.59277 1.95228 2.59277L1.7085 2.86151C1.7085 2.86151 7.73175 5.40513 7.82801 5.47262C7.92427 5.54012 9.10317 6.74756 9.10317 6.74756L9.35195 6.40757Z" fill="#014EAC"/>
<path d="M4.02783 13.3015C4.02783 13.3015 5.06296 11.5601 6.17185 10.0036C7.31074 8.40466 8.23461 7.4833 9.65479 5.9381C11.4363 4.00036 12.6227 2.90272 13.7203 2.16388C14.6304 1.5513 15.9306 1.13625 16.3944 1.55005C16.9032 2.00511 16.3419 3.44029 15.7706 4.25789C14.4741 6.11312 13.3615 6.99574 12.0851 8.23464C10.8262 9.45604 9.7623 10.5162 8.44463 11.5051C7.55702 12.1714 4.69417 14.0104 4.69417 14.0104L4.02783 13.3015Z" fill="#C8C8C8"/>
<path d="M6.98011 10.2514C6.81887 10.4064 4.91397 12.6613 4.80772 12.795C4.67148 12.9675 4.60898 13.175 4.76273 13.3025C4.91647 13.4287 5.08271 13.3037 5.23395 13.2025C5.42394 13.0762 7.63133 11.1288 7.77757 10.9938C8.01255 10.7764 8.05255 10.3839 7.80507 10.1614C7.53258 9.9164 7.2251 10.0164 6.98011 10.2514Z" fill="#9A9A9A"/>
<path d="M6.91179 9.73993C6.80304 9.64618 6.66805 9.70868 6.52556 9.86242C6.40306 9.99617 6.34682 10.2037 6.46931 10.2874C6.5918 10.3711 6.7543 10.2487 6.85554 10.1249C6.95678 10.0024 7.03428 9.84617 6.91179 9.73993Z" fill="#DFDFDF"/>
<path d="M14.1851 6.20189C14.1851 6.20189 14.1164 5.73691 13.8276 5.9194C13.5177 6.11564 13.7489 6.64811 13.7489 6.64811C13.7489 6.64811 13.8651 6.53937 13.9889 6.40938C14.0914 6.30313 14.1514 6.24064 14.1851 6.20189Z" fill="#3B5361"/>
<path d="M7.26476 9.01244C7.15225 9.14121 6.98848 9.35373 7.14225 9.505C7.29352 9.65377 7.5223 9.465 7.62231 9.35248C7.72107 9.23997 8.85246 7.9123 10.2839 6.48212C11.6816 5.08445 12.6217 4.20059 12.7667 4.04557C12.8892 3.9143 12.878 3.70552 12.7705 3.63927C12.6429 3.56051 12.5017 3.61051 12.3266 3.78553C12.1516 3.96056 10.964 5.04694 9.84384 6.17958C8.7237 7.31223 7.40478 8.85117 7.26476 9.01244Z" fill="#DFDFDF"/>
<path d="M10.8212 9.45623C10.8212 9.45623 10.7987 8.96375 10.51 9.09499C10.21 9.23124 10.39 9.86245 10.39 9.86245C10.39 9.86245 10.5362 9.72621 10.6175 9.64997C10.7 9.57497 10.8212 9.45623 10.8212 9.45623Z" fill="#3B5361"/>
<path d="M12.0188 8.29853C12.0188 8.29853 11.9813 7.80355 11.6876 7.96729C11.3938 8.13103 11.5901 8.716 11.5901 8.716C11.5901 8.716 11.7201 8.59851 11.8076 8.51101C11.8951 8.42352 12.0188 8.29853 12.0188 8.29853Z" fill="#3B5361"/>
<path d="M13.0765 7.2958C13.0765 7.2958 13.0277 6.69958 12.7003 6.94457C12.439 7.14081 12.6165 7.72703 12.6165 7.72703C12.6165 7.72703 12.7665 7.59079 12.864 7.49829C12.9627 7.40455 13.0765 7.2958 13.0765 7.2958Z" fill="#3B5361"/>
<path d="M13.9917 2.38136L14.3379 2.74634C14.3379 2.74634 14.9179 2.18762 15.3516 2.60385C15.7966 3.03008 15.1829 3.63505 15.1829 3.63505L15.5566 4.05253C15.5566 4.05253 16.5703 2.90509 15.7429 2.15888C15.0229 1.50891 13.9917 2.38136 13.9917 2.38136Z" fill="#3B5361"/>
</svg>
