<svg width="18" height="18" viewBox="0 0 18 18" fill="none" xmlns="http://www.w3.org/2000/svg">
<path d="M15.9491 9.88755C15.9054 9.44499 15.6991 9.48625 15.5103 9.64252C15.5103 9.64252 13.9214 11.2677 13.5488 11.544C13.2225 11.7853 13.3738 12.0166 13.5513 12.1116C13.5513 12.1116 13.6326 12.1628 13.8013 12.2466C13.3163 12.8629 12.3899 13.5893 10.6509 13.8443C10.4572 13.873 10.2809 13.7255 10.2722 13.5305L9.86835 8.38236L11.4636 8.11483C11.6873 8.07732 11.8511 7.88355 11.8511 7.65727C11.8511 7.43099 11.6873 7.23722 11.4636 7.19971L9.75334 6.91342L9.61457 5.1507C10.3647 4.90692 10.9085 4.20183 10.9085 3.37173C10.9085 2.3391 10.0684 1.50024 9.037 1.50024C8.00562 1.50024 7.16551 2.3391 7.16551 3.37173C7.16551 4.20308 7.71183 4.90942 8.46318 5.15195L8.34566 6.90967L6.60919 7.20096C6.38542 7.23846 6.22165 7.43224 6.22165 7.65852C6.22165 7.8848 6.38542 8.07857 6.60919 8.11608L8.2469 8.38986L7.90061 13.5818C7.89185 13.778 7.71558 13.9243 7.52181 13.8956C5.68158 13.6243 4.71896 12.8117 4.23015 12.1603C4.43017 12.0316 4.52893 11.9428 4.52893 11.9428C4.70646 11.849 4.85647 11.6165 4.53143 11.3752C4.15889 11.0989 2.44492 9.64252 2.44492 9.64252C2.25615 9.485 2.04987 9.44374 2.00612 9.88755C1.96611 10.2926 1.93361 11.4202 2.2574 12.6566C2.30491 12.8392 2.39867 12.9204 2.6787 12.8392C2.88873 12.7792 3.07875 12.7129 3.25252 12.6466C4.2989 14.6456 6.18039 16.5021 9.037 16.5021C11.8849 16.5021 13.8751 14.6769 14.874 12.6791C15.0327 12.7329 15.204 12.7867 15.394 12.8417C15.6741 12.9229 15.7678 12.8404 15.8153 12.6591C16.1404 11.4215 15.9891 10.2926 15.9491 9.88755ZM8.17564 3.37173C8.17564 2.89667 8.56194 2.51037 9.037 2.51037C9.51206 2.51037 9.89836 2.89667 9.89836 3.37173C9.89836 3.84679 9.51206 4.23309 9.037 4.23309C8.56194 4.23309 8.17564 3.84679 8.17564 3.37173Z" fill="#82AEC0"/>
<path d="M8.20061 3.64889C8.19936 3.5614 8.17562 3.4614 8.17562 3.37141C8.17562 2.93268 8.5056 2.5702 8.93057 2.5177C8.93057 2.5177 8.96807 2.51145 8.97807 2.5102C9.11682 2.4877 9.16931 2.43146 9.16931 2.33021C9.16931 2.22897 9.05932 2.16272 8.98932 2.15522C8.58184 2.11522 8.17437 2.34146 7.98063 2.65519C7.77064 2.99268 7.74439 3.31266 7.85813 3.61764C7.90188 3.73389 7.99312 3.77889 8.06187 3.77139C8.12562 3.76514 8.20186 3.73514 8.20061 3.64889Z" fill="#2F7889"/>
<g opacity="0.89">
<path opacity="0.89" d="M10.6262 15.1257C9.62103 15.4182 9.21973 16.4921 9.21973 16.4921C9.21973 16.4921 10.2274 16.4633 11.1375 16.1395C12.8789 15.5107 14.1428 14.1405 14.8742 12.6778C14.8742 12.6766 15.193 11.8177 15.2592 11.1602C15.2605 11.1614 14.5929 13.9705 10.6262 15.1257Z" fill="#2F7889"/>
</g>
<path d="M9.03726 15.1787C9.03726 15.1787 8.44844 14.0463 7.52333 13.8963C5.7231 13.6038 4.76048 12.8438 4.26292 12.2014L4.20916 12.1776L2.94775 10.564C2.94775 10.564 3.99413 14.7887 9.03726 15.1787Z" fill="#94D1E0"/>
<path d="M11.8469 7.70351L9.31583 7.61602C9.23709 7.61352 9.19584 7.70851 9.25209 7.76351L9.87205 8.37848L11.4632 8.11349C11.6707 8.07849 11.8245 7.9085 11.8469 7.70351Z" fill="#2F7889"/>
<path d="M6.22803 7.60982H8.82789C8.90539 7.60982 8.94413 7.51607 8.88914 7.46232L8.33667 6.91235L6.61176 7.20109C6.40302 7.23484 6.24928 7.40483 6.22803 7.60982Z" fill="#94D1E0"/>
</svg>
