<svg width="18" height="18" viewBox="0 0 18 18" fill="none" xmlns="http://www.w3.org/2000/svg">
<path d="M7.03329 5.31982L4.9209 7.02848L5.8996 11.137L6.97454 12.2695L11.1206 11.982L12.273 10.8108C12.273 10.8108 12.138 6.70225 12.0805 6.66475C12.023 6.62601 11.1393 5.8198 11.1393 5.8198L7.03329 5.31982Z" fill="#8FD0EB"/>
<path d="M7.50084 10.5582C7.63083 10.7057 8.26205 10.0383 9.00076 10.027C9.74322 10.0158 10.3282 10.5807 10.4207 10.4882C10.5132 10.3957 9.98196 9.69203 9.98196 8.95332C9.98196 8.21461 10.6619 7.56714 10.5644 7.45215C10.4494 7.3159 9.81947 7.91462 8.98826 7.92587C8.15706 7.93712 7.62959 7.28466 7.4421 7.4059C7.25336 7.52714 7.92707 8.2596 7.90332 9.02206C7.88207 9.78452 7.40835 10.4545 7.50084 10.5582Z" fill="#FEFEFE"/>
<path d="M8.96694 1.37122C8.74445 1.37997 8.07823 2.24867 7.48952 2.80239C6.9008 3.35612 6.13959 4.11858 6.26583 5.09977C6.39207 6.08097 7.40827 7.18841 9.10568 7.20091C10.8031 7.21341 11.7918 5.76974 11.8068 5.04228C11.8293 3.92234 10.7893 3.09488 10.2144 2.54866C9.57816 1.94619 9.21692 1.36122 8.96694 1.37122Z" fill="url(#paint0_radial_735_50)"/>
<path d="M10.7107 9.05088C10.6507 11.1683 12.4556 12.2195 13.8618 11.437C15.2679 10.6545 16.5141 9.06963 16.5316 8.90964C16.5404 8.83089 16.0367 8.31217 15.4279 7.7347C14.7992 7.13848 14.1643 6.50601 13.1493 6.39977C12.0931 6.28603 10.7657 7.12848 10.7107 9.05088Z" fill="url(#paint1_radial_735_50)"/>
<path d="M1.43607 9.05085C1.39232 9.21334 2.07604 9.77831 2.96849 10.5545C3.65095 11.1482 4.33842 11.7207 5.08588 11.7032C5.81584 11.6857 7.09702 10.9732 7.07952 8.92585C7.05952 6.57473 5.60585 6.02975 4.83589 6.1485C4.10968 6.26099 3.50846 6.78721 2.86849 7.41343C2.18978 8.0784 1.49107 8.84836 1.43607 9.05085Z" fill="url(#paint2_radial_735_50)"/>
<path d="M8.98447 10.8134C7.61329 10.8009 6.17211 11.7746 6.3496 13.3945C6.4271 14.1019 6.96832 14.6581 7.52454 15.2106C8.242 15.9231 9.01446 16.543 9.14446 16.563C9.25945 16.5805 10.0582 15.8106 10.7294 14.9606C11.1881 14.3794 11.6118 13.7644 11.6193 13.3232C11.6368 12.237 10.8894 10.8309 8.98447 10.8134Z" fill="url(#paint3_radial_735_50)"/>
<path d="M11.0694 11.1783C10.8806 11.367 11.3369 12.5444 11.5568 12.5882C11.9531 12.6682 12.5543 11.8432 12.4918 11.6482C12.4093 11.3945 11.2019 11.0458 11.0694 11.1783Z" fill="#034EAC"/>
<path d="M6.86599 11.127C6.73974 10.9895 5.49606 11.3108 5.48981 11.6545C5.48231 12.1257 6.14103 12.577 6.36101 12.5145C6.586 12.4507 7.10972 11.392 6.86599 11.127Z" fill="#034EAC"/>
<path d="M11.7282 5.32351C11.597 5.33476 11.077 6.64469 11.2632 6.81968C11.452 6.99717 12.7719 6.4797 12.7481 6.25596C12.7269 6.03347 11.9407 5.30726 11.7282 5.32351Z" fill="#034EAC"/>
<path d="M6.30973 5.08362C6.10349 5.00362 5.26353 5.78108 5.28103 6.09107C5.29353 6.31106 6.58971 6.85103 6.7922 6.66729C6.99219 6.4823 6.49097 5.15362 6.30973 5.08362Z" fill="#034EAC"/>
<defs>
<radialGradient id="paint0_radial_735_50" cx="0" cy="0" r="1" gradientUnits="userSpaceOnUse" gradientTransform="translate(9.02943 7.47952) scale(4.48825)">
<stop offset="0.427" stop-color="#1F87FB"/>
<stop offset="0.8158" stop-color="#05BFEA"/>
</radialGradient>
<radialGradient id="paint1_radial_735_50" cx="0" cy="0" r="1" gradientUnits="userSpaceOnUse" gradientTransform="translate(9.77841 8.96721) scale(4.792)">
<stop offset="0.427" stop-color="#1F87FB"/>
<stop offset="0.8158" stop-color="#05BFEA"/>
</radialGradient>
<radialGradient id="paint2_radial_735_50" cx="0" cy="0" r="1" gradientUnits="userSpaceOnUse" gradientTransform="translate(7.56341 8.86799) scale(4.57902)">
<stop offset="0.427" stop-color="#1F87FB"/>
<stop offset="0.8158" stop-color="#05BFEA"/>
</radialGradient>
<radialGradient id="paint3_radial_735_50" cx="0" cy="0" r="1" gradientUnits="userSpaceOnUse" gradientTransform="translate(8.98495 10.7524) scale(4.06669)">
<stop offset="0.427" stop-color="#1F87FB"/>
<stop offset="0.8158" stop-color="#05BFEA"/>
</radialGradient>
</defs>
</svg>
