<svg width="18" height="18" viewBox="0 0 18 18" fill="none" xmlns="http://www.w3.org/2000/svg">
<path d="M1.92353 8.67954C1.92353 8.67954 1.86603 8.34581 2.16976 8.04207C2.4735 7.73834 2.67724 7.70834 3.06722 7.67959C3.45719 7.65085 4.89212 7.6071 4.89212 7.6071C4.89212 7.6071 8.0357 4.13103 8.06445 4.10228C8.0932 4.07353 14.5241 4.02979 14.7566 4.02979C14.9891 4.02979 15.3791 4.21852 15.4378 4.55101C15.4953 4.88474 15.8128 8.18582 15.8128 8.18582L9.49813 9.75073L1.92353 8.67954Z" fill="#489DF6"/>
<path d="M8.68217 10.0183L4.42739 9.0708L1.95127 11.0819C1.95127 11.0819 1.61879 11.0482 1.61879 11.3807C1.61879 11.7132 1.58504 12.2944 1.65254 12.3444C1.72003 12.3944 13.4357 12.4444 13.4357 12.4444C13.4357 12.4444 16.2105 12.4281 16.2943 12.3781C16.378 12.3281 16.3868 12.2694 16.4105 11.7469C16.4243 11.4482 16.488 11.1732 16.1555 11.1394C16.1243 11.1369 16.058 11.1344 16.0305 11.1294C15.768 11.0794 15.7118 10.9495 15.7118 10.9495L14.5981 9.1708L10.5933 9.50328L8.68217 10.0183Z" fill="#506D71"/>
<path d="M4.88605 10.4983C3.8836 10.4821 3.13989 11.192 3.13989 12.212C3.13989 13.0682 3.72236 13.8169 4.77231 13.8606C5.91975 13.9094 6.54971 13.0219 6.56596 12.277C6.58221 11.532 6.04974 10.5171 4.88605 10.4983Z" fill="#4C443F"/>
<path d="M4.82088 11.257C4.27216 11.2833 3.91593 11.677 3.93217 12.162C3.94842 12.647 4.31965 13.0994 4.86962 13.0832C5.4196 13.0669 5.75833 12.6795 5.77458 12.2107C5.78958 11.7583 5.49959 11.2245 4.82088 11.257Z" fill="#C8C8C8"/>
<path d="M14.139 10.7132C13.2928 10.177 12.2879 10.3945 11.7554 11.2644C11.3079 11.9956 11.4104 12.9456 12.2879 13.5231C13.1441 14.0868 14.2128 13.7118 14.6152 13.0843C15.0177 12.4581 15.1215 11.3357 14.139 10.7132Z" fill="#4C443F"/>
<path d="M13.6716 11.3006C13.1892 11.0369 12.6604 11.2469 12.4405 11.6094C12.1892 12.0244 12.2817 12.6118 12.7592 12.8843C13.2367 13.1568 13.7179 12.9968 13.9866 12.6118C14.1954 12.3131 14.2679 11.6269 13.6716 11.3006Z" fill="#C8C8C8"/>
<path d="M1.87744 11.0846C1.97744 11.0946 2.80114 11.0783 2.80114 11.0783C2.80114 11.0783 3.03363 10.4308 3.6886 10.0771C4.49731 9.64088 5.531 9.68963 6.20971 10.1746C6.94718 10.7021 7.03342 11.2633 7.03342 11.2633L11.042 11.2408C11.042 11.2408 11.2682 10.3846 12.0444 9.89961C12.7706 9.44589 13.8818 9.50964 14.518 9.98086C15.3267 10.5783 15.4067 11.1283 15.4067 11.1283C15.4067 11.1283 15.9667 11.1308 16.0342 11.1308C16.0629 11.1308 15.9729 9.72212 15.9729 9.72212L15.8117 8.18595C15.8117 8.18595 14.0343 8.16971 12.9831 8.46094C11.9319 8.75218 10.9782 8.78467 9.57204 8.76842C8.16586 8.75218 7.17966 8.62343 6.4847 8.49344C5.78974 8.3647 4.81979 8.2672 3.96358 8.50969C3.10738 8.75218 2.86489 9.10716 2.86489 9.10716C2.86489 9.10716 1.89494 9.60838 1.86244 9.70463C1.82995 9.80087 1.87744 11.0846 1.87744 11.0846Z" fill="#1D86FB"/>
<path d="M15.2729 10.3121C15.2729 10.3121 15.3379 10.1509 15.5392 10.0684C15.7279 9.99088 16.1692 9.98088 16.3591 10.2121C16.5591 10.4559 16.5529 10.8108 16.6179 11.4396C16.6691 11.9245 16.7141 12.4658 16.6354 12.7132C16.5766 12.8995 16.4041 13.082 16.0042 13.0932C15.6054 13.1045 15.4167 12.8495 15.4167 12.8495L15.2729 10.3121Z" fill="#31322E"/>
<path d="M14.8368 11.0257C14.7968 11.1082 14.823 11.4831 14.828 11.8594C14.8318 12.1694 14.818 12.4243 14.8693 12.4556C14.918 12.4868 15.6167 12.4481 15.6167 12.4481L15.4955 11.0969L15.4692 11.0007C15.468 11.0007 14.8555 10.9894 14.8368 11.0257Z" fill="#FF2A23"/>
<path d="M2.21012 8.51443C2.21012 8.51443 3.29882 8.47443 3.36506 8.54692C3.43131 8.61942 3.36506 8.79691 3.23257 9.04815C3.10008 9.29938 2.86384 9.66811 2.81759 9.70811C2.77134 9.74811 2.18887 9.73436 2.18887 9.73436L1.95264 8.83691L2.21012 8.51443Z" fill="white"/>
<path d="M1.88009 8.52065C1.88009 8.52065 1.81384 8.77689 1.80759 9.11437C1.80134 9.4506 1.86009 9.73434 1.86009 9.73434H2.19007C2.19007 9.73434 2.15133 9.4506 2.15758 9.13312C2.16383 8.80314 2.23632 8.5144 2.23632 8.5144L1.88009 8.52065Z" fill="#D7CCC5"/>
<path d="M8.38972 4.77353C8.17723 4.88853 7.56726 5.68348 7.25478 6.06221C6.9423 6.44094 6.11859 7.41589 6.06109 7.52964C6.00485 7.64338 6.0236 7.78587 6.20359 7.79462C6.38358 7.80462 11.0996 7.85087 11.1658 7.84212C11.2321 7.83212 11.2608 7.72838 11.2508 7.63338C11.2408 7.53839 11.2983 5.04852 11.2796 4.93477C11.2608 4.82103 11.1283 4.71729 10.9008 4.71729C10.7008 4.71854 8.50346 4.71229 8.38972 4.77353Z" fill="#506D73"/>
<path d="M8.56344 5.04591C8.46845 5.10216 6.69479 7.2508 6.64979 7.30955C6.58355 7.39454 6.5823 7.46454 6.69479 7.46454C6.80728 7.46454 10.7096 7.47454 10.8046 7.47454C10.8996 7.47454 10.9558 7.40829 10.9471 7.30455C10.9371 7.2008 10.9946 5.18341 10.9758 5.12716C10.9571 5.07091 10.9096 5.00467 10.8058 5.00467C10.7021 5.00467 8.64469 4.99842 8.56344 5.04591Z" fill="#AFE3FB"/>
<path d="M6.87573 7.7822C6.87573 7.7822 7.06572 8.07593 7.20447 8.21217C7.33446 8.33967 7.5207 8.44341 7.69944 8.42841C7.87818 8.41466 7.99067 8.24717 8.02067 7.7172C8.05442 7.13098 7.92318 6.99474 7.69944 6.98849C7.4707 6.98099 7.4482 7.06723 7.30571 7.20348C7.22821 7.27722 6.87573 7.7822 6.87573 7.7822Z" fill="#0250AC"/>
<path d="M7.42449 7.83089C7.57074 7.81339 7.67823 7.72714 7.77197 7.50466C7.86572 7.28217 7.78197 7.13468 7.68823 7.07968C7.58323 7.01718 7.47949 7.03843 7.45449 7.05093C7.43449 7.06093 7.352 7.13968 7.2695 7.23967C7.15701 7.37466 7.06201 7.51966 7.06201 7.51966C7.06201 7.51966 7.21825 7.85589 7.42449 7.83089Z" fill="#489DF6"/>
<path d="M12.2255 4.71839C12.1493 4.71839 11.998 4.78463 11.998 4.92712C11.998 5.06962 12.0168 7.65448 12.0168 7.73948C12.0168 7.82447 12.073 7.83447 12.2155 7.83447C12.358 7.83447 14.8291 7.80572 14.9329 7.80572C15.0366 7.80572 15.0366 7.67323 15.0279 7.57823C15.0179 7.48324 14.7154 5.09712 14.6967 4.94587C14.6779 4.79463 14.5642 4.69964 14.4129 4.68964C14.2617 4.67964 12.2255 4.71839 12.2255 4.71839Z" fill="#506D73"/>
<path d="M12.358 5.03967C12.3217 5.07592 12.358 7.4633 12.3867 7.4833C12.4155 7.50205 14.6304 7.51204 14.6591 7.4833C14.6879 7.45455 14.3754 5.03092 14.3366 5.00218C14.2991 4.97343 12.3955 5.00218 12.358 5.03967Z" fill="#AFE3FB"/>
</svg>
