<svg width="18" height="18" viewBox="0 0 18 18" fill="none" xmlns="http://www.w3.org/2000/svg">
<path d="M9.05205 1.69751L8.93331 2.15124L8.50958 2.11624C8.48708 2.38997 8.61457 2.62496 8.79706 2.66996L8.67457 3.13868L7.97836 3.03119C7.95461 3.32492 8.10085 3.57741 8.30584 3.59366L8.53708 3.66366L8.33959 4.41487L9.05705 4.61736L9.35578 1.72376L9.05205 1.69751Z" fill="#94D1E0"/>
<path d="M8.44834 6.0511H4.5448C3.64484 6.0511 3.56735 5.50113 3.6036 5.1224C3.64734 4.66242 3.90358 4.44368 4.28731 4.42368L8.07586 4.25244L8.44834 6.0511Z" fill="#DFECF5"/>
<path d="M8.07588 5.97856L10.8845 6.39103V5.33359C10.8845 5.09985 10.7207 4.89486 10.4858 4.83862L8.12088 4.26365C8.03339 4.2424 7.94089 4.2624 7.87089 4.31989C7.76215 4.41114 7.62466 4.59488 7.58966 4.95361C7.53341 5.55358 7.6809 5.89606 8.07588 5.97856Z" fill="#82AEC0"/>
<path d="M15.5743 11.4169L7.71973 10.8756L8.07596 6.11963L14.8868 7.14333L14.8219 8.77074L15.7606 8.87198L15.5743 11.4169Z" fill="#2F7889"/>
<path d="M7.68089 5.48342L3.6436 5.56592C3.6436 5.56592 3.59985 5.42592 3.59985 5.19969C3.59985 4.97345 3.6936 4.78471 3.6936 4.78471L7.68089 4.61597V5.48342Z" fill="#8EC9D6"/>
<path d="M7.60589 5.48489L10.3932 5.91611C10.4732 5.92861 10.547 5.86737 10.5482 5.78612L10.5545 5.40114C10.5557 5.33864 10.512 5.2824 10.4507 5.26865L7.66589 4.61743C7.4759 5.03491 7.60589 5.48489 7.60589 5.48489Z" fill="#2F7889"/>
<path d="M13.8355 4.40482L14.8955 4.55856C14.9392 4.56856 14.9692 4.61981 14.9755 4.69605C14.9755 4.69605 15.018 4.85605 14.898 4.91479C14.833 4.94729 14.5942 5.01854 14.5942 5.01854C14.5055 5.06353 14.438 5.11478 14.428 5.37102L14.4155 6.97093L12.9343 6.83719C12.9343 6.83719 13.4918 5.11103 13.6318 4.62981C13.673 4.48731 13.763 4.38732 13.8355 4.40482Z" fill="#F44336"/>
<path d="M12.9893 6.71103L13.048 6.52979L14.4179 6.56228V6.97226L12.9893 6.71103Z" fill="#C62828"/>
<path d="M14.918 8.67949L14.9868 6.97208L8.45963 5.99463L8.39838 6.58835L9.02085 6.67709L8.9596 8.02952L8.36214 7.96453L8.35839 8.58324L8.93211 8.64324L8.86961 10.0169L7.97091 9.94817L7.93091 10.5369L15.7067 11.1356L15.8542 8.77198L14.918 8.67949ZM9.81831 10.0907L9.12959 10.0369L9.19209 8.67074L9.87956 8.74323L9.81831 10.0907ZM9.9083 8.13327L9.22084 8.05827L9.28209 6.71584L9.9683 6.81834L9.9083 8.13327ZM10.7695 10.1632L10.0808 10.1094L10.142 8.77073L10.8308 8.84323L10.7695 10.1632ZM10.857 8.23576L10.1695 8.16077L10.2295 6.85708L10.9158 6.95958L10.857 8.23576ZM11.722 10.2369L11.032 10.1832L11.092 8.87073L11.7857 8.94447L11.722 10.2369ZM11.8145 8.34076L11.1182 8.26451L11.177 6.99958L11.8757 7.10457L11.8145 8.34076ZM12.6732 10.3107L11.9844 10.2569L12.0482 8.97197L12.7369 9.04447L12.6732 10.3107ZM12.7657 8.4445L12.0769 8.3695L12.1369 7.14332L12.8256 7.24706L12.7657 8.4445ZM13.6231 10.3831L12.9344 10.3294L12.9969 9.07197L13.6856 9.14446L13.6231 10.3831ZM13.7169 8.54824L13.0281 8.47325L13.0869 7.28581L13.7756 7.38831L13.7169 8.54824ZM14.5731 10.4569L13.8856 10.4044L13.9481 9.17321L14.6293 9.24571L14.5731 10.4569ZM14.6556 8.65074L13.9781 8.57699L14.0368 7.4283L14.708 7.5283L14.6556 8.65074ZM15.4993 10.5281L14.8355 10.4769L14.8905 9.27196L15.5743 9.34445L15.4993 10.5281Z" fill="#94D1E0"/>
<path d="M15.5529 9.68572L8.04834 9.02451L8.35707 8.58203L15.8067 9.36324L15.5529 9.68572Z" fill="#82AEC0"/>
<path d="M14.6893 7.84081L8.17969 6.94211L8.42717 6.58838L14.9618 7.56583L14.6893 7.84081Z" fill="#82AEC0"/>
<path d="M8.42715 6.58838L8.45839 5.99341L4.37111 6.04341L4.27737 6.54088L4.60735 6.84086L4.37611 7.89831H4.09113L4.03613 8.51828L4.19862 8.71076L3.76489 10.7057L7.99467 10.8669L8.06217 9.00325L8.35715 8.58202L8.3609 7.96455L8.17966 7.96205V6.94211L8.42715 6.58838Z" fill="#DFECF5"/>
<path d="M1.7688 10.427C1.7688 10.427 8.88967 10.3108 15.7043 11.1345L15.6806 11.7507C15.6806 11.7507 14.6194 11.6657 14.1356 11.6657C13.6519 11.6657 13.3957 12.8381 12.827 12.8381C12.2582 12.8381 9.36215 12.7031 8.73718 12.5344C8.11096 12.3669 8.2847 11.3457 7.71973 11.2045C7.15476 11.0632 1.7688 10.8657 1.7688 10.8657V10.427Z" fill="#82AEC0"/>
<path d="M13.3693 11.9507L13.328 12.0594C13.198 12.4031 12.8605 12.6231 12.4943 12.6019L9.38323 12.4056C8.9945 12.3844 8.66077 12.1182 8.55453 11.7432L8.48578 11.4994C8.38704 11.1507 8.0808 10.902 7.71957 10.8745L1.76864 10.427C1.62739 10.4158 1.51115 10.5357 1.5274 10.677C1.5274 10.677 1.62864 11.8744 1.78489 12.8431L16.3966 13.3094C16.4654 12.4106 16.4991 11.5569 16.4991 11.5569L14.203 11.4194C13.838 11.392 13.498 11.6082 13.3693 11.9507Z" fill="#DFECF5"/>
<path d="M1.7688 12.6931C1.7688 12.6931 1.88754 14.0005 2.32377 15.0642C2.76 16.1279 3.86119 16.4317 4.40741 16.4317H14.8356C15.4706 16.4317 15.9356 15.9179 16.1255 15.258C16.2218 14.9255 16.348 13.993 16.4093 13.1393L1.7688 12.6931Z" fill="#2167A1"/>
<path d="M15.9855 12.5657C16.1097 12.5657 16.2105 12.4347 16.2105 12.2732C16.2105 12.1117 16.1097 11.9807 15.9855 11.9807C15.8612 11.9807 15.7605 12.1117 15.7605 12.2732C15.7605 12.4347 15.8612 12.5657 15.9855 12.5657Z" fill="#2F7889"/>
<path d="M15.1467 12.5557C15.291 12.5557 15.408 12.4147 15.408 12.2408C15.408 12.0668 15.291 11.9258 15.1467 11.9258C15.0025 11.9258 14.8855 12.0668 14.8855 12.2408C14.8855 12.4147 15.0025 12.5557 15.1467 12.5557Z" fill="#2F7889"/>
<path d="M14.1942 12.5431C14.3578 12.5431 14.4904 12.3925 14.4904 12.2068C14.4904 12.0211 14.3578 11.8706 14.1942 11.8706C14.0306 11.8706 13.8979 12.0211 13.8979 12.2068C13.8979 12.3925 14.0306 12.5431 14.1942 12.5431Z" fill="#2F7889"/>
<path d="M7.15342 12.217C7.36327 12.217 7.5334 12.0284 7.5334 11.7957C7.5334 11.5631 7.36327 11.3745 7.15342 11.3745C6.94356 11.3745 6.77344 11.5631 6.77344 11.7957C6.77344 12.0284 6.94356 12.217 7.15342 12.217Z" fill="#2F7889"/>
<path d="M11.5119 12.142L12.6731 12.202C12.7831 12.2083 12.8531 12.0845 12.7906 11.9933L12.4056 11.4296C12.3831 11.3958 12.3456 11.3746 12.3043 11.3721L11.6669 11.3258C11.6019 11.3208 11.5431 11.3633 11.5269 11.4271L11.3881 11.9771C11.3681 12.057 11.4281 12.137 11.5119 12.142Z" fill="#2F7889"/>
<path d="M5.61217 12.1945C5.85102 12.1945 6.04464 11.9919 6.04464 11.742C6.04464 11.4921 5.85102 11.2896 5.61217 11.2896C5.37331 11.2896 5.17969 11.4921 5.17969 11.742C5.17969 11.9919 5.37331 12.1945 5.61217 12.1945Z" fill="#2F7889"/>
<path fill-rule="evenodd" clip-rule="evenodd" d="M13.619 11.2148L16.5051 11.4948L16.493 11.6192L13.6069 11.3393L13.619 11.2148Z" fill="#82AEC0"/>
<path d="M4.07113 12.1733C4.33828 12.1733 4.55485 11.9567 4.55485 11.6895C4.55485 11.4224 4.33828 11.2058 4.07113 11.2058C3.80397 11.2058 3.5874 11.4224 3.5874 11.6895C3.5874 11.9567 3.80397 12.1733 4.07113 12.1733Z" fill="#2F7889"/>
<path d="M10.757 11.2582L9.54959 11.1708C9.4971 11.167 9.4471 11.1945 9.4221 11.242L9.11087 11.8282C9.06462 11.9145 9.12461 12.0195 9.22211 12.0245L10.8933 12.1107C10.9833 12.1157 11.052 12.0307 11.0295 11.9432L10.8758 11.3595C10.862 11.3032 10.8145 11.2632 10.757 11.2582Z" fill="#2F7889"/>
<path d="M4.31226 9.87324L7.71958 9.93448L7.56833 8.86454L4.60099 8.84204L4.31226 9.87324Z" fill="#8EC9D6"/>
<path d="M4.78735 7.81208L7.53346 7.83708L7.44471 6.75589L5.02734 6.72339L4.78735 7.81208Z" fill="#8EC9D6"/>
</svg>
