<svg width="18" height="18" viewBox="0 0 18 18" fill="none" xmlns="http://www.w3.org/2000/svg">
<path d="M1.50146 6.99278L3.68635 3.6792L5.37876 5.61285L1.50146 6.99278Z" fill="#E1F5FE"/>
<path d="M6.51459 9.53308L1.50146 6.99321L5.37945 5.61328L6.51459 9.53308Z" fill="#81D4FA"/>
<path d="M8.99295 6.38324L5.37939 5.61328L6.51433 9.53308L8.99295 6.38324Z" fill="#64B5F6"/>
<path d="M16.4852 6.99278L14.3003 3.6792L12.6079 5.61285L16.4852 6.99278Z" fill="#0288D1"/>
<path d="M11.4727 9.53308L16.4858 6.99321L12.6078 5.61328L11.4727 9.53308Z" fill="#81D4FA"/>
<path d="M8.99365 6.38324L12.6072 5.61328L11.4723 9.53308L8.99365 6.38324Z" fill="#E1F5FE"/>
<path d="M11.4719 9.53314L8.99327 6.3833L6.51465 9.53314H11.4719Z" fill="#B2EBF2"/>
<path d="M6.3761 2.25781H11.6118L14.3008 3.67899L12.6081 5.61264L8.99393 6.3826L5.37972 5.61264L3.68701 3.67899L6.3761 2.25781Z" fill="#B3E5FC"/>
<path d="M8.99365 15.6607L1.50146 6.99341L6.51459 9.53373L8.99365 15.6607Z" fill="#1E88E5"/>
<path d="M8.99365 15.6607L16.4858 6.99341L11.4727 9.53373L8.99365 15.6607Z" fill="#B3E5FC"/>
<path d="M11.4719 9.53369L8.99327 15.6607L6.51465 9.53369H11.4719Z" fill="#E1F5FE"/>
</svg>
