<svg width="18" height="18" viewBox="0 0 18 18" fill="none" xmlns="http://www.w3.org/2000/svg">
<path d="M8.23697 13.0107C7.96199 13.0107 3.57722 14.1944 3.50347 14.2194C3.40723 14.2532 3.37473 14.3769 3.53347 14.4207C3.69221 14.4644 10.9756 16.4718 11.0481 16.4718C11.1206 16.4718 15.0279 14.6557 15.0991 14.6269C15.1716 14.5982 15.1304 14.3869 14.9304 14.3419C14.7966 14.3119 8.59696 13.0107 8.23697 13.0107Z" fill="#5E6268"/>
<path d="M12.2319 14.8406L11.6194 15.1068L12.3731 15.2868L13.0231 15.0193L12.2319 14.8406Z" fill="#C8C8C8"/>
<path d="M5.14722 14.8681L9.99321 13.3257L10.7619 13.4807L5.93967 15.0731L5.14722 14.8681Z" fill="#C8C8C8"/>
<path d="M10.9293 14.5457L10.3005 14.7931L11.1467 14.9956L11.7342 14.7281L10.9293 14.5457Z" fill="#C8C8C8"/>
<path d="M10.5106 14.4507L9.63686 14.2532L9.00439 14.4857L9.8381 14.6832L10.5106 14.4507Z" fill="#C8C8C8"/>
<path d="M6.07326 14.7605C5.92202 14.6892 3.86963 14.113 3.86963 14.113L4.45585 13.958C4.45585 13.958 6.65198 14.5117 6.58074 14.5292C6.51074 14.5467 6.07326 14.7605 6.07326 14.7605Z" fill="#C8C8C8"/>
<path d="M7.12465 14.333L5.03101 13.808L5.63972 13.6455L7.84711 14.1817L7.12465 14.333Z" fill="#C8C8C8"/>
<path d="M8.26563 13.9682L6.25073 13.4832L6.87445 13.3245L8.86185 13.8169L8.26563 13.9682Z" fill="#C8C8C8"/>
<path d="M7.34326 13.2069L9.35191 13.6743L9.77063 13.4956L7.88073 13.0781L7.34326 13.2069Z" fill="#C8C8C8"/>
<path d="M13.8392 10.1833C13.8392 10.1833 13.833 10.7383 13.8742 10.767C13.9155 10.7958 14.0904 10.7845 14.0904 10.7845C14.0904 10.7845 13.8217 10.9133 13.8455 11.2045C13.8655 11.4557 14.0204 11.6245 14.3242 11.6245C14.6279 11.6245 14.8079 11.4557 14.8029 11.1745C14.7967 10.842 14.4704 10.7595 14.4704 10.7595C14.4704 10.7595 14.5992 10.7533 14.5992 10.7245C14.5992 10.6958 14.5929 10.1646 14.5929 10.1646L13.8392 10.1833Z" fill="#5D6268"/>
<path d="M12.0806 9.65454L12.0869 9.86453C12.0869 9.86453 11.9056 9.99827 11.9294 10.2433C11.9531 10.4882 12.1219 10.6282 12.3556 10.6282C12.5894 10.6282 12.7643 10.4707 12.7581 10.1845C12.7531 9.92203 12.4781 9.78828 12.4781 9.78828L12.0806 9.65454Z" fill="#5D6268"/>
<path d="M7.24209 9.39697C6.77836 9.42822 6.60962 9.70321 6.60962 9.94569C6.60962 10.1882 6.60962 10.4832 6.95835 10.7157C7.33583 10.9669 7.8483 11.2231 8.32953 11.3894C8.787 11.5469 9.38947 11.4281 9.38197 10.7157C9.37697 10.3182 9.43072 9.86445 8.872 9.7757C8.50077 9.71696 8.01329 9.45197 8.01329 9.45197L7.24209 9.39697Z" fill="#999B9A"/>
<path d="M8.87453 9.972C8.71703 9.967 8.56704 10.2007 8.55329 10.5357C8.53954 10.8995 8.61704 11.2357 8.83203 11.2357C9.04577 11.2357 9.13951 10.857 9.13951 10.557C9.13826 10.2645 9.08826 9.9795 8.87453 9.972Z" fill="#5D6268"/>
<path d="M10.2669 9.37451V10.157C10.2669 10.157 10.0082 10.3145 10.0194 10.5932C10.0294 10.8419 10.2169 11.0457 10.4681 11.0694C10.7194 11.0932 10.9743 10.9182 10.9806 10.6332C10.9868 10.3532 10.8056 10.2307 10.8056 10.2307V9.46576L10.2669 9.37451Z" fill="#5D6268"/>
<path d="M5.71704 5.82223C5.71704 5.82223 6.01328 5.50349 6.06452 5.48224C6.11452 5.461 6.4845 5.461 6.57075 5.46725C6.65699 5.47475 6.65324 5.53599 6.58075 5.66223C6.4945 5.81473 6.20327 6.2972 6.20327 6.2972L5.71704 5.82223Z" fill="#006CA8"/>
<path d="M10.5532 7.10473L11.8544 5.79979C11.8544 5.79979 11.8707 5.30357 11.8994 5.21982C11.9132 5.17733 12.2331 5.22857 12.2756 5.25732C12.3581 5.31232 12.6744 5.89604 12.6744 5.89604L12.0994 7.48221L10.5532 7.10473Z" fill="#006CA8"/>
<path d="M4.08341 6.1623C4.02592 6.17105 3.92592 6.2923 3.95342 6.39354C3.98092 6.49478 4.13091 6.94726 5.45709 7.75847C6.78327 8.56968 8.40443 9.10965 9.33189 9.35463C10.2593 9.59962 11.9192 10.0246 13.4642 10.2046C15.0091 10.3846 16.3865 10.4233 16.4378 9.9346C16.489 9.44588 15.6528 8.95591 15.6528 8.95591L15.5366 8.76342C15.5366 8.76342 15.5366 8.51843 15.1891 8.22219C14.8416 7.92596 14.0429 7.57848 12.293 7.166C10.5418 6.75352 7.64572 6.21355 6.43579 6.13605C5.22585 6.05856 4.21716 6.1423 4.08341 6.1623Z" fill="#C8C8C8"/>
<path d="M14.5328 8.91842C14.4166 8.91217 14.3203 8.96342 14.3203 9.05966C14.3203 9.15591 14.3653 9.23965 14.5266 9.27215C14.6878 9.30465 15.0928 9.34965 15.4153 9.2534C15.7377 9.15716 15.7465 9.01216 15.7465 9.01216C15.7465 9.01216 15.6977 8.94717 15.6527 8.88092C15.6115 8.82092 15.534 8.73218 15.534 8.73218C15.534 8.73218 15.3965 8.87342 15.1328 8.90592C14.8678 8.93717 14.649 8.92467 14.5328 8.91842Z" fill="#385662"/>
<path d="M12.4129 8.6959C12.3154 8.69215 12.2629 8.80089 12.2629 8.90213C12.2629 8.99588 12.2867 9.12087 12.4092 9.12962C12.5067 9.13587 12.5829 9.04463 12.5792 8.91463C12.5754 8.78464 12.5304 8.69964 12.4129 8.6959Z" fill="#385662"/>
<path d="M2.37609 9.65092C2.47609 9.67342 4.58473 9.44093 5.25094 9.33219C6.41213 9.1422 7.32083 8.90346 7.39458 8.81846C7.45332 8.75097 7.52832 8.56348 7.67206 8.56348C7.81581 8.56348 8.38077 8.66222 8.93825 8.75222C9.69321 8.87471 10.4144 9.06345 10.5257 9.11845C10.6369 9.17344 10.6807 9.47343 10.2032 9.56217C9.7257 9.65092 8.01579 9.96215 6.65087 10.1171C5.28594 10.2721 2.33234 10.6071 1.97736 10.3284C1.82237 10.2059 1.73363 9.23844 1.81737 9.1547C1.82862 9.14345 2.1561 9.1372 2.2461 9.16719C2.2836 9.17969 2.37609 9.65092 2.37609 9.65092Z" fill="#006CA8"/>
<path d="M11.4605 8.44597C11.3667 8.44222 11.298 8.50221 11.2905 8.64845C11.283 8.7947 11.3392 8.87594 11.4405 8.88719C11.5417 8.89844 11.6104 8.79845 11.6104 8.65595C11.6104 8.53471 11.5704 8.45097 11.4605 8.44597Z" fill="#385662"/>
<path d="M10.5131 8.23717C10.3831 8.22967 10.3506 8.34217 10.3506 8.43591C10.3506 8.52966 10.3668 8.6584 10.4918 8.66715C10.6168 8.67465 10.6618 8.5659 10.6618 8.46841C10.6618 8.37092 10.6506 8.24592 10.5131 8.23717Z" fill="#385662"/>
<path d="M9.51449 8.01328C9.417 8.00953 9.3645 8.11827 9.3645 8.21952C9.3645 8.31326 9.38825 8.43826 9.51074 8.44701C9.60824 8.45325 9.68448 8.36201 9.68074 8.23202C9.67699 8.10202 9.63199 8.01703 9.51449 8.01328Z" fill="#385662"/>
<path d="M13.4067 7.82967C13.3879 7.95466 13.4679 8.00966 13.7092 8.08091C14.0129 8.1709 14.1404 8.16715 14.1791 8.04841C14.2241 7.91341 14.0541 7.83467 13.8254 7.76467C13.5929 7.69468 13.4254 7.70093 13.4067 7.82967Z" fill="#E1E1E1"/>
<path d="M6.83325 7.40349C6.73951 7.39974 6.67076 7.45973 6.66326 7.60597C6.65576 7.75222 6.71201 7.83346 6.81325 7.84471C6.9145 7.85721 6.98325 7.75597 6.98325 7.61347C6.98325 7.49223 6.94325 7.40723 6.83325 7.40349Z" fill="#385662"/>
<path d="M5.94594 7.11974C5.81595 7.11224 5.78345 7.22474 5.78345 7.31848C5.78345 7.41223 5.7997 7.54097 5.92469 7.54972C6.04968 7.55722 6.09468 7.44847 6.09468 7.35098C6.09468 7.25348 6.08468 7.12724 5.94594 7.11974Z" fill="#385662"/>
<path d="M7.48952 6.53586C7.38828 6.62835 7.49577 6.73585 7.84325 6.80584C8.19073 6.87584 9.45942 7.12083 10.2569 7.27582C11.0556 7.43081 12.6517 7.78454 12.838 7.81704C13.0242 7.84954 13.1217 7.79079 13.1405 7.71455C13.1592 7.63705 13.083 7.5533 12.683 7.46956C12.3243 7.39456 11.4018 7.17957 10.3069 6.96708C9.21193 6.7546 8.09199 6.54836 7.9245 6.52336C7.76076 6.49711 7.56702 6.46461 7.48952 6.53586Z" fill="#E1E1E1"/>
<path d="M8.58192 7.8258C8.45193 7.8183 8.41943 7.93079 8.41943 8.02453C8.41943 8.11828 8.43568 8.24702 8.56068 8.25577C8.68567 8.26327 8.73067 8.15453 8.73067 8.05703C8.73067 7.95954 8.71942 7.83329 8.58192 7.8258Z" fill="#385662"/>
<path d="M7.67709 7.60971C7.5796 7.60596 7.5271 7.71471 7.5271 7.81595C7.5271 7.9097 7.55085 8.03469 7.67334 8.04344C7.77084 8.04969 7.84708 7.95845 7.84333 7.82845C7.83833 7.69846 7.79459 7.61346 7.67709 7.60971Z" fill="#385662"/>
<path d="M4.37095 6.2997C4.46095 6.38219 4.85218 6.41594 5.66214 6.50344C6.47209 6.59093 7.01332 6.65218 7.01332 6.60218C7.01332 6.52594 6.3846 6.16846 6.13586 6.02971C5.88838 5.89097 4.19596 3.3461 4.13722 3.3311C4.07847 3.31611 3.5535 3.22111 3.50975 3.27236C3.466 3.3236 4.28346 6.2197 4.37095 6.2997Z" fill="#014EAC"/>
<path d="M4.22476 6.47461C4.13727 6.47461 1.76614 6.76584 1.60615 6.78084C1.44616 6.79584 1.37241 6.87584 1.37991 6.95583C1.38741 7.03583 1.47491 7.08708 1.80364 7.08708C2.13237 7.08708 4.69974 6.99208 4.78723 6.98458C4.87473 6.97708 4.95472 6.77334 4.72099 6.6496C4.48725 6.52586 4.22476 6.47461 4.22476 6.47461Z" fill="#006CA8"/>
</svg>
