<svg width="18" height="18" viewBox="0 0 18 18" fill="none" xmlns="http://www.w3.org/2000/svg">
<path d="M5.49569 1.39875C5.43818 1.43375 5.47068 4.44985 5.50694 4.51109C5.55194 4.58734 6.14577 5.14106 6.67458 5.60229C7.08839 5.96227 7.45343 5.70978 7.52219 5.70978C7.67846 5.70978 10.3038 5.73853 10.3825 5.73853C10.4151 5.73853 10.8801 6.00976 11.2714 5.67728C11.8277 5.20231 12.4966 4.60609 12.5078 4.51859C12.5191 4.4336 12.5203 1.43625 12.4791 1.41C12.4603 1.3975 11.9865 1.39001 11.3252 1.38251C10.7626 1.37626 9.6162 1.66499 8.88486 1.66249C7.94724 1.65999 7.41093 1.36751 6.68083 1.37376C6.012 1.37876 5.51694 1.38501 5.49569 1.39875Z" fill="#176BC6"/>
<path d="M6.67807 1.37008L6.67432 5.60236C6.67432 5.60236 6.87931 5.78485 7.08554 5.95359C7.28053 6.11359 7.47677 6.25983 7.49177 6.25858C7.62802 6.24858 10.4616 6.31857 10.5204 6.28983C10.5529 6.27358 10.7641 6.10734 10.9628 5.94359C11.1166 5.8161 11.2728 5.68111 11.2728 5.68111L11.3291 1.38008C11.3291 1.38008 10.9741 1.37883 10.5091 1.37508C10.5066 1.37508 9.35168 1.51008 8.9142 1.51133C8.38923 1.51258 7.90925 1.36633 7.44678 1.36633C6.9118 1.36633 6.67807 1.37008 6.67807 1.37008Z" fill="white"/>
<path d="M7.47812 6.26309C7.39937 6.20433 7.44562 1.36623 7.44562 1.36623C7.44562 1.36623 7.96309 1.35998 9.06179 1.36498C10.0192 1.36873 10.5092 1.37498 10.5092 1.37498C10.5092 1.37498 10.5542 6.20558 10.5055 6.28434C10.4567 6.3631 9.65551 6.76315 9.10803 6.77191C8.56056 6.78066 7.51687 6.2931 7.47812 6.26309Z" fill="#DB0D2A"/>
<path d="M9.0318 7.5681C9.29178 7.5531 10.5642 6.32317 10.5405 6.28317C10.5242 6.25567 9.76676 6.25192 9.0018 6.24817C8.23684 6.24442 7.46813 6.22817 7.46438 6.25567C7.45813 6.30942 8.71181 7.58685 9.0318 7.5681Z" fill="#FBC21F"/>
<path d="M8.99977 7.35339C8.91351 7.35339 8.85475 7.51591 8.8035 7.62593C8.75224 7.73594 7.46083 10.6176 7.44458 10.6438C7.42708 10.6688 4.52546 10.6951 4.3892 10.7126C4.25293 10.7301 4.15292 10.7801 4.15292 10.8401C4.15292 10.9001 4.13416 11.0226 4.21042 11.0814C4.28668 11.1414 6.63823 13.0866 6.63823 13.1291C6.63823 13.1716 5.87063 16.2483 5.87938 16.317C5.88813 16.3858 5.93189 16.4583 5.98315 16.5008C6.0344 16.5433 6.06941 16.542 6.15567 16.5233C6.31694 16.4883 8.85976 14.9268 8.89476 14.9356C8.92851 14.9443 11.5426 16.4808 11.6101 16.4895C11.6789 16.4983 11.7551 16.4895 11.8051 16.4545C11.8551 16.4195 11.9064 16.2858 11.8801 16.192C11.8551 16.0982 11.3276 13.3867 11.3451 13.3354C11.3626 13.2841 13.6041 11.3489 13.6466 11.2639C13.6891 11.1789 13.6078 10.9788 13.5316 10.9188C13.4553 10.8588 10.5762 10.6538 10.5162 10.6201C10.4562 10.5863 9.26356 7.65218 9.2473 7.59217C9.23105 7.53217 9.09353 7.35339 8.99977 7.35339Z" fill="#FBC21F"/>
<path d="M6.96322 13.1752C6.92197 13.2115 6.31575 15.7576 6.3495 15.8163C6.38325 15.8763 8.59938 13.2002 8.59063 13.149C8.58188 13.0977 8.59938 12.6202 8.59938 12.6202C8.59938 12.6202 7.03072 13.1152 6.96322 13.1752Z" fill="#FDEFAA"/>
<path d="M8.25923 13.6242C8.12549 13.5417 7.92925 13.7542 7.74426 13.9567C7.55927 14.1592 5.98185 16.1416 5.9256 16.2128C5.86561 16.2903 5.80561 16.4591 5.91185 16.5403C6.01685 16.6228 6.14434 16.574 6.25058 16.4603C6.35683 16.3466 7.90175 14.3767 7.99924 14.2329C8.15423 14.0067 8.38672 13.7029 8.25923 13.6242Z" fill="#F6922C"/>
<path d="M9.73703 13.5817C9.61954 13.6854 9.79703 13.8979 9.93702 14.1329C10.077 14.3679 11.4569 16.3403 11.5094 16.414C11.5657 16.494 11.7094 16.6003 11.8194 16.5228C11.9294 16.4453 11.9194 16.3103 11.8419 16.1765C11.7644 16.0428 10.3208 14.0654 10.212 13.9304C10.0383 13.7167 9.84953 13.4829 9.73703 13.5817Z" fill="#F6922C"/>
<path d="M9.49464 12.3737C9.46214 12.3337 10.2446 11.07 10.3471 11.0276C10.4496 10.9851 13.2019 11.1463 13.1932 11.2063C13.1844 11.265 9.52838 12.4162 9.49464 12.3737Z" fill="#FDEFAA"/>
<path d="M7.80713 10.6596C7.80713 10.7246 8.61709 12.3383 8.66833 12.3383C8.71958 12.3383 9.02581 12.2108 9.02581 12.2108C9.02581 12.2108 9.03456 8.06098 9.00831 8.10347C8.98332 8.14597 7.80713 10.5233 7.80713 10.6596Z" fill="#FDEFAA"/>
<path d="M9.25317 12.2126C9.24442 12.1864 9.17068 11.8451 9.15318 11.7539C9.13568 11.6676 9.07568 11.5726 8.98944 11.5726C8.90694 11.5726 8.84444 11.6614 8.81694 11.7801C8.7782 11.9439 8.7182 12.2126 8.7182 12.2126C8.7182 12.2126 8.39822 12.1851 8.32572 12.1826C8.21323 12.1788 8.07948 12.1863 8.05823 12.2863C8.04449 12.3476 8.06448 12.4288 8.23073 12.5326C8.36947 12.6188 8.53321 12.7138 8.53321 12.7138C8.53321 12.7138 8.48446 12.8951 8.44696 13.0588C8.42572 13.1538 8.37322 13.3313 8.46446 13.3788C8.55446 13.4263 8.65945 13.3488 8.76195 13.2488C8.82819 13.185 8.98194 13.0376 8.98194 13.0376C8.98194 13.0376 9.17443 13.1838 9.24692 13.2425C9.33442 13.3138 9.47191 13.3588 9.54066 13.2988C9.6144 13.2338 9.59815 13.1263 9.55816 13.0088C9.51441 12.8838 9.42816 12.6976 9.42816 12.6976C9.42816 12.6976 9.72565 12.5101 9.78064 12.4713C9.83689 12.4326 9.90189 12.3413 9.86314 12.2426C9.83689 12.1751 9.7244 12.1514 9.6294 12.1689C9.53441 12.1863 9.25317 12.2126 9.25317 12.2126Z" fill="#F6922C"/>
<path d="M10.2188 12.1337C10.2613 12.2849 10.4113 12.2549 10.6775 12.1874C10.9425 12.1212 13.4523 11.3475 13.5373 11.3187C13.6298 11.2875 13.7723 11.18 13.7298 11.0537C13.6873 10.9263 13.5548 10.8963 13.4036 10.9325C13.2524 10.9688 10.7612 11.8075 10.5975 11.8675C10.4912 11.9075 10.1763 11.9824 10.2188 12.1337Z" fill="#F6922C"/>
<path d="M7.66024 12.1037C7.69899 11.9525 7.39775 11.8437 7.14527 11.7387C6.89278 11.6325 4.51665 10.7888 4.43041 10.76C4.33791 10.73 4.18167 10.7313 4.13917 10.8575C4.09668 10.985 4.16292 11.0863 4.30542 11.1488C4.44791 11.2113 6.81153 12.0175 6.97903 12.0625C7.24526 12.1325 7.62024 12.2599 7.66024 12.1037Z" fill="#F6922C"/>
<path d="M9.00574 11.1394C9.16198 11.1219 9.15073 10.7894 9.17198 10.5169C9.19323 10.2444 9.23072 7.58079 9.23072 7.4908C9.23072 7.3933 9.17198 7.23706 9.03824 7.23706C8.90449 7.23706 8.83575 7.33956 8.822 7.4933C8.80825 7.64829 8.82075 10.3019 8.83075 10.4744C8.84824 10.7494 8.85699 11.1569 9.00574 11.1394Z" fill="#F6922C"/>
</svg>
