<svg width="18" height="18" viewBox="0 0 18 18" fill="none" xmlns="http://www.w3.org/2000/svg">
<path d="M10.662 9.11963L11.8669 8.94714C11.8669 8.94714 12.0582 11.4395 12.2032 11.7332C12.3481 12.027 13.9268 13.8344 13.9268 13.8344L13.5943 14.5543L11.4519 12.5257C11.222 12.3082 11.0732 12.0195 11.0282 11.7057L10.662 9.11963Z" fill="url(#paint0_linear_746_716)"/>
<path d="M7.27966 9.11963L6.07472 8.94714C6.07472 8.94714 5.88348 11.4395 5.73849 11.7332C5.5935 12.0282 4.01483 13.8344 4.01483 13.8344L4.34731 14.5543L6.48845 12.5257C6.71844 12.3082 6.86718 12.0195 6.91218 11.7057L7.27966 9.11963Z" fill="url(#paint1_linear_746_716)"/>
<path d="M12.072 9.68962L11.9682 8.50968C11.9545 8.34844 11.6657 7.03601 9.02836 7.03601C6.391 7.03601 6.04852 8.32094 6.03227 8.50843L5.92853 9.68837L7.07097 9.78962V13.2707H10.9683V9.78712L12.072 9.68962Z" fill="url(#paint2_linear_746_716)"/>
<path d="M11.9169 14.9593C11.0845 15.1031 10.3633 15.3218 9.55207 15.563C9.18709 15.6718 8.80336 15.7843 8.38214 15.8968C7.56218 16.1155 6.59973 16.3342 5.3573 16.5167C4.62108 16.6255 3.84863 16.5167 3.4574 16.2755C3.16616 16.0955 2.90993 15.7393 3.01117 15.4368C3.12241 15.1018 3.4549 14.7293 3.92362 14.5056C4.11736 14.4131 4.32735 14.3256 4.54359 14.2456C5.08231 14.0444 5.65478 13.8806 6.08351 13.7681C6.49224 13.6619 6.77222 13.6031 6.77222 13.6031C7.28469 13.4906 7.75717 13.4881 8.13215 13.6494C8.78462 13.9281 12.1457 14.9206 11.9169 14.9593Z" fill="url(#paint3_linear_746_716)"/>
<path d="M5.27604 14.0181L4.66733 14.6093L4.1386 14.9718C4.1261 14.9818 4.10986 14.9868 4.09361 14.9855L3.95986 14.973C3.88362 15.0143 3.79987 15.0368 3.71488 15.0368C3.67613 15.0368 3.63488 15.0318 3.59613 15.0243C3.50739 15.0043 3.42739 14.9618 3.36115 14.9005C3.50614 14.758 3.68488 14.6305 3.88987 14.5305C4.3011 14.3305 4.78732 14.1518 5.24105 14.0081L5.27604 14.0181Z" fill="url(#paint4_linear_746_716)"/>
<path d="M14.5306 16.2754C14.1393 16.5167 13.3694 16.6154 12.6307 16.5167C11.222 16.3292 9.48709 15.7567 8.2434 15.1505C7.53719 14.8067 6.92472 14.3955 6.57099 14.1918C6.32225 14.048 6.12477 13.968 5.81228 14.0018C5.68979 14.0155 5.64979 14.0243 5.56354 14.0205C5.38855 14.013 5.54355 13.7343 5.54355 13.7343C5.62854 13.5368 5.91228 13.3106 6.19101 13.4106C6.46975 13.5106 6.80473 13.7118 6.80473 13.7118C7.44095 13.9093 7.46969 13.5143 7.84217 13.6456C8.02841 13.7106 8.07091 13.933 8.07591 14.058C8.08216 14.193 8.28715 14.318 8.42214 14.3368L9.29585 14.4405L9.41584 14.4543L9.72832 14.4918L10.6783 13.8168L10.8095 13.7231L11.1533 13.4793C11.1533 13.4793 11.247 13.5106 11.4045 13.5656C11.4532 13.5818 11.5082 13.6018 11.5695 13.6231C11.827 13.7131 12.1794 13.838 12.5569 13.978C12.5994 13.9943 12.6432 14.0105 12.6869 14.0268C13.1756 14.2105 13.6931 14.4155 14.0906 14.5993C14.5618 14.8167 14.8656 15.1017 14.978 15.4367C15.078 15.7392 14.8218 16.0954 14.5306 16.2754Z" fill="url(#paint5_linear_746_716)"/>
<path d="M10.9832 13.3281L10.9645 12.8994C10.9645 12.8994 10.4507 13.1344 9.05206 13.1344C7.65339 13.1344 7.06842 12.8994 7.06842 12.8994V13.3281L6.14722 13.8781L9.01207 15.1843L12.0357 13.8669L10.9832 13.3281Z" fill="#7C7C7C"/>
<path d="M9.55206 15.563C9.18708 15.6717 8.80335 15.7842 8.38213 15.8967C8.21339 15.8217 8.05089 15.7455 7.8934 15.6692C7.27843 15.368 6.71471 15.0243 6.30474 14.773L6.27349 14.7555C6.116 14.658 5.97975 14.5743 5.86601 14.508C5.63727 14.3755 5.54603 14.353 5.42603 14.353C5.39478 14.353 5.36354 14.3555 5.32979 14.3605L5.24104 14.3693C5.1773 14.3768 5.10355 14.3868 5.01105 14.3868C4.98731 14.3868 4.96481 14.3855 4.93856 14.3843C4.78982 14.378 4.65357 14.3305 4.54358 14.2455C5.0823 14.0443 5.65477 13.8806 6.0835 13.7681C6.13599 13.7931 6.18849 13.8231 6.24349 13.8543C6.35848 13.9218 6.50098 14.0081 6.66097 14.1068C7.0672 14.3555 7.62217 14.6968 8.22463 14.9905C8.62086 15.1842 9.05709 15.373 9.51957 15.5505L9.55206 15.563Z" fill="url(#paint6_linear_746_716)"/>
<path d="M5.04358 15.123C5.05358 14.9955 5.13232 14.883 5.22607 14.8043C5.31981 14.7218 5.42981 14.6655 5.54605 14.623C5.6023 14.603 5.67105 14.5868 5.72729 14.5805L5.90103 14.5568C6.01728 14.543 6.13352 14.528 6.24977 14.5168C6.48225 14.4918 6.71599 14.478 6.94973 14.4705C7.18347 14.463 7.4172 14.463 7.65344 14.4793C7.68844 14.4818 7.71469 14.5118 7.71219 14.5468C7.70969 14.5805 7.68219 14.6068 7.64844 14.6055H7.64594C7.4172 14.6018 7.18472 14.6093 6.95473 14.618C6.72349 14.628 6.4935 14.6455 6.26351 14.663C6.14852 14.673 6.03353 14.6843 5.91853 14.6968L5.74604 14.718C5.68605 14.7243 5.64105 14.7318 5.58605 14.7468C5.48231 14.7768 5.37981 14.8243 5.28982 14.8843C5.19982 14.9455 5.12358 15.0255 5.08983 15.1293V15.1305C5.08608 15.143 5.07233 15.1493 5.05983 15.1455C5.04983 15.143 5.04358 15.133 5.04358 15.123Z" fill="#EDA600"/>
<path d="M14.5306 16.2754C14.1393 16.5167 13.3694 16.6154 12.6307 16.5167C11.597 16.3792 10.3883 16.0342 9.32585 15.6205C8.94087 15.4705 8.57464 15.3117 8.2434 15.1505C7.53719 14.8067 6.92472 14.3955 6.57099 14.1918C6.32225 14.048 6.12477 13.968 5.81228 14.0018C5.68979 14.0155 5.64979 14.0243 5.56354 14.0205C5.38855 14.013 5.54355 13.7343 5.54355 13.7343C5.62854 13.5368 5.91228 13.3106 6.19101 13.4106C6.46975 13.5106 6.80473 13.7118 6.80473 13.7118C7.44095 13.9093 7.46969 13.5143 7.84217 13.6456C8.02841 13.7106 8.07091 13.933 8.07591 14.058C8.08216 14.193 8.28715 14.318 8.42214 14.3368C8.42214 14.3368 8.77838 14.4005 9.16585 14.4518H9.1671L9.23085 14.4593C9.25835 14.463 9.28585 14.4668 9.31335 14.4693C9.40584 14.4805 9.49709 14.4893 9.58333 14.4968L9.60708 14.4993H9.61333C9.61458 14.5005 9.61583 14.5005 9.61708 14.4993C9.61708 14.4993 9.61708 14.4993 9.61833 14.4993C9.71208 14.5068 9.79957 14.5105 9.87457 14.5105C9.99331 14.5105 10.1083 14.5068 10.2208 14.4993C10.6083 14.4755 10.9658 14.4168 11.312 14.3668C11.4095 14.3518 11.5057 14.338 11.602 14.3255C11.6032 14.3255 11.6032 14.3255 11.6032 14.3255C11.947 14.2818 12.2844 14.258 12.6369 14.298C13.3019 14.3743 14.1181 14.6005 14.9106 15.2855C14.9368 15.3342 14.9605 15.3855 14.978 15.4367C15.078 15.7392 14.8218 16.0954 14.5306 16.2754Z" fill="url(#paint7_linear_746_716)"/>
<path d="M12.9031 14.5568C12.6819 14.4768 12.0407 14.3906 11.6707 14.3468C11.6707 14.3468 11.9682 14.1656 12.4419 14.2206C12.7369 14.2556 12.4519 13.7394 12.4519 13.7394C12.4519 13.7394 11.7207 14.1381 11.472 14.2819C11.4607 14.2881 11.4357 14.3019 11.4032 14.3181C11.3982 14.3206 11.3932 14.3231 11.3882 14.3256C11.3645 14.3381 11.3382 14.3518 11.312 14.3668C11.2407 14.4031 11.1657 14.4418 11.1282 14.4631C11.212 14.4656 11.2945 14.4693 11.3782 14.4731C12.2032 14.5143 13.0044 14.6243 13.3794 14.9431C13.3906 14.9518 13.4094 14.9481 13.4056 14.9356C13.3681 14.8206 13.2156 14.6706 12.9031 14.5568Z" fill="#EDA600"/>
<path d="M12.4782 14.1106C12.3932 14.1143 12.3532 14.1056 12.2294 14.0906C11.9182 14.0581 11.7207 14.1381 11.472 14.2818C11.4607 14.2881 11.4357 14.3018 11.4032 14.3181C11.3982 14.3206 11.3932 14.3231 11.3882 14.3256C11.3645 14.3381 11.3382 14.3518 11.312 14.3668C11.2408 14.4031 11.1658 14.4418 11.1283 14.4631C11.1208 14.4668 11.1133 14.4706 11.1095 14.4731C11.1095 14.4731 10.6495 14.4718 10.457 14.4893C10.4183 14.4931 10.382 14.4956 10.3495 14.4981C10.1833 14.5106 10.0808 14.5106 9.87457 14.5106C9.79958 14.5106 9.71208 14.5068 9.61834 14.4993C9.61709 14.4993 9.61709 14.4993 9.61709 14.4993H9.60709L9.58334 14.4968C9.49709 14.4893 9.40585 14.4806 9.31335 14.4693L9.32085 14.4681H9.3221L9.57959 14.4318L9.62084 14.4256C9.70708 14.4143 9.82083 14.3593 9.89457 14.2856C9.89582 14.2843 9.89707 14.2831 9.89707 14.2818C9.90707 14.2731 9.91457 14.2643 9.92207 14.2543C9.94707 14.2218 9.96332 14.1856 9.96582 14.1468C9.96582 14.1406 9.96707 14.1343 9.96832 14.1281C9.97707 14.0006 10.0233 13.7956 10.2008 13.7344C10.5733 13.6044 10.6008 13.9981 11.237 13.8019C11.237 13.8019 11.572 13.6006 11.8507 13.5006C12.1295 13.4006 12.4144 13.6256 12.4982 13.8231C12.4982 13.8231 12.5194 13.8606 12.5369 13.9069C12.5669 13.9894 12.5907 14.1056 12.4782 14.1106Z" fill="url(#paint8_linear_746_716)"/>
<path d="M15.5492 13.5193C15.5492 13.4993 15.5392 13.4793 15.5217 13.468C15.5042 13.4568 15.4842 13.453 15.4642 13.4605C15.4567 13.463 15.2955 13.5205 15.2218 13.6768C15.218 13.6843 15.2155 13.693 15.2155 13.7018L15.2043 14.0055C15.1893 14.0268 15.1668 14.0568 15.1418 14.0918L15.0993 13.7118L15.1093 13.1993C15.1093 13.1818 15.103 13.1643 15.0905 13.1518C15.078 13.1393 15.0593 13.1331 15.043 13.1343C15.0393 13.1343 14.993 13.1381 14.9368 13.1568C14.9318 13.1568 14.928 13.1568 14.923 13.1568C14.9193 13.1568 14.9155 13.1581 14.9105 13.1581C14.9018 13.1581 14.8943 13.1593 14.8855 13.1606C14.8768 13.1618 14.8668 13.1631 14.858 13.1656C14.8505 13.1668 14.8443 13.1693 14.8368 13.1706C14.828 13.1731 14.8205 13.1756 14.8118 13.1793C14.8055 13.1818 14.7993 13.1843 14.793 13.1881C14.7855 13.1918 14.7793 13.1956 14.7718 13.2006C14.7655 13.2043 14.7605 13.2081 14.7543 13.2118C14.748 13.2168 14.7418 13.2218 14.7368 13.2268C14.7318 13.2318 14.7255 13.2368 14.7205 13.2418C14.7155 13.2468 14.7105 13.2518 14.7055 13.2568C14.7005 13.2631 14.6943 13.2693 14.6893 13.2756C14.6855 13.2806 14.6818 13.2856 14.678 13.2893C14.6718 13.2968 14.6655 13.3056 14.6605 13.3131C14.658 13.3156 14.6568 13.3193 14.6543 13.3218C14.578 13.433 14.5205 13.5668 14.4056 13.6105C14.3856 13.618 14.3643 13.6243 14.3418 13.6293C14.1331 13.673 13.8606 13.5918 13.7031 13.773L13.7043 13.7755C13.6993 13.7805 13.6931 13.7855 13.6881 13.7918C13.6456 13.843 13.4769 13.7468 13.4769 13.7468L13.1606 13.968L13.1244 13.9343L13.0144 13.8305L12.8694 13.8655L13.4831 14.4517L14.0156 14.8105C14.0281 14.8205 14.0443 14.8255 14.0606 14.823L14.1931 14.8092C14.2693 14.8505 14.3543 14.8717 14.4393 14.8717C14.4793 14.8717 14.5193 14.8667 14.558 14.858C14.6618 14.8342 14.7543 14.778 14.823 14.6967L14.8393 14.678L14.8655 14.688C14.8718 14.6905 14.878 14.6917 14.8843 14.693C15.008 14.7017 15.153 14.6355 15.2393 14.5305L15.5405 14.1518C15.5492 14.1405 15.5542 14.1255 15.5542 14.1118L15.5492 13.5193Z" fill="url(#paint9_linear_746_716)"/>
<path d="M15.1093 13.1568C15.1093 13.1568 15.1093 13.1781 15.1093 13.1793L15.1068 13.2618C15.0393 13.2593 14.9605 13.2718 14.908 13.3068C14.8518 13.3406 14.8293 13.3956 14.8293 13.4756L14.8143 13.963L14.8055 14.208C14.8105 14.2518 14.7843 14.3043 14.7568 14.3305L14.6805 14.4255L14.3755 14.808L14.6543 14.4068L14.7255 14.3055C14.7518 14.2718 14.7618 14.2468 14.758 14.2068L14.7505 13.9618L14.7343 13.4718C14.7318 13.4331 14.7343 13.3781 14.7518 13.3318C14.768 13.2868 14.8368 13.1456 15.0755 13.1268C15.093 13.1281 15.1068 13.1381 15.1093 13.1568Z" fill="#EDA600"/>
<path d="M15.5517 13.4693V13.478L15.5505 13.5605C15.5055 13.5593 15.4517 13.5705 15.4092 13.593C15.3667 13.6155 15.3342 13.6505 15.3167 13.6955C15.3092 13.718 15.3042 13.7443 15.3017 13.7705L15.293 13.8618C15.2842 13.923 15.2767 13.9805 15.2555 14.0468L15.2542 14.0518L15.2505 14.0568L15.1767 14.1443L14.893 14.588L15.1292 14.113L15.1305 14.1105L15.1917 14.0218C15.2017 13.9718 15.2055 13.9118 15.208 13.8543V13.7668C15.2092 13.733 15.213 13.698 15.2217 13.6643C15.2417 13.5943 15.2917 13.5318 15.3517 13.4943C15.4005 13.4668 15.4492 13.4468 15.503 13.438C15.5067 13.4368 15.5117 13.4355 15.5167 13.4355H15.518C15.5355 13.4368 15.5492 13.4505 15.5517 13.4693Z" fill="#EDA600"/>
<path d="M13.6506 14.1167C13.6506 14.1167 14.1168 13.658 14.743 13.7068C14.743 13.7068 14.478 13.6943 14.5243 14.1542C14.5243 14.1542 14.3393 13.968 14.0806 14.453C14.0793 14.4542 13.9306 14.058 13.6506 14.1167Z" fill="url(#paint10_linear_746_716)"/>
<path d="M14.763 13.793C14.7255 13.7855 14.6755 13.7905 14.6443 13.8092C14.6118 13.828 14.5918 13.8642 14.5843 13.9117C14.5768 13.9605 14.5743 14.0205 14.5693 14.0742L14.563 14.1567C14.5593 14.1842 14.5618 14.2105 14.553 14.2467C14.543 14.2817 14.5193 14.308 14.503 14.3267L14.4505 14.3917L14.3443 14.5205L14.1331 14.7792L14.3193 14.5017L14.413 14.363L14.4593 14.293C14.4755 14.268 14.4893 14.2505 14.4918 14.2305C14.4955 14.213 14.4918 14.183 14.4918 14.1542L14.4905 14.0705C14.4905 14.013 14.4868 13.9605 14.4893 13.8992C14.4918 13.8367 14.5193 13.7617 14.5805 13.7167C14.643 13.673 14.7093 13.6618 14.7818 13.6667L14.763 13.793Z" fill="#EDA600"/>
<path d="M14.4943 14.2168C14.4655 14.2031 14.4205 14.1943 14.3868 14.2018C14.3505 14.2068 14.318 14.2293 14.2918 14.2606L14.1018 14.4955L14.0568 14.5518L14.0343 14.4843C13.9893 14.3468 13.8931 14.2106 13.7543 14.1493C13.6143 14.0856 13.4468 14.1106 13.3031 14.1718C13.4418 14.1006 13.6093 14.0581 13.7681 14.1143C13.8456 14.1418 13.9156 14.1906 13.9718 14.2506C14.0281 14.3118 14.0731 14.3805 14.1056 14.4605L14.0381 14.4493L14.2093 14.1993C14.2431 14.1518 14.2955 14.1068 14.3593 14.0918C14.423 14.0756 14.483 14.0793 14.5468 14.1031L14.4943 14.2168Z" fill="#EDA600"/>
<path d="M2.44995 13.473C2.44995 13.453 2.45995 13.433 2.47744 13.4218C2.49369 13.4105 2.51494 13.4068 2.53494 13.4143C2.54244 13.4168 2.70368 13.4743 2.77743 13.6305C2.78118 13.638 2.78368 13.6468 2.78368 13.6555L2.79493 13.9593C2.80993 13.9805 2.83243 14.0105 2.85742 14.0455L2.89992 13.6655L2.88992 13.153C2.88992 13.1355 2.89617 13.118 2.90992 13.1055C2.92242 13.093 2.94117 13.0868 2.95742 13.088C2.96117 13.088 3.00742 13.0918 3.06366 13.1105C3.06866 13.1105 3.07241 13.1105 3.07741 13.1105C3.08116 13.1105 3.08491 13.1118 3.08991 13.1118C3.09866 13.1118 3.10616 13.113 3.11491 13.1143C3.12491 13.1155 3.13366 13.1168 3.14241 13.1193C3.14991 13.1205 3.15616 13.123 3.16366 13.1243C3.17241 13.1268 3.17991 13.1293 3.18866 13.133C3.19491 13.1355 3.20116 13.138 3.20741 13.1418C3.21491 13.1455 3.22116 13.1493 3.22865 13.1543C3.2349 13.158 3.2399 13.1618 3.24615 13.1655C3.2524 13.1705 3.25865 13.1755 3.2649 13.1805C3.27115 13.1855 3.27615 13.1905 3.28115 13.1955C3.28615 13.2005 3.29115 13.2055 3.29615 13.2105C3.3024 13.2168 3.3074 13.223 3.3124 13.2293C3.31615 13.2343 3.3199 13.2393 3.32365 13.243C3.3299 13.2505 3.33615 13.2593 3.34115 13.2668C3.34365 13.2693 3.3449 13.273 3.3474 13.2755C3.42364 13.3868 3.48114 13.5205 3.59614 13.5643C3.61613 13.5718 3.63738 13.578 3.65988 13.583C3.86862 13.6268 4.14111 13.5455 4.2986 13.7268L4.29735 13.7293C4.30235 13.7343 4.3086 13.7393 4.3136 13.7455C4.3561 13.7968 4.52484 13.7005 4.52484 13.7005L4.83982 13.9218L4.87482 13.888L4.98481 13.7843L5.1298 13.8193L4.51609 14.4055L3.98362 14.7642C3.97112 14.7742 3.95487 14.7792 3.93862 14.7767L3.80612 14.763C3.72988 14.8042 3.64488 14.8255 3.55989 14.8255C3.51989 14.8255 3.47989 14.8205 3.44114 14.8117C3.3374 14.788 3.2449 14.7317 3.17616 14.6505L3.15991 14.6317L3.13366 14.6417C3.12741 14.6442 3.12116 14.6455 3.11491 14.6467C2.99242 14.6555 2.84618 14.5892 2.75993 14.4842L2.4587 14.1055C2.44995 14.0942 2.44495 14.0792 2.44495 14.0655L2.44995 13.473Z" fill="url(#paint11_linear_746_716)"/>
<path d="M2.44867 13.423V13.4318L2.44992 13.5143C2.49492 13.513 2.54866 13.5243 2.59116 13.5468C2.63366 13.5693 2.66616 13.6043 2.68366 13.6493C2.69116 13.6718 2.69616 13.698 2.69866 13.7243L2.70741 13.8155C2.71616 13.8768 2.72365 13.9343 2.7449 14.0005L2.74615 14.0055L2.7499 14.0105L2.82365 14.098L3.10738 14.5417L2.87115 14.0667L2.8699 14.0642L2.80865 13.9755C2.79865 13.9255 2.7949 13.8655 2.7924 13.808V13.7205C2.79115 13.6868 2.7874 13.6518 2.77865 13.618C2.75865 13.548 2.70866 13.4855 2.64741 13.448C2.59866 13.4205 2.54991 13.4005 2.49617 13.3918C2.49242 13.3905 2.48742 13.3893 2.48242 13.3893H2.48117C2.46367 13.3905 2.44992 13.4043 2.44867 13.423Z" fill="#EDA600"/>
<path d="M4.34861 14.0705C4.34861 14.0705 3.88238 13.6117 3.25616 13.6605C3.25616 13.6605 3.52115 13.648 3.4749 14.108C3.4749 14.108 3.65989 13.9217 3.91863 14.4067C3.91863 14.4079 4.06862 14.0117 4.34861 14.0705Z" fill="url(#paint12_linear_746_716)"/>
<path d="M3.23616 13.7455C3.27365 13.738 3.32365 13.743 3.3549 13.7618C3.3874 13.7805 3.4074 13.8168 3.4149 13.8643C3.4224 13.913 3.4249 13.973 3.4299 14.0267L3.43615 14.1092C3.4399 14.1367 3.4374 14.163 3.44615 14.1992C3.45614 14.2342 3.47989 14.2605 3.49614 14.2792L3.54864 14.3442L3.65488 14.473L3.86612 14.7317L3.67988 14.4542L3.58614 14.3155L3.53989 14.2455C3.52364 14.2205 3.50989 14.203 3.50739 14.183C3.50364 14.1655 3.50739 14.1355 3.50739 14.1067L3.50864 14.023C3.50864 13.9655 3.51239 13.913 3.50989 13.8518C3.50739 13.7893 3.47989 13.7143 3.41865 13.6693C3.35615 13.6255 3.2899 13.6143 3.21741 13.6193L3.23616 13.7455Z" fill="#EDA600"/>
<path d="M3.50364 14.1693C3.53239 14.1556 3.57738 14.1468 3.61113 14.1543C3.64738 14.1593 3.67988 14.1818 3.70613 14.2131L3.89612 14.4481L3.94111 14.5043L3.96361 14.4368C4.00861 14.2993 4.10486 14.1631 4.2436 14.1018C4.38359 14.0381 4.55108 14.0631 4.69482 14.1243C4.55608 14.0531 4.38859 14.0106 4.22985 14.0668C4.15235 14.0943 4.08236 14.1431 4.02611 14.2031C3.96986 14.2643 3.92486 14.3331 3.89112 14.4131L3.95861 14.4018L3.78737 14.1518C3.75362 14.1043 3.70113 14.0593 3.63738 14.0443C3.57363 14.0281 3.51364 14.0318 3.44989 14.0556L3.50364 14.1693Z" fill="#EDA600"/>
<path d="M2.88989 13.1156C2.88989 13.1156 2.88989 13.1368 2.88989 13.1381L2.89239 13.2206C2.95989 13.2181 3.03863 13.2306 3.09113 13.2656C3.14738 13.2993 3.16988 13.3543 3.16988 13.4343L3.18488 13.9218L3.19363 14.1668C3.18863 14.2105 3.21488 14.263 3.24237 14.2893L3.31862 14.3843L3.6236 14.7667L3.34487 14.3655L3.27362 14.2643C3.24737 14.2305 3.23737 14.2055 3.24112 14.1655L3.24862 13.9205L3.26487 13.4306C3.26737 13.3918 3.26487 13.3368 3.24737 13.2906C3.23112 13.2456 3.16238 13.1043 2.92364 13.0856C2.90614 13.0868 2.89239 13.0981 2.88989 13.1156Z" fill="#EDA600"/>
<path d="M11.107 6.00729C11.032 5.8698 11.1282 5.73106 11.292 5.55732C11.552 5.28358 11.8357 4.64737 11.572 4.0024C11.5732 3.99865 11.5207 3.88991 11.522 3.88616L11.4132 3.88116C11.3782 3.87616 10.1895 3.87366 8.99959 3.87366C7.80965 3.87366 6.62096 3.87616 6.58596 3.88116C6.58596 3.88116 6.42597 3.99865 6.42722 4.0024C6.16474 4.64862 6.44722 5.28358 6.70721 5.55732C6.87095 5.72981 6.96719 5.8698 6.8922 6.00729C6.8197 6.14104 6.60096 6.15979 6.60096 6.15979C6.60096 6.15979 6.65096 6.29603 6.77221 6.36978C6.8847 6.43727 7.02094 6.45352 7.11719 6.45602C7.11719 6.45602 7.48842 6.96974 8.45962 6.96974H8.99959H9.53956C10.5095 6.96974 10.882 6.45602 10.882 6.45602C10.977 6.45352 11.1145 6.43727 11.2257 6.36978C11.347 6.29603 11.397 6.15979 11.397 6.15979C11.397 6.15979 11.1795 6.14104 11.107 6.00729Z" fill="#543930"/>
<path d="M8.99835 6.96976V6.39979L10.7233 6.26355L10.8795 6.45604C10.8795 6.45604 10.5083 6.96976 9.53707 6.96976H8.99835Z" fill="url(#paint13_radial_746_716)"/>
<path d="M10.877 6.2073C10.6183 5.81482 11.192 5.66858 11.192 5.66858C11.092 5.79232 11.047 5.90107 11.1058 6.00731C11.1783 6.14105 11.3958 6.1598 11.3958 6.1598C11.3958 6.1598 11.1008 6.42354 10.877 6.2073Z" fill="url(#paint14_radial_746_716)"/>
<path d="M11.5732 4.0024C11.8294 4.62737 11.5595 5.27109 11.307 5.54232C11.272 5.57982 11.1257 5.72356 11.092 5.83981C11.092 5.83981 10.5158 5.0361 10.3433 4.56487C10.3083 4.46988 10.277 4.37113 10.2733 4.26989C10.2695 4.19364 10.282 4.10365 10.3258 4.03865C10.3795 3.95991 11.5432 3.93616 11.5432 3.93616C11.542 3.93741 11.5732 4.0024 11.5732 4.0024Z" fill="url(#paint15_radial_746_716)"/>
<path d="M6.42723 4.00243C6.171 4.6274 6.44098 5.27112 6.69347 5.54235C6.72847 5.57985 6.87471 5.72359 6.90846 5.83984C6.90846 5.83984 7.48468 5.03613 7.65717 4.5649C7.69217 4.46991 7.72342 4.37116 7.72717 4.26992C7.73092 4.19367 7.71842 4.10368 7.67467 4.03868C7.62092 3.95994 7.55842 3.97993 7.46718 3.97993C7.29344 3.97993 6.53223 3.93494 6.47348 3.93494C6.47473 3.93744 6.42723 4.00243 6.42723 4.00243Z" fill="url(#paint16_radial_746_716)"/>
<path d="M9.00209 6.96976V6.39979L7.27718 6.26355L7.11969 6.45604C7.11969 6.45604 7.49092 6.96976 8.46212 6.96976H9.00209Z" fill="url(#paint17_radial_746_716)"/>
<path d="M7.12343 6.2073C7.38216 5.81482 6.80844 5.66858 6.80844 5.66858C6.90844 5.79232 6.95344 5.90107 6.89469 6.00731C6.82219 6.14105 6.60345 6.1598 6.60345 6.1598C6.60345 6.1598 6.90094 6.42354 7.12343 6.2073Z" fill="url(#paint18_radial_746_716)"/>
<path d="M8.99957 6.58716H8.4021V7.21962C8.4021 7.50586 8.64459 7.7371 8.94457 7.7371H9.05332C9.3533 7.7371 9.59579 7.50586 9.59579 7.21962V6.58716H8.99957Z" fill="#E59600"/>
<path d="M10.642 4.24109H10.1995H7.79963H7.35716C7.00342 4.24109 6.71344 4.54982 6.71344 4.9273C6.71344 5.30478 7.00342 5.61352 7.35716 5.61352H7.79963H10.1995H10.642C10.9957 5.61352 11.2857 5.30478 11.2857 4.9273C11.2857 4.54982 10.9957 4.24109 10.642 4.24109Z" fill="#E59600"/>
<path d="M8.99957 1.87622C7.95338 1.87622 6.98468 2.99491 6.98468 4.60483C6.98468 6.20599 7.98213 6.9972 8.99957 6.9972C10.017 6.9972 11.0145 6.20599 11.0145 4.60483C11.0145 2.99366 10.0458 1.87622 8.99957 1.87622Z" fill="#FFCA28"/>
<path d="M8.44838 4.15115C8.39214 4.07615 8.26089 3.96741 8.00591 3.96741C7.75217 3.96741 7.62093 4.07615 7.56343 4.15115C7.53843 4.1849 7.54468 4.22239 7.56218 4.24614C7.57843 4.26739 7.62593 4.28739 7.67842 4.26989C7.73092 4.25239 7.83342 4.19865 8.00591 4.1974C8.1784 4.19865 8.28089 4.25114 8.33339 4.26989C8.38589 4.28739 8.43338 4.26739 8.44963 4.24614C8.46713 4.22239 8.47338 4.1849 8.44838 4.15115Z" fill="#6D4C41"/>
<path d="M10.4345 4.15115C10.3783 4.07615 10.247 3.96741 9.99205 3.96741C9.73707 3.96741 9.60707 4.07615 9.54958 4.15115C9.52458 4.1849 9.53083 4.22239 9.54833 4.24614C9.56457 4.26739 9.61207 4.28739 9.66457 4.26989C9.71707 4.25239 9.81956 4.19865 9.99205 4.1974C10.1645 4.19865 10.267 4.25114 10.3195 4.26989C10.372 4.28739 10.4195 4.26739 10.4358 4.24614C10.4533 4.22239 10.4595 4.1849 10.4345 4.15115Z" fill="#6D4C41"/>
<path d="M9.23207 5.30102C9.22582 5.29852 9.21957 5.29727 9.21332 5.29602H8.78835C8.7821 5.29727 8.77585 5.29852 8.7696 5.30102C8.73085 5.31602 8.7096 5.35602 8.72835 5.39852C8.7471 5.44101 8.83084 5.55976 9.00208 5.55976C9.17208 5.55976 9.25707 5.43976 9.27582 5.39852C9.29082 5.35602 9.26957 5.31602 9.23207 5.30102Z" fill="#E59600"/>
<path d="M9.49956 5.78601C9.31082 5.8985 8.69085 5.8985 8.50086 5.78601C8.39211 5.72101 8.28087 5.81976 8.32587 5.9185C8.36962 6.01599 8.70835 6.24098 9.00083 6.24098C9.29332 6.24098 9.62705 6.01599 9.67205 5.9185C9.71704 5.82101 9.6083 5.72226 9.49956 5.78601Z" fill="#795548"/>
<path d="M8.01963 4.83485C7.89589 4.83485 7.78464 4.80485 7.7084 4.75735C7.6759 4.73735 7.6559 4.7486 7.66215 4.78735C7.68465 4.93609 7.83589 5.05234 8.01963 5.05234C8.20337 5.05234 8.35461 4.93734 8.37711 4.78735C8.38336 4.7486 8.36336 4.7361 8.33087 4.75735C8.25337 4.80485 8.14338 4.83485 8.01963 4.83485Z" fill="#404040"/>
<path d="M9.97953 4.83485C9.85579 4.83485 9.74454 4.80485 9.6683 4.75735C9.6358 4.73735 9.6158 4.7486 9.62205 4.78735C9.64455 4.93609 9.79579 5.05234 9.97953 5.05234C10.1633 5.05234 10.3145 4.93734 10.337 4.78735C10.3433 4.7486 10.3233 4.7361 10.2908 4.75735C10.2133 4.80485 10.1033 4.83485 9.97953 4.83485Z" fill="#404040"/>
<path d="M11.4297 2.70247C11.2822 2.47998 10.9522 2.18 10.6559 2.16125C10.6084 1.87626 10.3035 1.63503 10.0085 1.54128C9.20977 1.28755 8.6898 1.57128 8.40981 1.72377C8.35106 1.75502 7.97733 1.96376 7.71485 1.81377C7.55111 1.72002 7.55361 1.46754 7.55361 1.46754C7.55361 1.46754 7.03863 1.66378 7.21487 2.21C7.03863 2.2175 6.80615 2.29124 6.68365 2.53998C6.53741 2.83496 6.58991 3.08245 6.63115 3.20119C6.47866 3.32994 6.28742 3.60492 6.41867 3.9624C6.51741 4.23114 6.91239 4.35488 6.91239 4.35488C6.88489 4.83861 6.97489 5.13609 7.02238 5.25609C7.03113 5.27733 7.06113 5.27483 7.06613 5.25359C7.12613 5.0136 7.32987 4.17864 7.30987 4.03365C7.30987 4.03365 7.99483 3.89741 8.64855 3.41743C8.78104 3.31994 8.92603 3.23619 9.07853 3.17495C9.89848 2.84871 10.071 3.40493 10.071 3.40493C10.071 3.40493 10.6397 3.29619 10.8109 4.0849C10.8747 4.38113 10.9197 4.85486 10.9559 5.18609C10.9584 5.20984 10.9909 5.21484 10.9997 5.19234C11.0572 5.0611 11.1722 4.79986 11.1997 4.53362C11.2097 4.43988 11.4621 4.31614 11.5696 3.91366C11.7146 3.37869 11.5371 2.86371 11.4297 2.70247Z" fill="#543930"/>
<path d="M11.197 4.53735C11.207 4.44361 11.4595 4.31986 11.567 3.91738C11.5782 3.87489 11.5882 3.83114 11.597 3.78739C11.6845 3.29867 11.527 2.84994 11.4282 2.70245C11.292 2.49621 10.9995 2.22622 10.722 2.16998C10.6983 2.16623 10.6745 2.16373 10.652 2.16248C10.652 2.16248 10.672 2.29247 10.6195 2.39621C10.552 2.52996 10.4133 2.56245 10.4133 2.56245C11.1382 3.28492 11.087 3.88988 11.197 4.53735Z" fill="url(#paint19_radial_746_716)"/>
<path d="M8.58467 1.63252C8.51842 1.66502 8.45967 1.69627 8.40968 1.72377C8.35093 1.75501 7.9772 1.96375 7.71471 1.81376C7.55347 1.72252 7.55347 1.47753 7.55347 1.46753C7.47973 1.56252 7.25474 2.23874 7.91095 2.28374C8.19469 2.30249 8.36843 2.05625 8.47217 1.84751C8.51092 1.77251 8.56967 1.66252 8.58467 1.63252Z" fill="url(#paint20_radial_746_716)"/>
<path d="M9.9258 1.51627C10.3683 1.63626 10.5833 1.86125 10.6545 2.16123C10.6758 2.24873 10.7008 3.07119 9.13085 2.13749C8.54713 1.79 8.70587 1.57252 8.77462 1.54752C9.04335 1.45127 9.43083 1.38253 9.9258 1.51627Z" fill="url(#paint21_radial_746_716)"/>
<path d="M7.55221 1.46878C7.55096 1.46878 7.54971 1.47003 7.54846 1.47003C7.49222 1.49378 7.05099 1.69752 7.21598 2.20999L7.68596 2.28624C7.26973 1.86501 7.55471 1.46753 7.55471 1.46753L7.55221 1.46878Z" fill="url(#paint22_radial_746_716)"/>
<path d="M7.50596 2.25743L7.21598 2.21118C7.20473 2.21118 7.16598 2.21493 7.14473 2.21743C6.98099 2.23993 6.7885 2.32493 6.68476 2.54116C6.57226 2.77365 6.57601 2.97489 6.60601 3.10738C6.61476 3.15238 6.63351 3.20238 6.63351 3.20238C6.63351 3.20238 6.77725 3.06614 7.11973 3.05739L7.50596 2.25743Z" fill="url(#paint23_radial_746_716)"/>
<path d="M6.61849 3.21364C6.47475 3.34114 6.28226 3.62362 6.42475 3.97485C6.53225 4.23984 6.91348 4.35483 6.91348 4.35483C6.91348 4.35608 6.98972 4.37858 7.02847 4.37858L7.11847 3.05615C6.93598 3.05615 6.75974 3.11115 6.64599 3.1899C6.64724 3.1924 6.61724 3.21114 6.61849 3.21364Z" fill="url(#paint24_radial_746_716)"/>
<defs>
<linearGradient id="paint0_linear_746_716" x1="12.2938" y1="8.94789" x2="12.2938" y2="14.5553" gradientUnits="userSpaceOnUse">
<stop stop-color="#FFB300"/>
<stop offset="0.5" stop-color="#FFCA28"/>
</linearGradient>
<linearGradient id="paint1_linear_746_716" x1="5.64831" y1="8.94789" x2="5.64831" y2="14.5553" gradientUnits="userSpaceOnUse">
<stop stop-color="#FFB300"/>
<stop offset="0.5" stop-color="#FFCA28"/>
</linearGradient>
<linearGradient id="paint2_linear_746_716" x1="8.99968" y1="7.00791" x2="8.99968" y2="13.0641" gradientUnits="userSpaceOnUse">
<stop stop-color="#F78C1F"/>
<stop offset="1" stop-color="#ED6D23"/>
</linearGradient>
<linearGradient id="paint3_linear_746_716" x1="7.45837" y1="16.1769" x2="7.45837" y2="13.1409" gradientUnits="userSpaceOnUse">
<stop stop-color="#FFB300"/>
<stop offset="0.3773" stop-color="#FFCA28"/>
</linearGradient>
<linearGradient id="paint4_linear_746_716" x1="4.30626" y1="14.4456" x2="4.93425" y2="15.2206" gradientUnits="userSpaceOnUse">
<stop stop-color="#FFB300"/>
<stop offset="0.5" stop-color="#FFCA28" stop-opacity="0"/>
</linearGradient>
<linearGradient id="paint5_linear_746_716" x1="5.48022" y1="14.9703" x2="15.0001" y2="14.9703" gradientUnits="userSpaceOnUse">
<stop offset="0.7779" stop-color="#FFCA28"/>
<stop offset="1" stop-color="#FFB300"/>
</linearGradient>
<linearGradient id="paint6_linear_746_716" x1="7.06296" y1="14.8758" x2="6.68153" y2="15.5915" gradientUnits="userSpaceOnUse">
<stop stop-color="#FFB300"/>
<stop offset="0.5" stop-color="#FFCA28" stop-opacity="0"/>
</linearGradient>
<linearGradient id="paint7_linear_746_716" x1="14.8026" y1="15.8733" x2="5.99383" y2="13.9984" gradientUnits="userSpaceOnUse">
<stop stop-color="#FFB300"/>
<stop offset="0.3379" stop-color="#FFCA28"/>
</linearGradient>
<linearGradient id="paint8_linear_746_716" x1="10.9771" y1="14.4974" x2="10.7477" y2="12.991" gradientUnits="userSpaceOnUse">
<stop offset="0.078" stop-color="#FFB300"/>
<stop offset="0.6927" stop-color="#FFCA28"/>
</linearGradient>
<linearGradient id="paint9_linear_746_716" x1="15.1667" y1="14.4059" x2="13.8813" y2="13.5214" gradientUnits="userSpaceOnUse">
<stop stop-color="#FFB300"/>
<stop offset="0.5" stop-color="#FFCA28"/>
</linearGradient>
<linearGradient id="paint10_linear_746_716" x1="14.3674" y1="14.1873" x2="14.164" y2="13.8601" gradientUnits="userSpaceOnUse">
<stop stop-color="#FFB300"/>
<stop offset="1" stop-color="#FFCA28" stop-opacity="0"/>
</linearGradient>
<linearGradient id="paint11_linear_746_716" x1="2.74789" y1="14.2059" x2="4.58753" y2="13.4865" gradientUnits="userSpaceOnUse">
<stop stop-color="#FFB300"/>
<stop offset="0.5" stop-color="#FFCA28"/>
</linearGradient>
<linearGradient id="paint12_linear_746_716" x1="3.61178" y1="14.1022" x2="3.89037" y2="13.7573" gradientUnits="userSpaceOnUse">
<stop stop-color="#FFB300"/>
<stop offset="1" stop-color="#FFCA28" stop-opacity="0"/>
</linearGradient>
<radialGradient id="paint13_radial_746_716" cx="0" cy="0" r="1" gradientUnits="userSpaceOnUse" gradientTransform="translate(9.88004 6.14628) scale(1.41391 0.694514)">
<stop offset="0.7275" stop-color="#6D4C41" stop-opacity="0"/>
<stop offset="1" stop-color="#6D4C41"/>
</radialGradient>
<radialGradient id="paint14_radial_746_716" cx="0" cy="0" r="1" gradientUnits="userSpaceOnUse" gradientTransform="translate(11.2732 5.93577) rotate(154.924) scale(0.417819 0.309963)">
<stop offset="0.6628" stop-color="#6D4C41"/>
<stop offset="1" stop-color="#6D4C41" stop-opacity="0"/>
</radialGradient>
<radialGradient id="paint15_radial_746_716" cx="0" cy="0" r="1" gradientUnits="userSpaceOnUse" gradientTransform="translate(10.19 4.75419) rotate(-94.2783) scale(1.83532 1.52962)">
<stop offset="0.7247" stop-color="#6D4C41" stop-opacity="0"/>
<stop offset="1" stop-color="#6D4C41"/>
</radialGradient>
<radialGradient id="paint16_radial_746_716" cx="0" cy="0" r="1" gradientUnits="userSpaceOnUse" gradientTransform="translate(7.81064 4.75415) rotate(-85.7217) scale(1.83532 1.52962)">
<stop offset="0.7247" stop-color="#6D4C41" stop-opacity="0"/>
<stop offset="1" stop-color="#6D4C41"/>
</radialGradient>
<radialGradient id="paint17_radial_746_716" cx="0" cy="0" r="1" gradientUnits="userSpaceOnUse" gradientTransform="translate(8.12049 6.14628) rotate(180) scale(1.41391 0.694514)">
<stop offset="0.7275" stop-color="#6D4C41" stop-opacity="0"/>
<stop offset="1" stop-color="#6D4C41"/>
</radialGradient>
<radialGradient id="paint18_radial_746_716" cx="0" cy="0" r="1" gradientUnits="userSpaceOnUse" gradientTransform="translate(6.72768 5.93587) rotate(25.0761) scale(0.417819 0.309962)">
<stop offset="0.6628" stop-color="#6D4C41"/>
<stop offset="1" stop-color="#6D4C41" stop-opacity="0"/>
</radialGradient>
<radialGradient id="paint19_radial_746_716" cx="0" cy="0" r="1" gradientUnits="userSpaceOnUse" gradientTransform="translate(10.0984 3.78563) rotate(72.0851) scale(2.15128 1.5962)">
<stop offset="0.6985" stop-color="#6D4C41" stop-opacity="0"/>
<stop offset="1" stop-color="#6D4C41"/>
</radialGradient>
<radialGradient id="paint20_radial_746_716" cx="0" cy="0" r="1" gradientUnits="userSpaceOnUse" gradientTransform="translate(8.00128 1.44026) rotate(28.2026) scale(0.564069 0.668821)">
<stop offset="0.58" stop-color="#6D4C41"/>
<stop offset="1" stop-color="#6D4C41" stop-opacity="0"/>
</radialGradient>
<radialGradient id="paint21_radial_746_716" cx="0" cy="0" r="1" gradientUnits="userSpaceOnUse" gradientTransform="translate(9.26205 2.46425) rotate(-157.19) scale(1.76412 0.991444)">
<stop offset="0.6985" stop-color="#6D4C41" stop-opacity="0"/>
<stop offset="1" stop-color="#6D4C41"/>
</radialGradient>
<radialGradient id="paint22_radial_746_716" cx="0" cy="0" r="1" gradientUnits="userSpaceOnUse" gradientTransform="translate(7.7747 1.95473) scale(0.517748 0.633361)">
<stop offset="0.7016" stop-color="#6D4C41" stop-opacity="0"/>
<stop offset="1" stop-color="#6D4C41"/>
</radialGradient>
<radialGradient id="paint23_radial_746_716" cx="0" cy="0" r="1" gradientUnits="userSpaceOnUse" gradientTransform="translate(7.70322 2.86872) rotate(-164.942) scale(0.971059 0.908735)">
<stop offset="0.6605" stop-color="#6D4C41" stop-opacity="0"/>
<stop offset="1" stop-color="#6D4C41"/>
</radialGradient>
<radialGradient id="paint24_radial_746_716" cx="0" cy="0" r="1" gradientUnits="userSpaceOnUse" gradientTransform="translate(7.47341 3.80611) rotate(7.83355) scale(1.01949 1.43255)">
<stop offset="0.5981" stop-color="#6D4C41" stop-opacity="0"/>
<stop offset="1" stop-color="#6D4C41"/>
</radialGradient>
</defs>
</svg>
