<svg width="18" height="18" viewBox="0 0 18 18" fill="none" xmlns="http://www.w3.org/2000/svg">
<path d="M15.5769 16.5316H2.41505C1.89633 16.5316 1.4751 16.1103 1.4751 15.5916V2.42982C1.4751 1.9111 1.89633 1.48987 2.41505 1.48987H15.5769C16.0956 1.48987 16.5168 1.9111 16.5168 2.42982V15.5916C16.5181 16.1103 16.0968 16.5316 15.5769 16.5316Z" fill="url(#paint0_radial_715_339)"/>
<path d="M16.5181 10.5056V15.6241C16.5181 16.1428 16.0968 16.564 15.5781 16.564H2.41505C1.89633 16.564 1.4751 16.1428 1.4751 15.6241V10.4556C1.4751 10.4556 6.2361 10.3306 9.48717 10.2806C12.737 10.2306 16.5181 10.5056 16.5181 10.5056Z" fill="#B4D218"/>
<path d="M14.262 16.5604H2.41512C1.93764 16.5604 1.54391 16.2042 1.48267 15.7442C1.48267 15.7442 2.12513 15.4229 2.7526 15.2467C3.37882 15.0705 5.16122 14.6005 5.10247 13.778C5.04373 12.9556 3.37132 13.0031 3.47756 12.0944C3.52506 11.6856 4.23627 11.2332 5.04623 10.9607C6.09617 10.6069 7.32236 10.4945 7.33361 10.5132C7.34611 10.5357 6.93113 11.1107 7.10737 11.7569C7.28361 12.4031 8.09232 12.8118 9.59974 13.1443C11.1072 13.4768 12.6033 13.798 13.4845 14.9142C14.342 16.0004 14.262 16.5604 14.262 16.5604Z" fill="#00C1ED"/>
<path d="M1.96631 16.4465C2.10005 16.519 2.25254 16.5603 2.41503 16.5603H13.4445C13.4445 16.5603 13.3082 15.7641 12.0345 14.7566C11.1921 14.0904 10.3609 13.9104 9.43966 13.6954C7.93724 13.3442 6.8998 13.1267 6.56607 12.0505C6.36858 11.4106 6.64856 11.0568 6.60981 10.9981C6.57106 10.9393 4.13744 11.4581 4.11619 12.0918C4.09495 12.7505 5.71861 12.6242 5.71236 13.7692C5.70611 14.8466 4.21619 15.3691 3.67247 15.5591C2.49753 15.9716 1.96631 16.4465 1.96631 16.4465Z" fill="url(#paint1_radial_715_339)"/>
<path d="M1.4751 10.4232L7.63227 10.4282L6.97731 9.43447C6.97731 9.43447 6.67357 9.32948 6.18235 8.77951C5.69112 8.22954 4.39369 6.26714 4.04371 5.70592C3.69373 5.1447 3.16751 4.53723 2.67628 4.56098C2.18506 4.58473 1.4751 4.87596 1.4751 4.87596V10.4232Z" fill="#79A5AB"/>
<path d="M9.00962 6.34339L7.38721 9.84196L7.63094 10.3394L9.92957 10.1619L11.3832 5.40594L10.2671 5.10596L9.00962 6.34339Z" fill="#86B4BB"/>
<path d="M1.47388 4.29096C1.47388 4.29096 1.76761 4.21221 2.08634 4.22971C2.53007 4.25346 3.03129 4.64344 3.03129 4.64344C3.03129 4.64344 2.45508 4.63844 2.09759 4.96592C1.79636 5.24216 1.47513 5.71213 1.47513 5.71213L1.47388 4.29096Z" fill="#E0E0E0"/>
<path d="M10.3132 7.10331L9.92825 8.23825L9.74951 9.59818L13.9993 9.96441C13.9993 9.96441 15.8092 5.82837 15.8004 5.79963C15.7904 5.77088 13.8405 2.95728 13.8405 2.95728L12.3394 3.48725L11.1107 5.05342L10.3132 7.10331Z" fill="#3E727B"/>
<path d="M16.5168 3.57222C16.5168 3.57222 15.8656 2.99475 15.4907 2.86351C15.1157 2.73226 13.662 2.66602 13.662 2.66602L12.3871 3.12724L11.2896 4.40342L10.6322 5.8746L10.2947 7.14078C10.2947 7.14078 10.5134 7.39327 10.6184 6.92704C10.7009 6.56456 10.8097 6.09959 11.2696 5.08714C11.7296 4.07469 12.6783 3.15099 13.4645 3.24848C14.0795 3.32473 14.3695 4.22218 14.5095 4.86965C14.6507 5.51712 14.7207 6.78455 14.7207 6.78455L13.8107 7.27202L13.267 8.82944C13.267 8.82944 13.2383 9.04568 13.192 9.35441C13.1445 9.6644 13.1445 10.0019 13.1445 10.0019L15.6681 10.0869L16.5168 9.47816V3.57222Z" fill="#79A5AB"/>
<path d="M7.39722 9.52822L7.79095 9.58447C7.79095 9.58447 8.10093 8.80576 8.24092 8.44953C8.38216 8.0933 8.49466 7.81206 8.59715 7.69957C8.7009 7.58708 8.98213 7.55833 9.05713 7.43708C9.13213 7.31459 9.41336 6.40589 9.6196 6.06716C9.82584 5.72967 10.0796 5.42969 10.2946 5.34469C10.5108 5.2597 10.6795 5.31594 10.6795 5.31594C10.6795 5.31594 10.4171 6.03841 10.2858 6.61088C10.1546 7.18335 9.92958 8.23829 9.92958 8.23829C9.92958 8.23829 10.1546 8.1308 10.2483 7.99955C10.3421 7.86831 10.3646 7.66707 10.3908 7.48458C10.5171 6.59963 10.6758 6.1559 10.7858 5.78467C10.9308 5.29595 11.2858 4.57848 11.4558 4.30225C11.8407 3.67728 12.117 3.44354 12.4544 3.20981C12.7919 2.97482 13.3969 2.72233 14.0919 2.75983C14.7856 2.79733 15.848 3.05731 15.848 3.05731C15.848 3.05731 15.0718 2.45485 14.0119 2.46484C12.9519 2.47484 12.2457 2.89857 11.6832 3.54604C11.1208 4.1935 10.8108 5.08471 10.8108 5.08471C10.8108 5.08471 10.4821 4.86847 10.0696 4.96221C9.6571 5.05596 9.27212 5.20595 8.85964 5.90966C8.44716 6.61338 7.93094 8.1233 7.93094 8.1233L7.39722 9.52822Z" fill="#E0E0DF"/>
<path d="M14.9569 7.38081C14.9569 7.38081 14.3757 7.23082 14.0657 7.45581C13.8445 7.61705 13.6633 7.94703 13.4745 8.572C13.3033 9.13822 13.217 9.20946 13.212 9.19322C13.1895 9.12572 13.2858 8.12702 13.3995 7.67205C13.4845 7.33456 13.717 6.80459 14.2345 6.6871C14.8157 6.5546 14.9382 7.05208 14.9569 7.38081Z" fill="#E0E0DF"/>
<path d="M2.77623 6.16959C2.76373 6.16959 2.82873 6.31958 2.86498 6.51582C2.90997 6.75706 2.95622 7.31078 2.97122 8.19073C2.98622 9.07068 3.02997 10.0156 3.02997 10.0156L3.66993 9.82689C3.66993 9.82689 3.64869 8.49571 3.57494 7.80575C3.50119 7.11579 3.39745 6.76205 3.21121 6.46207C3.12246 6.31958 2.89123 6.16709 2.77623 6.16959Z" fill="#ACE4FE"/>
<path d="M2.94995 10.0457C2.94995 10.0457 3.08869 9.84196 3.26243 9.80571C3.43743 9.76946 3.50242 9.79071 3.50242 9.79071C3.50242 9.79071 3.60367 9.49948 3.9899 9.50698C4.37488 9.51448 4.50612 10.0519 4.50612 10.0519L2.95745 10.2557L2.94995 10.0457Z" fill="#FCFDFE"/>
<path d="M3.35756 7.55835C3.28507 7.5746 3.32882 7.81209 3.34256 8.21957C3.35756 8.65579 3.32757 8.93203 3.46631 8.93203C3.59755 8.93203 3.5388 8.67079 3.52506 8.19082C3.51131 7.76959 3.48756 7.5296 3.35756 7.55835Z" fill="#FCFDFE"/>
<path d="M3.09738 7.3271C3.21363 7.3121 3.21238 7.54459 3.22113 7.93082C3.22862 8.2658 3.24237 8.46829 3.16238 8.47579C3.05363 8.48579 3.06863 8.38205 3.04613 7.85082C3.03114 7.50959 3.01239 7.33835 3.09738 7.3271Z" fill="#FCFDFE"/>
<path d="M12.7144 4.33218C12.5557 4.31968 12.5157 4.49092 12.5094 4.96214C12.5019 5.47837 12.4619 5.91834 12.4619 5.91834C12.4619 5.91834 12.077 6.47081 11.9557 6.82704C11.8332 7.18328 11.7207 7.53076 11.6557 7.86824C11.607 8.11823 11.5407 8.45696 11.6932 8.51571C11.8907 8.5907 12.087 7.6995 12.2657 7.14578C12.4557 6.55456 12.8657 6.04834 12.8657 6.04834C12.8657 6.04834 12.8769 5.48462 12.8657 5.02464C12.8607 4.8659 12.8807 4.34468 12.7144 4.33218Z" fill="#79A5AB"/>
<path d="M3.15504 10.5257C3.15504 10.5257 6.25738 10.4444 8.15103 10.4607C10.0447 10.4769 12.0533 10.4769 12.0533 10.4769C12.0533 10.4769 10.9759 8.32203 10.8934 8.33828C10.8121 8.35453 10.1747 9.46447 10.1747 9.46447C10.1747 9.46447 9.48096 8.25953 9.41596 8.22703C9.35097 8.19453 8.62226 9.8607 8.62226 9.8607L8.30602 9.37072L7.93354 9.96444L7.44857 8.91075L6.58361 10.1194C6.58361 10.1194 6.41237 10.0657 6.19988 10.0557C5.8799 10.0407 5.50617 10.2169 5.50617 10.2169C5.50617 10.2169 4.81996 9.98819 4.34623 9.98819C3.87251 9.98819 2.51758 10.3632 2.51758 10.3632L3.15504 10.5257Z" fill="#0A7E1D"/>
<path d="M7.93213 9.96817L8.05962 10.2144L8.4121 9.53569C8.4121 9.53569 8.30586 9.33945 8.28211 9.3407C8.23211 9.34445 7.93213 9.96817 7.93213 9.96817Z" fill="#02AB47"/>
<path d="M7.31099 8.68954C7.38348 8.70703 7.50848 9.04202 7.50848 9.04202L7.0135 10.2495L6.58228 10.1232C6.58353 10.1232 7.23099 8.66954 7.31099 8.68954Z" fill="#02AB47"/>
<path d="M9.42078 8.2145C9.28454 8.22075 8.62207 9.85691 8.62207 9.85691C8.62207 9.85691 8.79706 10.1119 8.81206 10.1144C8.90706 10.1281 9.55577 8.42324 9.55577 8.42324C9.55577 8.42324 9.45453 8.212 9.42078 8.2145Z" fill="#02AB47"/>
<path d="M11.3294 10.8443C11.3294 10.8443 11.2719 10.9931 11.3644 11.0168C11.4569 11.0406 12.1456 11.1431 13.2581 11.0968C14.3718 11.0506 16.5167 11.0056 16.5167 11.0056L16.5179 9.47815C16.5179 9.47815 15.5992 7.35451 15.4842 7.37701C15.3692 7.39951 14.573 9.26941 14.573 9.26941C14.573 9.26941 14.2505 8.67944 14.1943 8.65694C14.1368 8.63444 13.2343 9.75438 13.2343 9.75438C13.2343 9.75438 12.6494 8.08947 12.5569 8.07822C12.4656 8.06697 11.3294 10.8443 11.3294 10.8443Z" fill="#0A7E1D"/>
<path d="M14.0156 8.46949C14.0768 8.43825 14.2793 8.76823 14.2793 8.76823C14.2793 8.76823 13.5106 10.0994 13.4531 10.1232C13.3956 10.1457 13.2344 9.75568 13.2344 9.75568C13.2344 9.75568 13.8768 8.53824 14.0156 8.46949Z" fill="#02AB47"/>
<path d="M12.4258 7.78076C12.3234 7.78076 11.5696 9.54817 11.4659 9.80066C11.3622 10.0531 11.0097 10.8718 11.0559 10.9406C11.1022 11.0093 11.5309 11.0431 11.5309 11.0431C11.5309 11.0431 12.0171 9.62816 12.2234 9.16819C12.4296 8.70946 12.6621 8.25449 12.6621 8.25449C12.6621 8.25449 12.5321 7.78076 12.4258 7.78076Z" fill="#02AB47"/>
<path d="M15.6743 10.6106C15.6743 10.6106 13.3694 11.2931 13.2806 11.3943C13.1906 11.4955 13.1794 11.6855 13.3931 11.7743C13.6069 11.863 13.7156 11.7993 13.9194 11.9305C14.0006 11.983 13.8131 12.533 13.8131 12.533C13.8131 12.533 12.8444 12.8492 12.8282 12.9892C12.8082 13.1642 12.9344 13.3292 13.1581 13.4404C13.3581 13.5404 13.6469 13.5554 13.6469 13.5554C13.6469 13.5554 12.5207 14.4104 12.5757 14.6229C12.6319 14.8354 12.8732 15.1891 13.4144 15.1754C13.9069 15.1629 13.9844 14.9854 14.2531 15.1866C14.5218 15.3878 14.5118 15.8503 15.238 15.8016C15.7418 15.7678 15.8655 15.4491 16.1217 15.3203C16.328 15.2179 16.5205 15.2041 16.5205 15.2041L16.5167 11.0043L15.6743 10.6106Z" fill="#0A7E1D"/>
<path d="M14.1306 14.5817C14.5193 14.5817 14.4443 15.1417 14.9243 15.2304C15.4055 15.3204 16.0542 14.3467 15.708 13.843C15.3618 13.3393 14.9243 13.9442 14.4668 13.8317C14.0081 13.7192 14.0081 13.5068 13.6619 13.518C13.3156 13.5293 12.5957 14.198 12.5769 14.5692C12.5657 14.7929 12.9232 14.9017 13.2706 14.8492C13.6156 14.7979 13.9518 14.5817 14.1306 14.5817Z" fill="#02AB47"/>
<path d="M14.6681 12.3005C15.0481 12.3105 15.3955 11.9543 15.8655 11.998C16.3355 12.043 16.358 12.568 16.3017 12.7817C16.2455 12.9942 16.1118 13.3629 15.7643 13.3629C15.418 13.3629 15.4068 13.1617 15.1943 13.1842C14.9818 13.2067 14.8368 13.4192 14.5681 13.3854C14.2994 13.3517 14.1769 13.0942 13.9756 13.0605C13.7744 13.0267 13.4494 13.2167 13.1919 13.2054C12.9344 13.1942 12.8257 12.9792 12.8257 12.9792C12.8257 12.9792 12.8782 12.7917 13.0569 12.6917C13.2357 12.5917 13.3819 12.5242 13.6169 12.3005C13.8519 12.0768 13.9181 11.9318 13.9181 11.9318C13.9181 11.9318 14.2544 12.2892 14.6681 12.3005Z" fill="#02AB47"/>
<path d="M15.4168 8.82079C15.1593 8.83579 15.0255 9.48075 14.5106 10.107C13.9956 10.7332 13.2756 11.3994 13.2756 11.3994C13.2756 11.3994 13.3356 11.5519 13.5156 11.5506C13.7731 11.5481 13.9743 11.3157 14.1756 11.3944C14.3768 11.4731 14.3431 11.8194 14.6568 11.8419C14.9705 11.8644 15.3955 11.4506 15.6743 11.4394C15.9542 11.4281 15.9542 11.7194 16.223 11.7081C16.4917 11.6969 16.518 11.5731 16.518 11.5731V10.7207C16.518 10.7207 16.1005 10.1745 15.9317 9.69324C15.7643 9.21202 15.608 8.80954 15.4168 8.82079Z" fill="#02AB47"/>
<path d="M1.47632 15.0979C1.47632 15.0979 1.97879 15.1691 2.36127 14.9041C2.91249 14.5217 2.94374 14.1117 2.94374 14.1117C2.94374 14.1117 3.08998 14.3167 3.65995 14.3279C4.22992 14.3392 4.47491 13.8542 4.46241 13.788C4.45616 13.7555 3.89494 13.0717 3.89494 13.0717L3.23748 11.7481L3.31372 11.4268L2.35127 10.1406L1.97129 7.90327C1.97129 7.90327 1.87005 7.69078 1.8038 7.74703C1.73755 7.80327 1.47882 8.307 1.47882 8.307L1.47632 15.0979Z" fill="#0A7E1D"/>
<path d="M2.43996 11.9305C2.21747 11.9081 2.00373 11.5943 1.95873 10.8119C1.91373 10.0281 2.00373 8.75322 1.94748 8.40698C1.89124 8.06075 1.80249 7.74702 1.80249 7.74702C1.80249 7.74702 1.84749 7.63452 1.93623 7.75827C2.02498 7.88201 2.4962 8.69822 2.71994 9.25694C2.94368 9.81691 3.69989 11.1606 3.81613 11.3606C4.01862 11.7081 4.17486 12.0018 3.90613 12.013C3.63739 12.0243 3.26741 11.7856 3.26741 11.7856C3.26741 11.7856 3.71489 12.7143 3.84863 12.9042C3.98238 13.0942 4.36361 13.6542 4.36361 13.6542C4.36361 13.6542 4.29611 13.8779 3.93863 13.7767C3.58115 13.6755 3.16242 12.7543 3.06617 12.5068C2.97243 12.2655 2.95993 12.0505 2.97243 11.948C2.99493 11.7581 3.15617 11.7181 3.15617 11.7181C3.15617 11.7181 2.97743 11.5281 2.88743 11.3818C2.79744 11.2368 2.69744 11.0356 2.69744 11.0356C2.69744 11.0356 2.77619 11.9643 2.43996 11.9305Z" fill="#00AA48"/>
<path d="M11.7857 4.83841C11.6445 4.85591 11.5995 5.08089 11.5882 5.36338C11.577 5.64461 11.5782 5.8421 11.5782 5.8421C11.5782 5.8421 11.3807 6.26458 11.3345 6.45207C11.2882 6.63956 11.4382 6.72456 11.5695 6.56457C11.7007 6.40457 11.982 5.8796 11.982 5.8796C11.982 5.8796 11.992 5.50462 11.992 5.35463C11.992 5.20464 12.0207 4.81091 11.7857 4.83841Z" fill="#79A5AB"/>
<path d="M6.3048 4.72846C6.3623 5.06719 6.84477 5.02344 7.53848 5.03594C8.31219 5.05094 8.91341 5.11344 8.96216 4.70096C9.01091 4.28723 8.00096 4.32973 7.59598 4.33473C7.18975 4.34098 6.23605 4.32098 6.3048 4.72846Z" fill="#FFFFFE"/>
<path d="M3.54254 3.01351C3.55128 3.45474 4.25375 3.56223 5.41494 3.57223C6.57612 3.58098 7.30484 3.48224 7.28734 3.04976C7.26984 2.61728 5.94616 2.53729 5.26244 2.50979C4.57873 2.48229 3.53379 2.56353 3.54254 3.01351Z" fill="#FFFFFE"/>
<defs>
<radialGradient id="paint0_radial_715_339" cx="0" cy="0" r="1" gradientUnits="userSpaceOnUse" gradientTransform="translate(7.04702 11.8474) scale(10.1249 10.1249)">
<stop offset="0.2828" stop-color="#AFE4FE"/>
<stop offset="0.7021" stop-color="#84D4F9"/>
<stop offset="0.9653" stop-color="#67C9F6"/>
</radialGradient>
<radialGradient id="paint1_radial_715_339" cx="0" cy="0" r="1" gradientUnits="userSpaceOnUse" gradientTransform="translate(7.90926 9.34104) scale(14.2868 14.2868)">
<stop offset="0.3072" stop-color="#8CDBFC"/>
<stop offset="0.4122" stop-color="#54D1F5"/>
<stop offset="0.5139" stop-color="#23C7EE"/>
<stop offset="0.5642" stop-color="#10C4EC"/>
</radialGradient>
</defs>
</svg>
