<svg width="18" height="18" viewBox="0 0 18 18" fill="none" xmlns="http://www.w3.org/2000/svg">
<path d="M5.00237 10.8732L1.7338 5.26721L1.95253 5.14722L5.11237 10.7757L5.00237 10.8732Z" fill="url(#paint0_linear_715_99)"/>
<path d="M6.69104 11.6506L6.74354 11.5156L12.722 10.6382L12.757 10.8857L6.69104 11.6506Z" fill="url(#paint1_linear_715_99)"/>
<path d="M5.65984 10.5244L5.53485 10.5219L5.73734 2.75854L5.86233 2.76104L5.65984 10.5244Z" fill="url(#paint2_linear_715_99)"/>
<path d="M6.88226 11.1569L6.82352 11.0457L15.0743 6.76465L15.1318 6.87589L6.88226 11.1569Z" fill="url(#paint3_linear_715_99)"/>
<path d="M3.09779 5.00723L2.98148 5.05298L5.22722 10.7631L5.34354 10.7173L3.09779 5.00723Z" fill="#B0BEC5"/>
<path d="M4.67383 5.75242L4.55051 5.77283L5.34859 10.5946L5.47191 10.5742L4.67383 5.75242Z" fill="#B0BEC5"/>
<path d="M11.3923 9.69149L6.78625 11.1608L6.82424 11.2798L11.4303 9.81057L11.3923 9.69149Z" fill="#B0BEC5"/>
<path d="M12.6473 10.0711L6.74551 11.3009L6.77101 11.4233L12.6728 10.1935L12.6473 10.0711Z" fill="#B0BEC5"/>
<path d="M6.64103 11.6082C6.59478 11.9369 6.51353 12.2556 6.42229 12.5706C6.32729 12.8856 6.2248 13.1968 6.08356 13.4981C6.12855 13.1693 6.21105 12.8506 6.3023 12.5356C6.39729 12.2206 6.50104 11.9094 6.64103 11.6082Z" fill="#78909C"/>
<path d="M5.00361 10.8357C4.95236 11.1069 4.86487 11.3657 4.76862 11.6207C4.66863 11.8744 4.56113 12.1244 4.41739 12.3606C4.46864 12.0894 4.55613 11.8306 4.65238 11.5757C4.75112 11.3219 4.85987 11.0719 5.00361 10.8357Z" fill="#78909C"/>
<path d="M6.20981 13.2456L6.21856 13.2568C6.26856 13.3143 6.26106 13.4031 6.20356 13.4531L6.19231 13.4618C6.13481 13.5118 6.04607 13.5043 5.99607 13.4468L5.98732 13.4356C5.93732 13.3781 5.94482 13.2893 6.00232 13.2393L6.01357 13.2306C6.07232 13.1806 6.15981 13.1868 6.20981 13.2456Z" fill="#504F4F"/>
<path d="M4.64365 12.0031L4.6524 12.0144C4.7024 12.0719 4.6949 12.1606 4.6374 12.2106L4.62615 12.2194C4.56865 12.2694 4.47991 12.2619 4.42991 12.2044L4.42116 12.1931C4.37116 12.1356 4.37866 12.0469 4.43616 11.9969L4.44741 11.9881C4.50491 11.9381 4.59365 11.9444 4.64365 12.0031Z" fill="#504F4F"/>
<path d="M5.57858 14.2617C5.58108 14.2567 5.58233 14.2529 5.58233 14.2529C5.58233 14.2529 5.57858 14.2629 5.57858 14.2617Z" fill="url(#paint4_linear_715_99)"/>
<path d="M5.58233 14.2529C5.58233 14.2529 5.58108 14.2567 5.57858 14.2617C5.57983 14.2617 5.58233 14.2529 5.58233 14.2529Z" fill="#EDA600"/>
<path d="M5.4736 12.7968C5.68553 12.7968 5.85733 12.625 5.85733 12.413C5.85733 12.2011 5.68553 12.0293 5.4736 12.0293C5.26168 12.0293 5.08987 12.2011 5.08987 12.413C5.08987 12.625 5.26168 12.7968 5.4736 12.7968Z" fill="url(#paint5_linear_715_99)"/>
<g opacity="0.22">
<path opacity="0.22" d="M5.4736 12.0918C5.55859 12.0918 5.63859 12.1243 5.69859 12.1843C5.82483 12.308 5.82608 12.5118 5.70109 12.638C5.63984 12.6993 5.55984 12.733 5.47235 12.733C5.38735 12.733 5.30736 12.7005 5.24736 12.6405C5.12112 12.5168 5.11987 12.313 5.24486 12.1868C5.30611 12.1268 5.38735 12.0918 5.4736 12.0918ZM5.4736 12.0293C5.37485 12.0293 5.27611 12.0668 5.20111 12.143C5.05237 12.2943 5.05362 12.5368 5.20486 12.6855C5.27986 12.7593 5.37735 12.7968 5.47485 12.7968C5.57359 12.7968 5.67234 12.7593 5.74733 12.683C5.89607 12.5318 5.89483 12.2893 5.74358 12.1405C5.66859 12.0668 5.57109 12.0293 5.4736 12.0293Z" fill="#212121"/>
</g>
<path d="M6.01855 13.3093C5.91856 13.3118 5.71107 13.3855 5.71107 13.3855C5.71107 13.3855 5.68982 13.3168 5.68232 13.1968C5.66982 13.0043 5.65357 12.833 5.53108 12.718C5.46858 12.6593 5.29109 12.5656 5.1411 12.5256C5.1261 12.5218 5.11235 12.5193 5.09735 12.5168C4.88861 12.4381 4.45114 12.5056 4.45114 12.5056L4.58488 12.2156C4.56363 12.1468 4.45114 12.0906 4.40364 12.1431C4.35489 12.1968 4.28239 12.3556 4.20865 12.5218C4.13865 12.6818 4.21615 12.7718 4.30864 12.8068C4.40114 12.843 4.56238 12.843 4.56238 12.843C4.45864 12.9993 4.33364 13.2718 4.33114 13.2768C4.33114 13.2768 4.27115 13.3893 4.26615 13.3993C4.26365 13.4043 3.96366 13.8892 3.96366 13.8892C3.96366 13.8892 3.69118 14.0455 3.49244 14.2205C3.38494 14.3155 3.64118 14.3492 3.64118 14.3492C3.64118 14.3492 3.89616 14.308 4.13115 14.2242C4.29114 14.168 4.47863 13.8742 4.51488 13.8705C4.55113 13.8667 4.57238 13.8805 4.57238 13.8805L4.40114 14.2205C4.40114 14.2205 4.24615 14.3542 4.03741 14.5505C3.95241 14.6304 4.20115 14.7179 4.20115 14.7179C4.20115 14.7179 4.46238 14.6767 4.64113 14.5017C4.78237 14.363 5.15485 13.7042 5.15485 13.7042C5.15485 13.7042 5.18985 13.6505 5.2211 13.603C5.27109 13.528 5.36984 13.3793 5.36984 13.3793C5.36984 13.3793 5.43733 13.4905 5.50108 13.588C5.55858 13.678 5.65232 13.6855 5.69607 13.6705C5.85231 13.6142 6.0298 13.528 6.0848 13.498C6.1398 13.468 6.11855 13.3055 6.01855 13.3093Z" fill="url(#paint6_linear_715_99)"/>
<g opacity="0.22">
<path opacity="0.22" d="M4.45363 12.1855C4.47238 12.1855 4.49988 12.2005 4.51488 12.218L4.39364 12.4793L4.34489 12.5855L4.45988 12.568C4.46113 12.568 4.63237 12.5418 4.80737 12.5418C4.92361 12.5418 5.0161 12.553 5.07485 12.5755L5.08485 12.578C5.09735 12.5805 5.1111 12.583 5.12485 12.5868C5.27234 12.6243 5.43858 12.7168 5.48858 12.7643C5.59107 12.8605 5.60857 13.0055 5.62107 13.2017C5.62982 13.328 5.65107 13.4017 5.65232 13.4042L5.67107 13.4667L5.73232 13.4455C5.78731 13.4255 5.94606 13.3755 6.02105 13.373C6.0248 13.373 6.03355 13.373 6.0423 13.388C6.0548 13.4092 6.0548 13.4367 6.05105 13.4467C5.9898 13.4792 5.82106 13.5605 5.67607 13.6117C5.67482 13.6117 5.66732 13.6142 5.65607 13.6142C5.63732 13.6142 5.58982 13.608 5.55483 13.5542C5.49233 13.458 5.42483 13.348 5.42483 13.348L5.37359 13.2642L5.31984 13.3455L5.1711 13.5692C5.1311 13.628 5.11235 13.658 5.10235 13.6742H5.1011C4.99861 13.8555 4.70987 14.3492 4.59863 14.4579C4.45988 14.5929 4.26364 14.6429 4.2074 14.6542C4.15865 14.6354 4.1099 14.6079 4.0899 14.5892C4.29114 14.4004 4.44238 14.2704 4.44363 14.2692L4.45363 14.2617L4.45863 14.2504L4.62988 13.9105L4.65487 13.8605L4.60738 13.8305C4.59988 13.8255 4.57238 13.8092 4.52738 13.8092C4.52238 13.8092 4.51613 13.8092 4.51113 13.8105C4.47238 13.8142 4.44738 13.843 4.38114 13.9217C4.31364 14.0017 4.19865 14.1367 4.11115 14.1667C3.90866 14.2392 3.68742 14.2792 3.64118 14.2867C3.60493 14.2817 3.56743 14.2704 3.54368 14.2604C3.73367 14.0942 3.99241 13.9455 3.99491 13.9442L4.00866 13.9367L4.01741 13.923C4.31864 13.4355 4.32114 13.4305 4.32239 13.428C4.32864 13.4155 4.38489 13.3105 4.38614 13.3092C4.38614 13.308 4.38864 13.303 4.39364 13.2942C4.47863 13.1142 4.55738 12.9668 4.61488 12.8793L4.67987 12.783H4.56363C4.52238 12.783 4.39989 12.7768 4.33239 12.7505C4.30489 12.7393 4.26864 12.7193 4.25239 12.6818C4.23865 12.6468 4.2424 12.603 4.26614 12.5493C4.30989 12.4493 4.40239 12.2405 4.44988 12.188C4.44863 12.1855 4.44988 12.1855 4.45363 12.1855ZM4.45363 12.123C4.43364 12.123 4.41614 12.1293 4.40239 12.1443C4.35364 12.198 4.28114 12.3568 4.2074 12.523C4.1374 12.683 4.2149 12.773 4.30739 12.808C4.39989 12.8443 4.56113 12.8443 4.56113 12.8443C4.45738 13.0005 4.33239 13.273 4.32989 13.278C4.32989 13.278 4.26989 13.3905 4.26489 13.4005C4.26239 13.4055 3.96241 13.8905 3.96241 13.8905C3.96241 13.8905 3.68992 14.0467 3.49119 14.2217C3.38369 14.3167 3.63993 14.3504 3.63993 14.3504C3.63993 14.3504 3.89491 14.3092 4.1299 14.2254C4.28989 14.1692 4.47738 13.8755 4.51363 13.8717H4.52488C4.55488 13.8717 4.57113 13.883 4.57113 13.883L4.39989 14.2229C4.39989 14.2229 4.2449 14.3567 4.03616 14.5529C3.95116 14.6329 4.1999 14.7204 4.1999 14.7204C4.1999 14.7204 4.46113 14.6792 4.63987 14.5042C4.78112 14.3654 5.1536 13.7067 5.1536 13.7067C5.1536 13.7067 5.1886 13.653 5.21984 13.6055C5.26984 13.5305 5.36859 13.3817 5.36859 13.3817C5.36859 13.3817 5.43608 13.493 5.49983 13.5905C5.54358 13.658 5.60732 13.6792 5.65357 13.6792C5.66982 13.6792 5.68357 13.6767 5.69482 13.673C5.85106 13.6167 6.02855 13.5305 6.08355 13.5005C6.13855 13.4705 6.1173 13.3117 6.0198 13.3117H6.0173C5.91731 13.3142 5.70982 13.388 5.70982 13.388C5.70982 13.388 5.68857 13.3192 5.68107 13.1992C5.66857 13.0068 5.65232 12.8355 5.52983 12.7205C5.46733 12.6618 5.28984 12.568 5.13985 12.528C5.12485 12.5243 5.1111 12.5218 5.0961 12.5193C5.01985 12.4905 4.91236 12.4818 4.80737 12.4818C4.62613 12.4818 4.44988 12.5093 4.44988 12.5093L4.58363 12.2193C4.56863 12.1668 4.50613 12.123 4.45363 12.123Z" fill="#212121"/>
</g>
<path d="M3.39746 14.4555C3.40121 14.5592 3.41996 14.6042 3.4787 14.6154C3.5537 14.6292 3.63494 14.438 3.63494 14.438C3.67119 14.378 3.70869 14.3692 3.70869 14.3692L4.00993 14.283C4.02492 14.0292 3.85493 13.968 3.80869 13.9592C3.80869 13.9592 3.56495 14.1317 3.50995 14.168C3.46495 14.198 3.4487 14.2267 3.43871 14.2455C3.42996 14.263 3.39371 14.3367 3.39746 14.4555Z" fill="#424242"/>
<path d="M3.86618 14.8417C3.85243 14.9441 3.87493 14.9879 3.93492 14.9966C4.00992 15.0066 4.12116 14.8204 4.12116 14.8204C4.15366 14.7592 4.19116 14.7492 4.19116 14.7492L4.49239 14.6279C4.49614 14.3742 4.30615 14.3217 4.25866 14.3154C4.25866 14.3154 4.03742 14.5192 3.98367 14.5579C3.93992 14.5892 3.92492 14.6192 3.91492 14.6379C3.90742 14.6529 3.88118 14.7292 3.86618 14.8417Z" fill="#424242"/>
<path d="M5.53109 12.8156L5.4986 12.7693L6.80603 11.2219L6.56604 11.7431L5.53109 12.8156Z" fill="#4E342E"/>
<path d="M5.04486 12.563L5.49984 10.5831L5.67358 10.6556L5.07861 12.658L5.04486 12.563Z" fill="#553A30"/>
<g opacity="0.47">
<path opacity="0.47" d="M5.58233 14.2529C5.58233 14.2529 5.58108 14.2567 5.57858 14.2617C5.57983 14.2617 5.58233 14.2529 5.58233 14.2529Z" fill="#2B2D2D"/>
</g>
<path d="M4.91739 12.6518L4.96364 10.8119L5.24487 10.8619L5.04363 12.6693L4.91739 12.6518Z" fill="#795548"/>
<path d="M5.5636 12.7968L5.5036 12.7106L6.4673 11.5144L6.68979 11.5981L5.5636 12.7968Z" fill="#795548"/>
<path d="M5.02363 10.8919L5.17488 10.9319L4.98989 12.598L4.98114 12.5968L5.02363 10.8919ZM4.96364 10.8119L4.91739 12.6518L5.04488 12.6693L5.24362 10.8856L4.96364 10.8119Z" fill="#553A30"/>
<path d="M6.4823 11.5406L6.62104 11.6593L5.64984 12.623L6.4823 11.5406ZM6.47355 11.4506L5.50485 12.7117L5.56485 12.798L6.71479 11.6568L6.47355 11.4506Z" fill="#553A30"/>
<path d="M4.51614 13.8705C4.4499 13.8268 4.38115 13.7793 4.3324 13.7093C4.28241 13.6405 4.25241 13.5518 4.25741 13.463C4.26241 13.2918 4.3649 13.1205 4.52114 13.0605C4.46865 13.123 4.43115 13.1893 4.4024 13.2568C4.37365 13.3243 4.35615 13.3955 4.34865 13.4668C4.34365 13.5368 4.3574 13.6068 4.3899 13.673C4.4199 13.743 4.4699 13.803 4.51614 13.8705Z" fill="#504F4F"/>
<path d="M5.05738 13.3893C5.15987 13.243 5.38486 12.8381 5.48485 12.8156C5.60235 12.7881 5.6311 12.8906 5.6436 12.9643C5.64984 12.9993 5.65984 13.0343 5.65984 13.0343C5.68109 13.0256 5.71109 12.9256 5.71734 12.8393C5.72734 12.7056 5.67734 12.6318 5.58235 12.5756C5.48735 12.5193 5.06988 12.3281 5.06988 12.3281C4.94363 12.2543 4.79489 12.3843 4.74239 12.4693L4.33491 13.0943C4.28242 13.1793 4.30742 13.2905 4.39116 13.343C4.39116 13.343 4.62615 13.5018 4.75614 13.5718C4.90363 13.648 4.95488 13.5355 5.05738 13.3893Z" fill="url(#paint7_linear_715_99)"/>
<path d="M4.75487 12.4981C4.83112 12.4081 4.89862 12.3094 5.02611 12.3706C5.15235 12.4306 5.35609 12.5368 5.50483 12.6143C5.62233 12.6756 5.70357 12.7243 5.71607 12.8643C5.73232 12.6731 5.65483 12.6156 5.58358 12.5731C5.48858 12.5168 5.07111 12.3256 5.07111 12.3256C5.05361 12.3156 5.03611 12.3119 5.01986 12.3069C4.90612 12.2744 4.78987 12.3944 4.74362 12.4668L4.33615 13.0918C4.33365 13.0956 4.3324 13.0993 4.33115 13.1031C4.40739 13.0431 4.75487 12.4981 4.75487 12.4981Z" fill="#757575"/>
<path d="M4.5724 13.8805C4.55115 13.8055 4.55115 13.7205 4.59115 13.6418C4.6099 13.6018 4.64364 13.568 4.68239 13.543C4.72114 13.5155 4.76614 13.5055 4.80864 13.4968H4.81489C4.86363 13.493 4.91488 13.4993 4.96613 13.5193C5.01612 13.5405 5.06612 13.583 5.08737 13.6368C5.10987 13.6892 5.10862 13.7442 5.09612 13.7917C5.08362 13.838 5.06237 13.8855 5.02112 13.9117C5.03237 13.868 5.02737 13.8242 5.02237 13.7855C5.01612 13.7467 5.00488 13.7117 4.98738 13.6867C4.95488 13.638 4.89238 13.618 4.81364 13.6105H4.81988C4.75614 13.6155 4.69864 13.6343 4.65614 13.6842C4.6149 13.7342 4.5874 13.8055 4.5724 13.8805Z" fill="#504F4F"/>
<path d="M4.39116 13.3406C4.39116 13.3406 4.62864 13.4956 4.75989 13.5656C4.90738 13.6443 4.96988 13.6181 5.07112 13.4718C5.17362 13.3256 5.41985 12.8718 5.51985 12.8431C5.64984 12.8056 5.64734 12.9793 5.64734 12.9793C5.64734 12.9793 5.71234 12.8831 5.62734 12.7469C5.60359 12.7081 5.47235 12.6481 5.35111 12.7981C5.27736 12.8893 5.01112 13.3031 4.90863 13.4606C4.88613 13.4943 4.84238 13.5043 4.80738 13.4831L4.30741 13.1768C4.30241 13.2406 4.30741 13.2881 4.39116 13.3406Z" fill="#504F4F"/>
<g opacity="0.24">
<path opacity="0.24" d="M5.57999 14.2593C5.57999 14.2593 5.57858 14.2607 5.57858 14.2621C5.57999 14.2607 5.57999 14.2593 5.57999 14.2593Z" fill="black"/>
</g>
<path d="M5.29611 13.4743C5.29611 13.4743 5.23737 13.248 5.14862 13.1643L5.26361 13.0293C5.34986 13.1255 5.39986 13.3143 5.39611 13.3855C5.39236 13.4368 5.29611 13.4743 5.29611 13.4743Z" fill="#504F4F"/>
<path d="M3.57697 14.4254C3.59575 14.3207 3.57297 14.2291 3.52609 14.2207C3.4792 14.2122 3.42597 14.2902 3.40718 14.3949C3.3884 14.4995 3.41118 14.5912 3.45806 14.5996C3.50494 14.608 3.55818 14.53 3.57697 14.4254Z" fill="#504F4F"/>
<path d="M4.05554 14.8102C4.07932 14.7065 4.0566 14.6129 4.00479 14.601C3.95298 14.5891 3.8917 14.6635 3.86792 14.7671C3.84414 14.8707 3.86686 14.9644 3.91867 14.9762C3.97048 14.9881 4.03176 14.9138 4.05554 14.8102Z" fill="#504F4F"/>
<path d="M5.02985 10.7969L5.8348 11.0532C5.9173 11.0582 6.07104 11.1782 6.13479 11.2319L6.67976 11.6481L7.09849 10.9894L6.09979 10.9719C6.01354 10.9607 6.00979 10.9282 5.9373 10.8819L5.59107 10.4132L5.02985 10.7969Z" fill="#F4C20D"/>
<path d="M5.58356 10.4544L5.88604 10.8456C5.96104 10.9431 6.07478 10.9981 6.19353 10.9994L6.99724 11.0456L6.691 11.6018L6.02479 11.1094C5.95854 11.0556 5.87854 11.0194 5.7948 11.0031L5.10484 10.7906L5.58356 10.4544ZM5.59606 10.3682L4.96359 10.8119L5.77855 11.0631C5.85355 11.0769 5.92479 11.1094 5.98479 11.1581L6.711 11.6943L7.09973 10.9881L6.19728 10.9356C6.09478 10.9356 5.99854 10.8869 5.93604 10.8056L5.59606 10.3682Z" fill="#795548"/>
<path d="M6.67853 6.57961C9.52213 7.78955 12.282 10.9144 12.282 10.9144C12.282 10.9144 13.0107 11.0206 13.5932 10.6981C14.2931 10.3107 15.6618 8.68325 15.9818 8.41451C16.5555 7.93079 16.3243 6.83335 15.9568 6.41087C15.6493 6.05589 13.8519 4.35223 10.4771 3.21229C7.66098 2.26109 6.07981 2.40983 5.25486 2.52982C4.4999 2.63982 4.18866 2.69356 3.13622 3.19229C1.11508 4.14974 1.74879 5.39092 1.74879 5.39092C1.74879 5.39092 3.33621 5.15718 6.67853 6.57961Z" fill="url(#paint8_linear_715_99)"/>
<path d="M9.20839 2.83228C8.24845 2.58479 7.46974 2.48105 6.84102 2.45105C6.78227 2.4698 6.72228 2.49105 6.65978 2.5123C4.74738 3.16601 3.55994 4.02472 3.17246 4.49094C3.01372 4.68218 2.85373 5.26465 2.88623 5.44214C3.47245 5.52339 4.2874 5.69838 5.3411 6.06336L6.3398 5.68963L9.36839 3.19976L9.20839 2.83228Z" fill="url(#paint9_linear_715_99)"/>
<path d="M10.4771 3.21099C9.9071 3.0185 9.38838 2.87101 8.91591 2.75977C8.56717 2.86476 8.0322 3.04975 7.37599 3.36098C6.1873 3.92345 5.10361 4.64842 4.91112 5.0059C4.71988 5.36338 4.65863 5.84085 4.65863 5.84085C5.2411 6.01584 5.91356 6.25333 6.67727 6.57831C6.76602 6.61581 6.85601 6.65581 6.94476 6.69831L8.57467 4.95465L10.8221 3.33099C10.7096 3.29099 10.5946 3.25099 10.4771 3.21099Z" fill="url(#paint10_linear_715_99)"/>
<path d="M11.282 9.88327C11.282 9.88327 11.5558 9.46579 11.8708 9.08456C12.5432 8.27085 15.5118 5.97847 15.5118 5.97847C14.8193 5.37351 14.3406 5.03102 13.3057 4.45605L9.80586 6.4022L8.81342 7.46715L8.81967 7.81588C9.63212 8.3921 10.6983 9.3383 11.282 9.88327Z" fill="url(#paint11_linear_715_99)"/>
<path d="M11.6583 3.65723L8.11973 5.48713L7.26477 6.85581C8.11973 7.29578 9.01343 7.94075 9.74464 8.52822C9.74464 8.52822 9.86838 8.00575 10.2759 7.56077C10.7308 7.0633 12.5332 5.34339 13.8482 4.77217C13.2457 4.40344 12.517 4.01721 11.6583 3.65723Z" fill="url(#paint12_linear_715_99)"/>
<path d="M10.5858 3.24854C10.0971 3.37853 9.11964 3.67601 8.35343 4.13974C7.28724 4.78345 6.52478 5.32843 6.34104 5.68841C6.1573 6.04839 6.10855 6.34587 6.10855 6.34587L6.1098 6.34712C6.29354 6.41962 6.48228 6.49711 6.67852 6.57961C7.16725 6.7871 7.65222 7.05333 8.12345 7.34832C8.12345 7.34832 8.35218 6.87459 8.66342 6.50461C9.09214 5.99589 10.8845 4.40472 12.2832 3.93475C11.7708 3.69476 11.2058 3.46227 10.5858 3.24854Z" fill="url(#paint13_linear_715_99)"/>
<path d="M9.72337 4.45468C7.38599 3.206 5.3486 2.86477 4.06242 2.79602C3.73869 2.90976 3.42495 3.05101 3.11497 3.19975C2.605 3.44474 2.07752 3.78597 1.80879 4.30469C1.6713 4.57093 1.61755 4.87716 1.67754 5.17215C1.68754 5.22089 1.70004 5.33464 1.73879 5.37213C1.77129 5.40463 1.83379 5.38088 1.88628 5.37838C2.53375 5.34839 3.19371 5.46963 3.82118 5.61587C4.55739 5.78711 5.2786 6.0246 5.98357 6.29709C6.69728 6.57207 7.38474 6.8908 8.03346 7.29703C8.72842 7.73201 9.38589 8.22573 10.0121 8.75571C10.5908 9.24443 11.157 9.74815 11.6895 10.2881C11.8658 10.4669 12.0395 10.6481 12.2082 10.8331C12.287 10.9193 12.3007 10.9181 12.4232 10.9256C12.9769 10.9568 13.4882 10.8143 13.9206 10.4669C14.3381 10.1319 14.7119 9.7394 15.0793 9.35067C15.1731 9.25193 15.2643 9.15194 15.3568 9.05069C14.4194 7.9445 12.4757 5.92461 9.72337 4.45468Z" fill="url(#paint14_radial_715_99)"/>
<path opacity="0.8" d="M9.72339 3.8535C11.9933 4.90219 13.6069 5.82589 14.7694 6.76459C15.5731 7.41331 15.5106 8.79074 15.5106 8.79074C16.4143 8.17202 16.3918 7.54205 16.2605 7.03958C16.2018 6.81584 16.1093 6.58585 15.9556 6.40961C15.5668 5.96089 15.0619 5.57716 14.5781 5.23592C14.0069 4.83345 13.3907 4.48596 12.7682 4.17098C11.487 3.52102 10.1134 3.02354 8.70969 2.71356C7.97973 2.55232 7.23477 2.44732 6.48731 2.44107C5.90484 2.43732 5.32362 2.50232 4.75115 2.60856C4.17493 2.71606 3.07249 3.22228 3.05249 3.23228C3.05249 3.23228 4.02119 2.91105 4.91489 2.97979C6.82354 3.12479 8.29471 3.19353 9.72339 3.8535Z" fill="url(#paint15_radial_715_99)"/>
<defs>
<linearGradient id="paint0_linear_715_99" x1="2.7527" y1="6.80066" x2="4.96327" y2="10.8262" gradientUnits="userSpaceOnUse">
<stop stop-color="#78909C"/>
<stop offset="1" stop-color="#B0BEC5"/>
</linearGradient>
<linearGradient id="paint1_linear_715_99" x1="13.054" y1="10.709" x2="7.1342" y2="11.5899" gradientUnits="userSpaceOnUse">
<stop stop-color="#78909C"/>
<stop offset="1" stop-color="#B0BEC5"/>
</linearGradient>
<linearGradient id="paint2_linear_715_99" x1="5.68457" y1="7.10756" x2="5.64898" y2="8.29072" gradientUnits="userSpaceOnUse">
<stop stop-color="#546E7A"/>
<stop offset="1" stop-color="#90A4AE"/>
</linearGradient>
<linearGradient id="paint3_linear_715_99" x1="10.0352" y1="9.45038" x2="8.51574" y2="10.2397" gradientUnits="userSpaceOnUse">
<stop stop-color="#546E7A"/>
<stop offset="1" stop-color="#90A4AE"/>
</linearGradient>
<linearGradient id="paint4_linear_715_99" x1="5.57379" y1="14.2538" x2="5.57378" y2="14.2538" gradientUnits="userSpaceOnUse">
<stop stop-color="#FFB300"/>
<stop offset="0.4007" stop-color="#FFCA28"/>
</linearGradient>
<linearGradient id="paint5_linear_715_99" x1="5.31389" y1="12.7448" x2="5.56859" y2="12.2157" gradientUnits="userSpaceOnUse">
<stop stop-color="#1A237E" stop-opacity="0.9713"/>
<stop offset="1" stop-color="#4885ED" stop-opacity="0.9713"/>
</linearGradient>
<linearGradient id="paint6_linear_715_99" x1="5.38512" y1="12.6932" x2="4.02912" y2="13.9244" gradientUnits="userSpaceOnUse">
<stop stop-color="#A11919"/>
<stop offset="0.4963" stop-color="#DB3236"/>
</linearGradient>
<linearGradient id="paint7_linear_715_99" x1="4.84014" y1="13.3084" x2="5.73087" y2="11.9418" gradientUnits="userSpaceOnUse">
<stop stop-color="#616161"/>
<stop offset="0.3978" stop-color="#2B2D2D"/>
<stop offset="0.9505"/>
</linearGradient>
<linearGradient id="paint8_linear_715_99" x1="7.8428" y1="8.46435" x2="9.2324" y2="5.78304" gradientUnits="userSpaceOnUse">
<stop offset="0.2498" stop-color="#FFA000"/>
<stop offset="0.3571" stop-color="#FDA703"/>
<stop offset="0.7403" stop-color="#F6BB0A"/>
<stop offset="1" stop-color="#F4C20D"/>
</linearGradient>
<linearGradient id="paint9_linear_715_99" x1="6.31185" y1="3.79831" x2="4.03965" y2="6.05789" gradientUnits="userSpaceOnUse">
<stop stop-color="#DB3236"/>
<stop offset="1" stop-color="#B71C1C"/>
</linearGradient>
<linearGradient id="paint10_linear_715_99" x1="8.28865" y1="3.76398" x2="5.42733" y2="6.28412" gradientUnits="userSpaceOnUse">
<stop stop-color="#3CBA54"/>
<stop offset="1" stop-color="#388E3C"/>
</linearGradient>
<linearGradient id="paint11_linear_715_99" x1="13.9951" y1="5.2297" x2="10.0232" y2="8.58228" gradientUnits="userSpaceOnUse">
<stop stop-color="#DB3236"/>
<stop offset="1" stop-color="#B71C1C"/>
</linearGradient>
<linearGradient id="paint12_linear_715_99" x1="11.6963" y1="4.60554" x2="8.4651" y2="7.41357" gradientUnits="userSpaceOnUse">
<stop stop-color="#3CBA54"/>
<stop offset="1" stop-color="#388E3C"/>
</linearGradient>
<linearGradient id="paint13_linear_715_99" x1="9.91087" y1="4.2276" x2="7.08221" y2="6.77754" gradientUnits="userSpaceOnUse">
<stop stop-color="#4885ED"/>
<stop offset="1" stop-color="#1565C0"/>
</linearGradient>
<radialGradient id="paint14_radial_715_99" cx="0" cy="0" r="1" gradientUnits="userSpaceOnUse" gradientTransform="translate(6.425 8.01179) rotate(24.6967) scale(13.6213 5.25337)">
<stop offset="0.1663" stop-color="#212121" stop-opacity="0.9566"/>
<stop offset="0.5535" stop-color="#212121" stop-opacity="0"/>
</radialGradient>
<radialGradient id="paint15_radial_715_99" cx="0" cy="0" r="1" gradientUnits="userSpaceOnUse" gradientTransform="translate(8.31665 6.07225) rotate(17.77) scale(12.4621 3.78462)">
<stop offset="0.6567" stop-color="#FFECB4" stop-opacity="0.0338"/>
<stop offset="1" stop-color="#FFF9C4"/>
</radialGradient>
</defs>
</svg>
