<svg width="18" height="18" viewBox="0 0 18 18" fill="none" xmlns="http://www.w3.org/2000/svg">
<path d="M6.02567 13.3118C6.04942 13.4193 6.03942 13.713 6.03942 13.868C6.03942 14.023 6.05192 14.9642 6.05192 14.9642C6.05192 14.9642 5.21821 14.8092 4.96697 14.8092C4.71699 14.8092 4.36076 14.9654 4.33576 15.2617C4.31201 15.5354 4.47825 15.6066 4.69324 15.6666C4.90823 15.7266 8.53054 16.4291 8.70928 16.4654C8.88802 16.5016 9.2355 16.4516 9.28175 16.1554C9.30675 15.9891 9.2105 15.7341 8.86427 15.5591C8.58303 15.4167 7.43435 15.1542 7.43435 15.1542L7.42185 13.498L6.02567 13.3118Z" fill="#858585"/>
<path d="M10.6762 13.6179C10.6762 13.6179 10.5337 13.7129 10.5337 13.8804C10.5337 14.0466 10.6687 14.0654 11.0099 14.1429C11.5349 14.2616 13.7148 14.6079 13.941 14.6429C14.1672 14.6779 14.5097 14.7141 14.4772 14.4041C14.441 14.0591 14.2035 13.8679 13.536 13.6892C12.9748 13.5392 12.7211 13.5304 12.6661 13.4504C12.5598 13.2954 12.6486 12.8767 12.6486 12.8767L10.7474 13.2242L10.6762 13.6179Z" fill="#858585"/>
<path d="M4.40674 12.2825C4.40674 12.2825 4.4905 12.7237 4.89555 12.9862C5.3006 13.2487 6.15946 13.5112 6.8858 13.6899C7.61339 13.8687 8.471 14.0474 8.93605 14.0111C9.40111 13.9749 10.45 13.7724 12.0352 13.2837C13.6204 12.795 14.2405 12.45 14.3117 12.295C14.408 12.0862 14.3355 11.6275 14.3355 11.6275L11.7727 10.8413L4.40674 12.2825Z" fill="#9B9B9B"/>
<path d="M14.2969 10.8665C14.2969 10.8665 14.3431 11.0902 14.3531 11.2502C14.3619 11.4089 14.3669 11.5752 14.3369 11.6277C14.3069 11.6802 13.7268 11.9701 12.4467 12.3626C11.1665 12.7551 9.31501 13.2126 9.05373 13.1663C8.79244 13.1201 8.98872 11.9326 8.98872 11.9326L14.2969 10.8665Z" fill="#172789"/>
<path d="M11.6053 9.47348C11.6053 9.47348 11.5203 9.21724 11.5865 9.08475C11.6528 8.95225 11.889 8.9335 12.3065 8.95225C12.7227 8.971 14.0801 9.09725 14.2226 9.11099C14.3376 9.12099 14.4451 9.006 14.4451 9.006L14.2664 8.26104L11.6803 7.79981L10.1104 7.77856L10.3753 9.9472L11.6053 9.47348Z" fill="#B0B0B0"/>
<path d="M8.97224 12.3048C8.97224 12.3048 9.75734 12.2748 10.3937 12.1861C11.03 12.0973 13.2378 11.5024 13.6703 11.3499C14.1029 11.1974 14.3329 11.0574 14.3329 11.0574C14.3329 11.0574 14.1929 10.1912 14.0654 9.96245C13.9379 9.73372 13.0165 9.53873 12.3852 9.45373C11.8251 9.37748 10.615 9.41498 10.615 9.41498L6.50194 10.0012L4.76172 10.6737L8.1959 11.5036L8.97224 12.3048Z" fill="#024FAC"/>
<path d="M4.89062 10.6863C4.89062 10.6863 5.79058 10.705 6.84177 10.8475C7.89297 10.99 8.47919 11.1125 8.83917 11.4437C9.0754 11.6612 9.1504 12.0412 9.18915 12.4949C9.22665 12.9312 9.33914 13.2824 8.73417 13.1761C8.26795 13.0949 7.86297 12.5699 7.78672 12.5512C7.71048 12.5324 5.07811 11.6325 5.07811 11.6325L4.89062 10.6863Z" fill="#0C66C8"/>
<path d="M10.7015 9.1273C10.7015 9.1273 10.7353 9.33354 10.739 9.41979C10.7403 9.46354 10.344 9.54478 10.1739 9.57603C9.73014 9.65603 8.42248 9.89976 8.1387 9.94726C7.85491 9.99476 4.9733 10.6997 4.9733 10.6997L4.51074 10.5247L4.77578 9.94726C4.77578 9.94726 7.86366 8.80482 8.30872 8.73482C9.27634 8.58358 10.7015 9.1273 10.7015 9.1273Z" fill="#172B86"/>
<path d="M14.2188 9.11333C14.2188 9.11333 14.3413 8.80085 14.1713 8.60211C13.9701 8.36837 12.3339 8.35587 12.0414 8.33712C11.7477 8.31837 11.3252 8.32837 11.3402 8.03464C11.3565 7.71716 11.6827 7.80715 12.1202 7.82465C12.5664 7.84215 13.9038 7.96089 14.2001 8.06339C14.4663 8.15588 14.5751 8.28088 14.6251 8.38837C14.6926 8.53336 14.7176 8.79335 14.5913 8.95209C14.4213 9.16458 14.2188 9.11333 14.2188 9.11333Z" fill="#858585"/>
<path d="M7.68464 9.46907C7.68464 9.46907 8.49724 9.37283 9.18482 9.29283C9.72364 9.22908 10.7013 9.13284 10.7013 9.13284C10.7013 9.13284 10.625 8.45787 10.46 7.86665C10.2987 7.28794 9.93867 6.78796 9.81365 6.18299C9.74739 5.86176 9.67863 5.44178 9.67863 5.44178L7.77965 4.76807C7.77965 4.76807 4.08919 5.52178 4.07543 5.60302C4.06168 5.68427 4.1692 9.33408 4.1692 9.33408L7.68464 9.46907Z" fill="#024FAC"/>
<path d="M4.1694 5.85855C4.1694 5.85855 5.05826 5.8723 5.85336 5.77731C6.64846 5.68356 7.30854 5.58856 7.94112 5.54857C8.5737 5.50857 9.67884 5.44107 9.67884 5.44107C9.67884 5.44107 9.65133 4.9836 9.66509 4.92985C9.67884 4.8761 9.87261 4.64986 9.94387 4.52487C10.0151 4.39988 10.0701 4.25738 10.0926 4.18739C10.1164 4.11614 9.81761 3.09495 9.81761 3.09495L5.95212 1.85376L4.34942 1.9475L4.12939 5.04984L4.1694 5.85855Z" fill="#182B85"/>
<path d="M9.23251 3.42138C9.23251 3.42138 9.30501 3.91511 9.30001 4.1001C9.29876 4.14759 9.28376 4.27259 9.33126 4.27259C9.37876 4.27259 10.0937 4.18634 10.0937 4.18634C10.0937 4.18634 10.2275 3.58887 10.0462 2.86641C9.86498 2.14395 9.55125 1.81396 9.55125 1.81396L8.37256 1.83021L9.23251 3.42138Z" fill="#024FAC"/>
<path d="M4.45951 4.66617C4.45951 4.66617 5.6182 4.53618 5.6582 4.50493C5.69695 4.47368 5.69445 3.35374 5.6532 3.04876C5.58571 2.54503 5.47696 1.95756 5.47696 1.91882C5.47696 1.88007 5.17323 1.67383 5.17323 1.67383L4.14453 2.31004L4.45951 4.66617Z" fill="#024FAC"/>
<path d="M8.72607 1.94764L9.65369 1.94014C9.65369 1.94014 9.53617 1.68136 9.33115 1.59385C9.12612 1.50759 8.1435 1.54759 8.1435 1.54759L5.26064 1.57885C5.26064 1.57885 4.23926 1.63385 3.90172 1.86138C3.56418 2.08891 3.49292 2.41145 3.42916 2.68899C3.38916 2.86526 3.3304 4.26043 3.3479 5.61185C3.37165 7.50084 3.56668 8.79475 3.56668 8.79475L4.1055 9.53985L4.71307 8.88727C4.71307 8.88727 4.75933 7.89089 4.62181 7.1458C4.48429 6.4007 4.30052 5.86564 4.30052 5.86564C4.30052 5.86564 4.70307 5.38182 4.70307 4.01915C4.70307 2.65648 4.58556 2.15017 4.58556 2.15017C4.58556 2.15017 4.9356 2.09766 5.24939 2.05891C5.44316 2.03515 8.72607 1.94764 8.72607 1.94764Z" fill="#0C66C8"/>
<path d="M8.73623 13.1758C8.73623 13.1758 7.90863 13.227 6.68223 12.952C5.58959 12.7071 4.58321 12.4133 4.40694 12.2821C4.23067 12.1508 3.88312 10.9522 3.72686 10.1922C3.57809 9.47098 3.48558 8.83351 3.56684 8.79476C3.70685 8.72727 5.41082 8.90976 5.41082 8.90976L8.47245 9.85721L7.96489 10.4684L4.97576 10.3522C4.97576 10.3522 4.99826 10.9247 5.31955 11.2796C5.54958 11.5346 5.81212 11.6346 6.56846 11.6921C7.32481 11.7496 8.14866 11.8184 8.5037 12.2421C8.89625 12.7108 8.73623 13.1758 8.73623 13.1758Z" fill="#B0B0B0"/>
<path d="M5.41054 8.90863C5.28429 8.89738 5.1243 8.96612 5.07805 9.20611C5.02556 9.48235 5.30679 9.60734 5.75427 9.62984C6.143 9.64984 6.93546 9.72858 7.24544 9.74608C7.56167 9.76483 7.9829 9.84358 8.0404 10.0498C8.0979 10.2561 7.96415 10.466 7.96415 10.466C7.96415 10.466 8.23039 10.471 8.35038 10.4323C8.51287 10.3798 8.60537 10.1686 8.59412 9.96232C8.58287 9.75608 8.45663 9.4811 7.91791 9.29861C7.38043 9.11487 5.41054 8.90863 5.41054 8.90863Z" fill="#858585"/>
<path d="M5.98331 4.47498C6.04206 4.53373 9.0869 4.21124 9.14439 4.1775C9.20189 4.14375 9.35813 3.65002 9.24689 2.99756C9.07565 1.99011 8.48443 1.48389 8.48443 1.48389C8.48443 1.48389 5.1871 1.49889 5.15336 1.54513C5.11961 1.59138 5.66458 1.94636 5.85832 2.97631C6.02956 3.89126 5.92581 4.41873 5.98331 4.47498Z" fill="#E0E0E0"/>
</svg>
