<svg width="18" height="18" viewBox="0 0 18 18" fill="none" xmlns="http://www.w3.org/2000/svg">
<path d="M10.8646 10.7659L11.0683 11.3058C11.0683 11.3058 10.7558 11.4546 10.7946 11.9008C10.8333 12.347 11.1671 12.597 11.4521 12.6358C11.8045 12.6845 12.0858 12.3308 12.0233 11.9233C11.9608 11.5158 11.6795 11.2821 11.6795 11.2821L11.672 10.8121L10.8646 10.7659Z" fill="#858585"/>
<path d="M4.5835 4.36987C4.591 4.32863 5.08722 3.88115 5.4447 3.59116C5.80343 3.30118 6.01467 3.09994 6.09967 3.10244C6.19216 3.10369 6.47215 3.26118 6.66464 3.37118C6.83088 3.46617 7.05712 3.61241 7.05712 3.61241L6.69838 4.24613C6.69838 4.24613 5.42345 5.77605 5.4022 5.7623C5.38345 5.74855 4.5835 4.36987 4.5835 4.36987Z" fill="#00C1E9"/>
<path d="M5.45215 5.45233C5.45215 5.45233 6.12086 4.63237 6.43085 4.28739C6.74083 3.94241 7.05831 3.61243 7.05831 3.61243C7.05831 3.61243 7.18206 3.67492 7.17581 3.79867C7.16831 3.92241 7.11331 4.01866 7.03082 4.1299C6.94832 4.23989 5.79713 5.72232 5.79713 5.72232L5.45215 5.45233Z" fill="#0D9ABB"/>
<path d="M10.4109 6.54602C10.4109 6.54602 14.8632 2.45374 14.9194 2.43499C14.9756 2.41624 15.1694 2.45374 15.4644 2.54624C15.7606 2.63873 16.2681 2.87872 16.2593 2.93371C16.2506 2.98871 16.1943 3.28495 16.1943 3.28495C16.1943 3.28495 12.6508 8.9284 12.4108 8.61467C12.1708 8.30093 10.4109 6.54602 10.4109 6.54602Z" fill="#00C1E9"/>
<path d="M12.5806 8.24217C12.5806 8.24217 16.0604 3.17869 16.1129 3.11244C16.1904 3.0137 16.1279 2.8937 16.0429 2.80121C15.9566 2.70746 15.8866 2.68372 15.8866 2.68372C15.8866 2.68372 16.1666 2.78871 16.2916 2.87121C16.4316 2.96245 16.5416 3.0662 16.5179 3.16744C16.4941 3.26869 12.9168 8.7084 12.9018 8.67715C12.8868 8.6459 12.5806 8.24217 12.5806 8.24217Z" fill="#0D9ABB"/>
<path d="M2.85751 2.2513C2.85751 2.2513 2.75001 2.16756 2.69002 2.2388C2.63002 2.31005 3.22874 5.68737 3.22874 5.68737L4.66491 6.68107L8.00474 9.68591L11.1046 10.9171L11.8295 11.1533C11.8295 11.1533 12.5145 10.6871 12.5145 10.6584C12.5145 10.6296 11.802 8.44223 11.802 8.44223L5.19738 5.97611L2.85751 2.2513Z" fill="#9A9A9A"/>
<path d="M4.17107 2.93243C4.03983 2.78869 2.85864 2.25122 2.85864 2.25122L4.66605 6.15977L4.90353 6.426C4.90353 6.426 5.67349 7.20346 6.4822 7.81218C7.29091 8.4209 7.97337 8.69588 8.55959 9.00462C9.27705 9.3821 9.86577 9.57334 10.3345 9.77707C10.9045 10.0258 11.4044 10.1646 11.6582 10.5033C11.8907 10.8133 11.8294 11.1533 11.8294 11.1533C11.8294 11.1533 12.3031 11.3695 12.8831 11.502C13.4631 11.6357 14.728 11.797 15.0517 11.0358C15.3755 10.2745 14.918 9.49459 13.8156 8.83837C12.7131 8.18216 12.2081 8.07716 12.2081 8.07716L11.9032 7.23096C11.9032 7.23096 11.1045 6.56599 10.6007 6.37475C10.097 6.18476 7.97587 5.80353 7.97587 5.80353L5.5035 5.50855C5.50225 5.5098 4.27482 3.04743 4.17107 2.93243Z" fill="#C8C8C8"/>
<path d="M7.77709 9.46342C7.66459 9.50467 6.5959 10.8484 6.33341 11.1646C6.10217 11.4433 3.47606 14.5019 3.39732 14.6494C3.31857 14.7969 3.52481 14.9831 3.52481 14.9831L4.99973 15.5731L9.75823 11.6621L10.7869 10.3084C10.7869 10.3084 10.1007 9.91215 9.26451 9.72466C8.4283 9.53717 7.88583 9.42468 7.77709 9.46342Z" fill="#00C1E9"/>
<path d="M10.7858 10.3083C10.7858 10.3083 5.17731 15.2843 5.04857 15.3168C4.94732 15.3418 4.4236 15.2031 3.98987 14.9956C3.61989 14.8194 3.39865 14.6494 3.39865 14.6494C3.39865 14.6494 3.24116 14.8269 3.4374 15.1018C3.63364 15.3768 4.78358 15.8581 4.98982 15.8293C5.19606 15.7993 5.52979 15.4656 5.81478 15.2293C6.09976 14.9931 11.0633 10.7571 11.0633 10.7571C11.0633 10.7571 11.0582 10.6008 10.9945 10.5021C10.907 10.3646 10.7858 10.3083 10.7858 10.3083Z" fill="#0D9ABB"/>
<path d="M8.00092 9.85958C7.84593 9.78209 7.66969 9.97708 7.5197 10.1696C7.36971 10.3621 4.43861 13.8606 4.34237 13.9894C4.24612 14.1181 4.17113 14.2569 4.30987 14.3418C4.44861 14.4268 4.58861 14.2781 4.7161 14.1169C4.84484 13.9569 7.91468 10.2971 8.00092 10.2008C8.08717 10.1046 8.21466 9.96708 8.00092 9.85958Z" fill="#B4DDFA"/>
<path d="M14.4493 13.1419C14.5693 13.2894 15.5805 12.6832 16.1155 11.7532C16.6155 10.8833 16.8942 9.7846 16.5605 9.77585C16.2267 9.7671 16.2842 10.3883 16.1455 10.8608C16.0592 11.1558 15.8543 11.7545 15.2893 12.3095C14.7306 12.8607 14.3318 12.9957 14.4493 13.1419Z" fill="#E1E0DF"/>
<path d="M9.69696 7.9435C9.61947 7.91475 9.57197 7.96975 9.59447 8.0735C9.61072 8.15099 9.77071 9.07469 9.78446 9.15219C9.79821 9.22968 9.8832 9.29343 9.9957 9.34218C10.1082 9.39093 10.8132 9.72341 10.8982 9.73716C10.9831 9.75091 11.0106 9.63841 10.9619 9.49092C10.9131 9.34343 10.7069 8.67346 10.4982 8.39848C10.3319 8.17849 9.87945 8.011 9.69696 7.9435Z" fill="#3B5361"/>
<path d="M7.68972 5.9386C7.62347 6.06484 7.69971 6.17609 8.32718 6.36608C8.91715 6.54482 9.22088 6.66981 9.54462 6.80355C9.86835 6.9373 10.3246 7.20353 10.5808 7.27853C10.837 7.35477 11.152 7.38352 11.332 7.15479C11.4408 7.01729 11.3133 6.76481 10.932 6.53607C10.5508 6.30733 10.0471 6.11734 9.22963 5.96485C8.41218 5.81486 7.78471 5.75736 7.68972 5.9386Z" fill="#E0E0E0"/>
<path d="M8.1084 7.2898C7.96091 7.24106 8.00216 7.3123 8.00591 7.4323C8.00716 7.49604 8.09966 8.21475 8.10716 8.2635C8.11465 8.31225 8.11715 8.37975 8.26965 8.45349C8.43089 8.53224 9.1646 8.91222 9.23585 8.94722C9.30584 8.98221 9.32709 8.87722 9.30584 8.73598C9.28459 8.59473 9.18835 7.82228 9.16085 7.77228C9.13335 7.72228 8.18965 7.3173 8.1084 7.2898Z" fill="#3B5361"/>
<path d="M11.8157 7.25721C11.7545 7.30096 11.6708 7.39471 11.4508 7.5972C11.197 7.82968 10.9158 7.96593 10.9258 8.11717C10.9333 8.24966 11.0633 8.5084 11.237 8.86463C11.402 9.20211 11.5595 9.54334 11.6108 9.61959C11.717 9.77458 11.9282 9.82458 12.0907 9.71084C12.2532 9.59709 12.4432 9.4571 12.662 9.19586C12.8807 8.93463 12.9444 8.77963 12.9369 8.5609C12.9294 8.34216 12.0232 7.35221 11.9807 7.29596C11.937 7.23971 11.8932 7.20097 11.8157 7.25721Z" fill="#3B5361"/>
<path d="M15.628 8.49965C15.6855 8.59464 14.9055 8.73088 14.1005 9.82333C13.2468 10.9808 13.3018 11.5607 13.2956 11.767C13.2868 12.072 13.2256 12.3594 13.0181 12.2944C12.8744 12.2494 12.7744 11.9682 12.9594 11.1908C13.1443 10.4133 13.6881 9.50209 14.298 9.03837C15.1492 8.38965 15.573 8.40715 15.628 8.49965Z" fill="#E1E0DF"/>
<path d="M14.9806 10.2396C14.9806 10.2396 15.1194 9.70214 15.4706 9.21216C15.8218 8.72219 16.1555 8.4622 16.2855 8.4722C16.4155 8.48095 16.4705 8.57345 16.4705 8.57345L15.5168 10.5583C15.5168 10.5583 15.5881 10.6458 15.6506 10.7483C15.7268 10.8746 15.6093 11.0721 15.6093 11.0721L14.7494 11.2946L13.4619 13.2382C13.4619 13.2382 13.2395 13.2007 13.2582 12.9332C13.277 12.6645 13.4707 12.1458 13.7857 11.747C14.1007 11.3483 14.5494 11.1521 14.5494 11.1521L14.6194 10.8871C14.6194 10.8871 14.4881 10.7558 14.5731 10.5533C14.6831 10.2909 14.9806 10.2396 14.9806 10.2396Z" fill="#799FAE"/>
<path d="M15.2781 10.3659C15.2781 10.3659 15.3556 10.4221 15.4118 10.4659C15.4681 10.5096 15.5268 10.5683 15.5268 10.5683C15.5268 10.5683 15.9343 10.0921 16.1643 9.61965C16.3718 9.19342 16.6155 8.65595 16.4718 8.57345C16.3268 8.49096 15.8343 9.19342 15.6518 9.5384C15.4681 9.88338 15.2781 10.3659 15.2781 10.3659Z" fill="#40717A"/>
<path d="M14.573 10.5546C14.573 10.5546 14.6767 10.9183 14.9817 11.0045C15.3667 11.112 15.6517 10.7458 15.6517 10.7458C15.6517 10.7458 15.8129 10.9883 15.7454 11.1908C15.6742 11.402 15.273 11.497 15.1105 11.5045C14.948 11.5108 14.8205 11.4983 14.8205 11.4983C14.8205 11.4983 14.6442 12.072 14.3343 12.5257C14.0618 12.9232 13.6068 13.3532 13.4643 13.2407C13.3218 13.1282 13.6418 12.572 13.8618 12.2295C14.1518 11.777 14.6055 11.392 14.6055 11.392C14.6055 11.392 14.4967 11.2495 14.4767 11.0408C14.448 10.7546 14.573 10.5546 14.573 10.5546Z" fill="#40717A"/>
<path d="M6.84475 6.83103C6.74851 6.79103 6.66851 6.85353 6.66101 6.95978C6.65351 7.06602 6.69726 7.47225 6.71851 7.5335C6.74101 7.59974 7.61096 8.09097 7.68096 8.09097C7.71221 8.09097 7.67721 7.85473 7.65846 7.65474C7.63221 7.37475 7.61846 7.17851 7.58721 7.12977C7.56596 7.09602 6.9285 6.86603 6.84475 6.83103Z" fill="#3B5361"/>
<path d="M3.15863 5.3624C3.08363 5.3774 1.55246 7.10981 1.53121 7.17481C1.50996 7.2398 1.67246 7.45729 1.67246 7.45729L2.54116 7.83727L5.09228 6.05737C5.09103 6.05737 3.26737 5.34115 3.15863 5.3624Z" fill="#00C1E9"/>
<path d="M1.53119 7.17481C1.53119 7.17481 2.39614 7.60229 2.56988 7.58104C2.74362 7.55979 5.096 6.05737 5.096 6.05737C5.096 6.05737 5.33224 6.21986 5.1935 6.39986C5.05475 6.5786 2.84612 8.01352 2.59363 7.99727C2.38114 7.98352 1.54369 7.61854 1.50119 7.51605C1.41244 7.29606 1.53119 7.17481 1.53119 7.17481Z" fill="#0D9ABB"/>
</svg>
