<svg width="18" height="18" viewBox="0 0 18 18" fill="none" xmlns="http://www.w3.org/2000/svg">
<path opacity="0.45" d="M13.8794 3.92602C14.4094 5.33969 14.2544 7.05085 12.8795 7.92581C11.5045 8.80076 10.1296 9.42573 9.00468 10.5507C8.46971 11.0856 6.58481 13.1118 6.58231 16.4879H13.8207C13.8407 16.4666 13.8582 16.4454 13.8782 16.4254C14.7406 15.8666 15.6443 15.3504 16.498 14.7742V1.48865H11.9395C12.5145 2.12861 13.4669 2.82483 13.8794 3.92602Z" fill="#3BBCF7"/>
<path opacity="0.45" d="M1.50006 6.82212V16.4879H3.19247C2.74125 15.7979 2.42626 15.0604 2.63 14.1755C2.87999 12.9255 4.13117 12.4281 5.12987 11.9256C7.94972 10.5057 8.53594 8.23829 8.62968 5.67593C8.68718 4.08976 8.10846 2.59359 7.01977 1.48865H2.52126C4.91113 4.48849 1.66505 6.72837 1.50006 6.82212Z" fill="#83D3F7"/>
<path d="M13.3444 10.9744C13.1882 10.6906 13.3869 10.4019 13.7269 10.0444C14.2656 9.47695 14.8518 8.16076 14.3069 6.82459C14.3106 6.81709 14.1994 6.5921 14.2031 6.5846L13.9794 6.57335C13.9081 6.56335 11.447 6.55835 8.9834 6.55835C6.51978 6.55835 4.05866 6.56335 3.98742 6.57335C3.98742 6.57335 3.65618 6.81709 3.65868 6.82459C3.11496 8.16076 3.69993 9.4757 4.23865 10.0444C4.57738 10.4019 4.77612 10.6906 4.62113 10.9744C4.46989 11.2506 4.01991 11.2906 4.01991 11.2906C4.01991 11.2906 4.12366 11.5731 4.37365 11.7256C4.60488 11.8668 4.88987 11.8993 5.08611 11.9043C5.08611 11.9043 5.85482 12.968 7.86471 12.968H8.9834H10.1021C12.112 12.968 12.8807 11.9043 12.8807 11.9043C13.0769 11.8993 13.3619 11.8668 13.5932 11.7256C13.8431 11.5731 13.9469 11.2906 13.9469 11.2906C13.9469 11.2906 13.4957 11.2506 13.3444 10.9744Z" fill="#543930"/>
<path d="M8.9809 12.9667V11.7868L12.552 11.5043L12.8769 11.9043C12.8769 11.9043 12.1082 12.9679 10.0983 12.9679L8.9809 12.9667Z" fill="url(#paint0_radial_746_680)"/>
<path d="M12.8694 11.388C12.3345 10.5756 13.5207 10.2719 13.5207 10.2719L13.5219 10.2731C13.3157 10.5293 13.2219 10.7531 13.3432 10.9743C13.4944 11.2505 13.9444 11.2905 13.9444 11.2905C13.9444 11.2905 13.3319 11.8355 12.8694 11.388Z" fill="url(#paint1_radial_746_680)"/>
<path d="M14.3106 6.82453C14.8418 8.11821 14.2831 9.45064 13.7594 10.0131C13.6881 10.0906 13.3832 10.3893 13.3132 10.6281C13.3132 10.6281 12.1207 8.96442 11.7645 7.98697C11.6932 7.78948 11.627 7.58699 11.6182 7.377C11.612 7.21951 11.6357 7.03202 11.727 6.89828C11.8382 6.73454 14.2469 6.68579 14.2469 6.68579C14.2469 6.68829 14.3106 6.82453 14.3106 6.82453Z" fill="url(#paint2_radial_746_680)"/>
<path d="M3.65868 6.82453C3.12745 8.11821 3.68618 9.45064 4.2099 10.0131C4.28239 10.0906 4.58613 10.3893 4.65612 10.6281C4.65612 10.6281 5.84856 8.96442 6.20479 7.98697C6.27729 7.78948 6.34229 7.58699 6.35103 7.377C6.35728 7.21951 6.33354 7.03202 6.24229 6.89828C6.13105 6.73454 6.00105 6.77829 5.81231 6.77829C5.45233 6.77829 3.87617 6.68579 3.75367 6.68579C3.75492 6.68829 3.65868 6.82453 3.65868 6.82453Z" fill="url(#paint3_radial_746_680)"/>
<path d="M8.98714 12.9667V11.7868L5.41608 11.5043L5.09109 11.9043C5.09109 11.9043 5.8598 12.9679 7.8697 12.9679L8.98714 12.9667Z" fill="url(#paint4_radial_746_680)"/>
<path d="M5.09859 11.388C5.63357 10.5756 4.44738 10.2719 4.44738 10.2719L4.44613 10.2731C4.65237 10.5293 4.74611 10.7531 4.62487 10.9743C4.47363 11.2505 4.02365 11.2905 4.02365 11.2905C4.02365 11.2905 4.63612 11.8355 5.09859 11.388Z" fill="url(#paint5_radial_746_680)"/>
<path d="M9.01591 12.988C9.01091 12.988 9.00466 12.988 8.99966 12.988C5.81358 12.9918 2.5 13.898 2.5 16.1204V16.4879H2.62499H2.74999H15.2493H15.3743H15.4993V16.1204C15.4993 14.0267 12.217 12.988 9.01591 12.988Z" fill="url(#paint6_radial_746_680)"/>
<path d="M9.00467 12.968C5.30112 12.968 6.30856 15.4116 6.93353 16.4891H11.2233C11.802 15.4116 12.707 12.968 9.00467 12.968Z" fill="url(#paint7_linear_746_680)"/>
<path d="M7.25474 13.9879C7.49473 13.1917 8.9259 13.1705 8.81841 13.193C8.88465 13.1842 9.08214 13.1842 9.14839 13.193C9.04215 13.1692 10.4721 13.1917 10.7121 13.9879C10.952 14.7817 10.4421 15.6904 9.9996 16.4878H11.7395C12.2482 15.3716 12.6757 13.9654 12.202 13.2905C11.642 12.4918 10.7846 12.2068 8.9984 12.2068C7.21224 12.2068 6.32479 12.4918 5.76357 13.2905C5.28984 13.9654 5.71732 15.3729 6.22605 16.4878H7.96595C7.52473 15.6916 7.016 14.7817 7.25474 13.9879Z" fill="#ECEFF1"/>
<path d="M12.1695 16.4791H11.7595C12.2495 15.4041 12.6645 14.0592 12.2707 13.3593C12.4257 13.398 12.5782 13.4405 12.7257 13.4867C12.967 14.3267 12.592 15.5191 12.1695 16.4791Z" fill="url(#paint8_radial_746_680)"/>
<path d="M5.79856 16.4791H6.20854C5.71857 15.4041 5.30359 14.0592 5.69732 13.3593C5.54233 13.398 5.38983 13.4405 5.24234 13.4867C5.0011 14.3267 5.37608 15.5191 5.79856 16.4791Z" fill="url(#paint9_radial_746_680)"/>
<path d="M7.86475 12.248V13.4955C7.86475 14.0592 8.32722 14.5167 8.89719 14.5167H9.10343C9.6734 14.5167 10.1359 14.0592 10.1359 13.4955V12.248H7.86475Z" fill="url(#paint10_linear_746_680)"/>
<path d="M7.8672 14.0904C7.83345 13.9704 7.81971 13.8491 7.81096 13.7292L7.78221 13.3679C7.76471 13.1267 7.74971 12.8867 7.74096 12.6455C7.73846 12.5767 7.79221 12.518 7.8622 12.5155C7.9322 12.513 7.9897 12.5667 7.99095 12.6355C7.99095 12.638 7.99095 12.6417 7.99095 12.6442C7.9822 12.8854 7.9672 13.1254 7.9497 13.3667L7.92095 13.7279C7.9147 13.8491 7.90095 13.9691 7.8672 14.0904Z" fill="#EDA600"/>
<path d="M10.1321 14.0904C10.0983 13.9704 10.0846 13.8491 10.0758 13.7292L10.0471 13.3679C10.0296 13.1267 10.0146 12.8867 10.0071 12.6455C10.0046 12.5767 10.0584 12.518 10.1271 12.5155C10.1958 12.513 10.2546 12.5667 10.2571 12.6355C10.2571 12.638 10.2571 12.6417 10.2571 12.6442C10.2483 12.8854 10.2333 13.1254 10.2171 13.3667L10.1883 13.7279C10.1796 13.8491 10.1671 13.9691 10.1321 14.0904Z" fill="#EDA600"/>
<path d="M12.3982 7.30322H5.56732C4.83111 7.30322 4.22864 7.94569 4.22864 8.7294C4.22864 9.51311 4.83111 10.1556 5.56732 10.1556H12.3982C13.1344 10.1556 13.7369 9.51311 13.7369 8.7294C13.7369 7.94569 13.1344 7.30322 12.3982 7.30322Z" fill="#E59600"/>
<path d="M8.98342 2.38354C6.80853 2.38354 4.79364 4.70967 4.79364 8.05825C4.79364 11.3881 6.86978 13.0342 8.98342 13.0342C11.0971 13.0342 13.1732 11.3868 13.1732 8.057C13.1732 4.70967 11.1583 2.38354 8.98342 2.38354Z" fill="#FFCA28"/>
<path d="M10.0359 10.5169C9.6384 10.7531 8.33222 10.7531 7.93474 10.5169C7.706 10.3807 7.47226 10.5894 7.56726 10.7969C7.661 11.0006 8.37221 11.4744 8.98843 11.4744C9.60465 11.4744 10.3071 11.0006 10.4009 10.7969C10.4946 10.5894 10.2634 10.3807 10.0359 10.5169Z" fill="#795548"/>
<path d="M9.46463 9.50695C9.45088 9.50195 9.43838 9.4982 9.42463 9.49695H8.53968C8.52593 9.4982 8.51218 9.50195 8.49968 9.50695C8.41968 9.53945 8.37594 9.62194 8.41344 9.71069C8.45093 9.79943 8.62717 10.0469 8.98216 10.0469C9.33714 10.0469 9.51338 9.79818 9.55088 9.71069C9.58962 9.62194 9.54588 9.53945 9.46463 9.50695Z" fill="#E59600"/>
<path d="M6.93727 8.53694C6.67978 8.53694 6.44979 8.47445 6.2898 8.3757C6.22106 8.3332 6.18106 8.3582 6.19356 8.4382C6.23981 8.74818 6.55604 8.98817 6.93727 8.98817C7.31975 8.98817 7.63473 8.74818 7.68098 8.4382C7.69348 8.3582 7.65348 8.3332 7.58473 8.3757C7.42474 8.47445 7.19476 8.53694 6.93727 8.53694Z" fill="#404040"/>
<path d="M11.0133 8.53694C10.7558 8.53694 10.5258 8.47445 10.3658 8.3757C10.2971 8.3332 10.2571 8.3582 10.2696 8.4382C10.3171 8.74818 10.6321 8.98817 11.0133 8.98817C11.3945 8.98817 11.7108 8.74818 11.757 8.4382C11.7695 8.3582 11.7295 8.3332 11.6608 8.3757C11.5008 8.47445 11.2708 8.53694 11.0133 8.53694Z" fill="#404040"/>
<path d="M7.85598 7.35206C7.73973 7.19832 7.47225 6.97583 6.95227 6.97583C6.4323 6.97583 6.16357 7.19957 6.04857 7.35206C5.99732 7.41956 6.00982 7.4983 6.04607 7.5458C6.07857 7.58955 6.17606 7.6308 6.28356 7.59455C6.39105 7.5583 6.60104 7.44956 6.95227 7.44706C7.3035 7.44956 7.51349 7.5583 7.62099 7.59455C7.72848 7.6308 7.82598 7.5908 7.85848 7.5458C7.89472 7.4983 7.90722 7.41956 7.85598 7.35206Z" fill="#6D4C41"/>
<path d="M11.9183 7.35206C11.802 7.19832 11.5345 6.97583 11.0146 6.97583C10.4946 6.97583 10.2259 7.19957 10.1109 7.35206C10.0596 7.41956 10.0721 7.4983 10.1084 7.5458C10.1409 7.58955 10.2384 7.6308 10.3458 7.59455C10.4533 7.5583 10.6633 7.44956 11.0146 7.44706C11.3658 7.44956 11.5758 7.5583 11.6833 7.59455C11.7908 7.6308 11.8883 7.5908 11.9208 7.5458C11.9558 7.4983 11.9683 7.41956 11.9183 7.35206Z" fill="#6D4C41"/>
<path d="M13.9919 4.13221C13.6869 3.67098 13.0032 3.05226 12.3895 3.01102C12.2907 2.42105 11.6595 1.92107 11.0483 1.72733C9.39462 1.20361 8.31843 1.79108 7.73971 2.10731C7.61972 2.17231 6.84351 2.60354 6.30104 2.2948C5.96105 2.10106 5.9673 1.57734 5.9673 1.57734C5.9673 1.57734 4.90236 1.98357 5.26609 3.11476C4.89986 3.12976 4.41989 3.28475 4.16615 3.79847C3.86366 4.41094 3.97116 4.92216 4.05865 5.16715C3.74367 5.43464 3.34744 6.00336 3.61868 6.74207C3.82367 7.29829 4.63987 7.55452 4.63987 7.55452C4.58238 8.55572 4.76862 9.17194 4.86736 9.42193C4.88486 9.46567 4.94611 9.46192 4.95736 9.41693C5.0811 8.9207 5.50233 7.19204 5.46108 6.89081C5.46108 6.89081 6.87976 6.60958 8.23218 5.61338C8.50717 5.41089 8.8059 5.2384 9.12339 5.11215C10.822 4.43594 11.177 5.58963 11.177 5.58963C11.177 5.58963 12.3545 5.36339 12.7094 6.9983C12.8432 7.61077 12.9332 8.59197 13.0094 9.27818C13.0144 9.32693 13.0807 9.33693 13.0994 9.29193C13.2182 9.01945 13.4557 8.47948 13.5119 7.92826C13.5319 7.73452 14.0544 7.47828 14.2794 6.64582C14.5818 5.53338 14.2119 4.46594 13.9919 4.13221Z" fill="#543930"/>
<path d="M13.5094 7.93207C13.5294 7.73834 14.0519 7.4821 14.2769 6.64964C14.3007 6.5609 14.3206 6.4709 14.3394 6.38091C14.5219 5.36971 14.1944 4.44101 13.9907 4.13353C13.7082 3.7073 13.1032 3.14733 12.5295 3.03233C12.4795 3.02608 12.4307 3.01983 12.3845 3.01733C12.3845 3.01733 12.4257 3.28607 12.317 3.49981C12.177 3.77729 11.8908 3.84354 11.8908 3.84354C13.3882 5.33971 13.2807 6.59215 13.5094 7.93207Z" fill="url(#paint11_radial_746_680)"/>
<path d="M8.10221 1.91857C7.96472 1.98481 7.84472 2.05106 7.73973 2.10731C7.61974 2.1723 6.84353 2.60353 6.30106 2.2948C5.96732 2.10481 5.96732 1.59733 5.96732 1.57983C5.81358 1.77607 5.34861 3.17725 6.70853 3.27099C7.29475 3.31099 7.65598 2.79977 7.87097 2.36729C7.94722 2.20855 8.06971 1.97981 8.10221 1.91857Z" fill="url(#paint12_radial_746_680)"/>
<path d="M10.8771 1.67737C11.792 1.92486 12.2382 2.39108 12.387 3.0123C12.4307 3.19479 12.4832 4.8972 9.2334 2.9623C8.02471 2.24234 8.3547 1.79236 8.49594 1.74112C9.04966 1.54113 9.85212 1.39989 10.8771 1.67737Z" fill="url(#paint13_radial_746_680)"/>
<path d="M5.96358 1.57864C5.96233 1.57989 5.95983 1.57989 5.95608 1.58239C5.95608 1.58239 5.95608 1.58239 5.95483 1.58239C5.83858 1.63114 4.92488 2.05487 5.26611 3.11481L6.23856 3.27105C5.37736 2.3986 5.96733 1.57739 5.96733 1.57739C5.96733 1.57739 5.96483 1.57739 5.96358 1.57864Z" fill="url(#paint14_radial_746_680)"/>
<path d="M5.86733 3.21099L5.26611 3.11475C5.24236 3.11475 5.16237 3.12225 5.11862 3.1285C4.77989 3.17599 4.38116 3.35098 4.16492 3.79846C3.93243 4.28093 3.93868 4.69466 4.00243 4.9709C4.02118 5.06339 4.05868 5.16839 4.05868 5.16839C4.05868 5.16839 4.35616 4.8859 5.06487 4.86715L5.86733 3.21099Z" fill="url(#paint15_radial_746_680)"/>
<path d="M4.02991 5.19095C3.73368 5.45344 3.33495 6.03965 3.62868 6.76712C3.84992 7.31584 4.63988 7.55332 4.63988 7.55332C4.63988 7.55582 4.79737 7.60332 4.87862 7.60332L5.06361 4.86597C4.68488 4.86597 4.32115 4.97971 4.08616 5.14345C4.08866 5.1472 4.02866 5.1872 4.02991 5.19095Z" fill="url(#paint16_radial_746_680)"/>
<path opacity="0.45" d="M7.00477 8.58196C6.25481 7.95699 4.98113 7.61076 4.39491 7.86074C4.13117 7.97324 4.00743 8.18073 4.26242 8.60446C4.75489 9.42441 5.4886 10.2844 4.69239 11.2218C3.62995 12.5042 2.17753 12.2693 1.50006 14.0379V16.4878H4.82864C4.98488 13.0505 7.86473 13.4954 8.01597 11.1393C8.10221 9.80314 7.62974 9.08193 7.00477 8.58196Z" fill="white"/>
<path opacity="0.35" d="M16.4993 6.34965C14.4631 3.32231 11.2483 3.79978 11.5883 4.26476C11.8583 4.63474 12.6507 5.23845 13.1344 6.24965C13.4569 6.92337 13.7019 7.74207 13.3932 8.42204C12.462 10.4669 10.7121 10.8419 9.79587 11.6544C9.1759 12.2031 7.99472 13.4868 8.42094 16.4879H11.1183C11.1183 16.4879 11.397 14.8554 14.3044 13.8168C15.9843 13.218 16.4993 11.9144 16.4993 11.9144V6.34965Z" fill="white"/>
<defs>
<radialGradient id="paint0_radial_746_680" cx="0" cy="0" r="1" gradientUnits="userSpaceOnUse" gradientTransform="translate(10.8056 11.2621) scale(2.92722 1.43785)">
<stop offset="0.7275" stop-color="#6D4C41" stop-opacity="0"/>
<stop offset="1" stop-color="#6D4C41"/>
</radialGradient>
<radialGradient id="paint1_radial_746_680" cx="0" cy="0" r="1" gradientUnits="userSpaceOnUse" gradientTransform="translate(13.689 10.8266) rotate(154.924) scale(0.865023 0.641724)">
<stop offset="0.6628" stop-color="#6D4C41"/>
<stop offset="1" stop-color="#6D4C41" stop-opacity="0"/>
</radialGradient>
<radialGradient id="paint2_radial_746_680" cx="0" cy="0" r="1" gradientUnits="userSpaceOnUse" gradientTransform="translate(11.4471 8.37994) rotate(-94.2783) scale(3.79965 3.16676)">
<stop offset="0.7247" stop-color="#6D4C41" stop-opacity="0"/>
<stop offset="1" stop-color="#6D4C41"/>
</radialGradient>
<radialGradient id="paint3_radial_746_680" cx="0" cy="0" r="1" gradientUnits="userSpaceOnUse" gradientTransform="translate(6.52153 8.37987) rotate(-85.7217) scale(3.79965 3.16676)">
<stop offset="0.7247" stop-color="#6D4C41" stop-opacity="0"/>
<stop offset="1" stop-color="#6D4C41"/>
</radialGradient>
<radialGradient id="paint4_radial_746_680" cx="0" cy="0" r="1" gradientUnits="userSpaceOnUse" gradientTransform="translate(7.16284 11.2621) rotate(180) scale(2.92722 1.43785)">
<stop offset="0.7275" stop-color="#6D4C41" stop-opacity="0"/>
<stop offset="1" stop-color="#6D4C41"/>
</radialGradient>
<radialGradient id="paint5_radial_746_680" cx="0" cy="0" r="1" gradientUnits="userSpaceOnUse" gradientTransform="translate(4.27974 10.8267) rotate(25.0761) scale(0.865023 0.641724)">
<stop offset="0.6628" stop-color="#6D4C41"/>
<stop offset="1" stop-color="#6D4C41" stop-opacity="0"/>
</radialGradient>
<radialGradient id="paint6_radial_746_680" cx="0" cy="0" r="1" gradientUnits="userSpaceOnUse" gradientTransform="translate(8.98311 16.0244) scale(6.88745 3.18751)">
<stop offset="0.8771" stop-color="#ECEFF1"/>
<stop offset="1" stop-color="#B0BEC5"/>
</radialGradient>
<linearGradient id="paint7_linear_746_680" x1="9.03994" y1="13.0537" x2="9.03994" y2="16.8477" gradientUnits="userSpaceOnUse">
<stop offset="0.5" stop-color="#FFCA28"/>
<stop offset="1" stop-color="#FFB300"/>
</linearGradient>
<radialGradient id="paint8_radial_746_680" cx="0" cy="0" r="1" gradientUnits="userSpaceOnUse" gradientTransform="translate(11.5523 14.4491) rotate(5.98082) scale(1.16298 2.45937)">
<stop offset="0.6681" stop-color="#B0BEC5"/>
<stop offset="1" stop-color="#ECEFF1" stop-opacity="0"/>
</radialGradient>
<radialGradient id="paint9_radial_746_680" cx="0" cy="0" r="1" gradientUnits="userSpaceOnUse" gradientTransform="translate(6.41183 14.4493) rotate(174.019) scale(1.16298 2.45937)">
<stop offset="0.6681" stop-color="#B0BEC5"/>
<stop offset="1" stop-color="#ECEFF1" stop-opacity="0"/>
</radialGradient>
<linearGradient id="paint10_linear_746_680" x1="8.99975" y1="14.4259" x2="8.99975" y2="12.1864" gradientUnits="userSpaceOnUse">
<stop offset="0.2423" stop-color="#FFCA28"/>
<stop offset="1" stop-color="#FFB300"/>
</linearGradient>
<radialGradient id="paint11_radial_746_680" cx="0" cy="0" r="1" gradientUnits="userSpaceOnUse" gradientTransform="translate(11.235 6.37521) rotate(72.0851) scale(4.4538 3.30461)">
<stop offset="0.6985" stop-color="#6D4C41" stop-opacity="0"/>
<stop offset="1" stop-color="#6D4C41"/>
</radialGradient>
<radialGradient id="paint12_radial_746_680" cx="0" cy="0" r="1" gradientUnits="userSpaceOnUse" gradientTransform="translate(6.89308 1.51913) rotate(28.2026) scale(1.16779 1.38465)">
<stop offset="0.58" stop-color="#6D4C41"/>
<stop offset="1" stop-color="#6D4C41" stop-opacity="0"/>
</radialGradient>
<radialGradient id="paint13_radial_746_680" cx="0" cy="0" r="1" gradientUnits="userSpaceOnUse" gradientTransform="translate(9.50297 3.63998) rotate(-157.19) scale(3.65227 2.05259)">
<stop offset="0.6985" stop-color="#6D4C41" stop-opacity="0"/>
<stop offset="1" stop-color="#6D4C41"/>
</radialGradient>
<radialGradient id="paint14_radial_746_680" cx="0" cy="0" r="1" gradientUnits="userSpaceOnUse" gradientTransform="translate(6.42412 2.58451) scale(1.07188 1.31123)">
<stop offset="0.7016" stop-color="#6D4C41" stop-opacity="0"/>
<stop offset="1" stop-color="#6D4C41"/>
</radialGradient>
<radialGradient id="paint15_radial_746_680" cx="0" cy="0" r="1" gradientUnits="userSpaceOnUse" gradientTransform="translate(6.27653 4.4765) rotate(-164.942) scale(2.01039 1.88136)">
<stop offset="0.6605" stop-color="#6D4C41" stop-opacity="0"/>
<stop offset="1" stop-color="#6D4C41"/>
</radialGradient>
<radialGradient id="paint16_radial_746_680" cx="0" cy="0" r="1" gradientUnits="userSpaceOnUse" gradientTransform="translate(5.80006 6.41753) rotate(7.83355) scale(2.11066 2.96582)">
<stop offset="0.5981" stop-color="#6D4C41" stop-opacity="0"/>
<stop offset="1" stop-color="#6D4C41"/>
</radialGradient>
</defs>
</svg>
