<svg width="18" height="18" viewBox="0 0 18 18" fill="none" xmlns="http://www.w3.org/2000/svg">
<path d="M8.23722 13.0107C7.96223 13.0107 3.57746 14.1944 3.50372 14.2194C3.40747 14.2532 3.37498 14.3769 3.53372 14.4207C3.69246 14.4644 10.9758 16.4718 11.0483 16.4718C11.1208 16.4718 15.0281 14.6557 15.0994 14.6269C15.1719 14.5982 15.0844 14.4257 14.9556 14.3819C14.8256 14.3369 8.5972 13.0107 8.23722 13.0107Z" fill="#5E6268"/>
<path d="M8.26465 15.7193L12.8794 13.9219L13.5944 14.0806L8.98586 15.8993L8.26465 15.7193Z" fill="#C8C8C8"/>
<path d="M13.0608 14.1855L15.0994 14.6255L14.6532 14.8318L12.467 14.3355L13.0608 14.1855Z" fill="#C8C8C8"/>
<path d="M12.2183 14.5081L14.2782 15.0043L13.8045 15.223L11.6846 14.7193L12.2183 14.5081Z" fill="#C8C8C8"/>
<path d="M11.0607 14.9292L13.2331 15.4854L12.7218 15.7192L10.5645 15.1467L11.0607 14.9292Z" fill="#C8C8C8"/>
<path d="M9.38452 15.628L11.6244 16.2217L12.2481 15.9367L10.0007 15.3955L9.38452 15.628Z" fill="#C8C8C8"/>
<path d="M8.00602 13.7356C7.65478 13.6544 7.4148 13.5981 7.4148 13.5981L6.52734 13.7931L7.23106 13.9694C7.48604 13.8919 7.76728 13.8069 8.00602 13.7356Z" fill="#C8C8C8"/>
<path d="M9.43332 14.0643C9.18708 14.0081 8.93085 13.9493 8.68711 13.8931L7.95215 14.1506L8.69836 14.3368L9.43332 14.0643Z" fill="#C8C8C8"/>
<path d="M10.0769 14.2104L9.3457 14.4992L9.98567 14.6592L10.7669 14.3579C10.6931 14.3467 10.4269 14.2879 10.0769 14.2104Z" fill="#C8C8C8"/>
<path d="M3.94998 6.94102C3.94373 7.00227 5.14991 9.2834 5.17366 9.2759C5.19741 9.2684 6.05736 9.12215 6.05736 9.12215L6.58484 8.53094C6.58484 8.53094 4.55744 6.56104 4.4937 6.56104C4.42745 6.55979 3.95747 6.85977 3.94998 6.94102Z" fill="#014EAC"/>
<path d="M13.4231 7.36726C13.4231 7.36726 14.1955 7.32351 14.7367 7.27977C15.3492 7.22977 15.9704 7.09228 15.9704 7.09228C15.9704 7.09228 15.9629 6.81479 15.9854 6.76479C16.0242 6.6773 16.2004 6.5498 16.2442 6.5498C16.2879 6.5498 16.5142 6.80729 16.6229 7.00978C16.7566 7.25727 16.6541 7.44476 16.3754 7.576C15.8442 7.82599 14.6893 8.20472 12.6744 8.43471C9.60327 8.78594 13.4231 7.36726 13.4231 7.36726Z" fill="#006CA8"/>
<path d="M7.391 9.32341L5.20361 10.1271C5.20361 10.1271 7.3035 10.3359 8.15221 10.1271C8.64593 10.0059 10.2346 9.44465 12.5707 8.13597C14.8719 6.84604 15.7006 5.92108 15.8506 5.73609C16.0343 5.51111 16.1105 5.26862 15.9868 5.12863C15.8768 5.00488 15.5606 5.00488 15.5606 5.00488L7.391 9.32341Z" fill="#B0B0B0"/>
<path d="M4.69873 9.58708C4.69873 9.58708 4.89497 9.39584 5.12246 9.2246C5.68368 8.80212 6.11616 8.61463 6.11616 8.61463L7.48108 7.71593C7.48108 7.71593 13.077 4.86983 13.4158 4.72234C13.7545 4.57485 14.0845 4.4486 14.4682 4.48985C14.8307 4.5286 14.9944 4.70484 14.9944 4.70484L15.2244 4.95608C15.2244 4.95608 15.4769 4.93608 15.7531 5.01107C15.9319 5.05857 15.9881 5.12982 15.9881 5.12982C15.9881 5.12982 13.9507 6.70348 12.3771 7.63093C10.8034 8.55839 8.17605 10.0221 7.06486 10.1346C5.95366 10.247 4.76998 10.0746 4.76998 10.0746L4.69873 9.58708Z" fill="#C8C8C8"/>
<path d="M2.39257 9.90202C2.40257 10.082 2.50631 10.082 3.12003 10.082C3.75375 10.082 4.99118 10.1008 5.08493 10.1008C5.17992 10.1008 5.5574 9.94952 5.57615 9.67579C5.5899 9.47705 5.53865 9.3833 5.40616 9.3833C5.27367 9.3833 5.08493 9.4783 4.88619 9.51579C4.68745 9.55329 3.03379 9.69578 2.8263 9.71453C2.62006 9.73078 2.38382 9.73078 2.39257 9.90202Z" fill="#006CA8"/>
<path d="M6.5985 8.97583C6.50725 9.00708 6.45476 9.10333 6.4735 9.23457C6.49225 9.36581 6.591 9.39081 6.66224 9.38706C6.73224 9.38331 6.80849 9.27582 6.79599 9.12582C6.78724 9.01583 6.69099 8.94333 6.5985 8.97583Z" fill="#3B5361"/>
<path d="M12.9006 8.54958C12.9006 8.54958 13.2056 8.22335 13.5018 7.96211C13.7993 7.70087 14.213 7.41339 14.3368 7.40589C14.5918 7.38964 14.9818 7.51713 15.0968 7.95836C15.2117 8.39959 14.9443 8.63582 14.8305 8.71332C14.6705 8.82206 13.9068 9.35954 13.4143 9.25079C12.7794 9.1133 12.9006 8.54958 12.9006 8.54958Z" fill="#9A9A9A"/>
<path d="M14.3418 7.60093C14.2105 7.65968 14.1093 7.87592 14.2843 8.21715C14.458 8.55838 14.6792 8.59338 14.8055 8.50714C14.943 8.41339 14.9305 8.10341 14.8342 7.89842C14.7267 7.66593 14.4867 7.53594 14.3418 7.60093Z" fill="#5E6269"/>
<path d="M9.7508 7.24354C9.60831 7.28604 9.60706 7.46353 9.62081 7.52478C9.6583 7.70227 9.91829 7.67602 9.91829 7.67602C9.91829 7.67602 10.0033 7.52478 9.95704 7.38479C9.93329 7.31104 9.87204 7.2073 9.7508 7.24354Z" fill="#3B5361"/>
<path d="M1.55247 7.3597C1.41122 7.37095 1.39247 8.10591 1.40122 8.2859C1.41122 8.46589 1.51497 8.59713 1.85495 8.63588C2.19493 8.67463 7.41966 8.81587 7.99588 8.81587C8.5721 8.81587 9.98952 8.53214 9.98952 8.53214C9.98952 8.53214 10.707 8.13591 10.9245 7.99342C11.142 7.85217 11.6019 7.60219 11.3357 7.4072C11.2332 7.3322 9.17581 7.59719 6.90968 7.77593C4.52106 7.96342 3.29112 8.10716 2.05369 8.05966C2.05244 8.05966 1.66496 7.35095 1.55247 7.3597Z" fill="#006CA8"/>
<path d="M7.92083 9.22457C8.15457 9.65455 8.72579 9.59455 9.08077 9.42706C9.43575 9.26082 9.91198 9.03583 9.96448 8.99208C10.017 8.94833 10.1745 8.49961 9.89948 8.03588C9.62449 7.57216 9.26451 7.57466 9.16077 7.58716C9.05577 7.59966 8.47455 7.98838 8.24082 8.18087C7.98583 8.39086 7.6896 8.79709 7.92083 9.22457Z" fill="#9A9A9A"/>
<path d="M9.17349 7.79097C8.981 7.84971 9.00599 8.28594 9.17349 8.55968C9.34723 8.84216 9.56471 8.97965 9.73096 8.90091C9.8972 8.82091 9.87595 8.50343 9.73096 8.19844C9.57846 7.87721 9.33973 7.73972 9.17349 7.79097Z" fill="#5E6269"/>
<path d="M10.5457 6.83966C10.4395 6.86841 10.3982 6.99215 10.417 7.1159C10.4357 7.23964 10.5307 7.29589 10.617 7.26839C10.702 7.23964 10.7595 7.16839 10.7495 7.0259C10.7407 6.88841 10.6695 6.80716 10.5457 6.83966Z" fill="#3B5361"/>
<path d="M11.3384 6.4109C11.1984 6.4584 11.1921 6.57839 11.2021 6.66964C11.2171 6.79963 11.3159 6.86463 11.4109 6.84088C11.5058 6.81713 11.5483 6.69464 11.5283 6.58089C11.5096 6.46715 11.4433 6.3759 11.3384 6.4109Z" fill="#3B5361"/>
<path d="M12.1319 6.00358C12.0294 6.03357 11.9769 6.13107 11.9907 6.27356C12.0019 6.39605 12.0869 6.5123 12.1894 6.46855C12.2944 6.4223 12.3419 6.33481 12.3194 6.17107C12.3019 6.05607 12.2407 5.97108 12.1319 6.00358Z" fill="#3B5361"/>
<path d="M12.8981 5.63725C12.7756 5.6835 12.7456 5.77475 12.7456 5.88474C12.7456 6.02348 12.8444 6.12098 12.9518 6.09098C13.0856 6.05348 13.1143 5.89599 13.1043 5.81599C13.0881 5.70225 13.0081 5.596 12.8981 5.63725Z" fill="#3B5361"/>
<path d="M13.0758 5.08115C12.977 5.1274 9.03598 7.23104 8.93848 7.28728C8.84099 7.34353 8.82849 7.40603 8.86349 7.46602C8.89849 7.52602 9.02848 7.47352 9.10223 7.43853C9.17597 7.40353 13.1308 5.32739 13.187 5.29364C13.242 5.25989 13.3183 5.18739 13.2708 5.09365C13.2395 5.0299 13.147 5.04865 13.0758 5.08115Z" fill="#E0E0DF"/>
<path d="M13.4557 4.87849C13.3895 4.91599 13.3295 4.97598 13.3632 5.04723C13.397 5.11848 13.4845 5.11348 13.5557 5.07598C13.627 5.03973 13.6769 4.98098 13.6507 4.90974C13.6245 4.83849 13.527 4.83849 13.4557 4.87849Z" fill="#E0E0DF"/>
<path d="M15.0042 4.70731C15.0042 4.70731 14.7705 4.69856 14.3718 4.9448C13.973 5.19104 13.8493 5.47227 13.958 5.55102C14.078 5.63726 14.3105 5.38353 14.6567 5.20604C14.9405 5.0598 15.2217 4.9523 15.2217 4.9523L15.0042 4.70731Z" fill="#3B5361"/>
</svg>
