<svg width="18" height="18" viewBox="0 0 18 18" fill="none" xmlns="http://www.w3.org/2000/svg">
<path d="M3.84121 13.4407C3.54747 13.4432 3.27499 13.5919 3.11375 13.8369L1.60383 16.1343H1.61508C1.48008 16.1368 1.37134 16.2455 1.37134 16.3818V16.3843C1.37134 16.4355 1.41259 16.4768 1.46383 16.4768H3.71246C3.76371 16.4768 3.80496 16.4355 3.80496 16.3843V16.3818C3.80496 16.2618 3.71996 16.1618 3.60747 16.1393L3.83871 14.7119L3.84121 13.4407Z" fill="#F44336"/>
<path d="M16.233 11.6796L15.493 11.9658H3.8374V14.7119H5.14483V15.7069H7.05473V14.7119H16.233V11.6796Z" fill="#424242"/>
<path d="M7.79987 13.3057H7.43238C7.41989 13.0208 7.38489 12.867 7.33989 12.777C7.29989 12.6995 7.2274 12.6395 7.1399 12.6395C7.0674 12.6395 5.07251 13.5182 5.07251 13.5182C5.07251 14.0032 5.16125 14.3969 5.27125 14.3969C5.27125 14.3969 6.89616 14.3969 7.0949 14.3969C7.37114 14.3969 7.43114 14.1157 7.43738 13.6845H7.73237L10.191 14.7232L10.9809 14.7282L7.79987 13.3057Z" fill="#212121"/>
<path d="M7.25362 15.0194C7.5236 15.0194 7.74359 15.2394 7.74359 15.5094C7.74359 15.7793 7.5236 15.9993 7.25362 15.9993C6.98363 15.9993 6.76365 15.7793 6.76365 15.5094C6.76365 15.2394 6.98363 15.0194 7.25362 15.0194ZM7.25362 14.5194C6.7074 14.5194 6.26367 14.9631 6.26367 15.5094C6.26367 16.0556 6.7074 16.4993 7.25362 16.4993C7.79984 16.4993 8.24357 16.0556 8.24357 15.5094C8.24357 14.9631 7.79984 14.5194 7.25362 14.5194Z" fill="#546E7A"/>
<path d="M7.25362 16.0818C7.56979 16.0818 7.82609 15.8255 7.82609 15.5094C7.82609 15.1932 7.56979 14.9369 7.25362 14.9369C6.93746 14.9369 6.68115 15.1932 6.68115 15.5094C6.68115 15.8255 6.93746 16.0818 7.25362 16.0818Z" fill="#F44336"/>
<path d="M4.94625 15.0194C5.21623 15.0194 5.43622 15.2394 5.43622 15.5094C5.43622 15.7793 5.21623 15.9993 4.94625 15.9993C4.67626 15.9993 4.45627 15.7793 4.45627 15.5094C4.45627 15.2394 4.67626 15.0194 4.94625 15.0194ZM4.94625 14.5194C4.40003 14.5194 3.9563 14.9631 3.9563 15.5094C3.9563 16.0556 4.40003 16.4993 4.94625 16.4993C5.49247 16.4993 5.93619 16.0556 5.93619 15.5094C5.93619 14.9631 5.49372 14.5194 4.94625 14.5194Z" fill="#546E7A"/>
<path d="M4.94625 16.0818C5.26242 16.0818 5.51872 15.8255 5.51872 15.5094C5.51872 15.1932 5.26242 14.9369 4.94625 14.9369C4.63008 14.9369 4.37378 15.1932 4.37378 15.5094C4.37378 15.8255 4.63008 16.0818 4.94625 16.0818Z" fill="#F44336"/>
<path d="M3.40745 14.0881H3.27371L2.08252 16.1343H2.37L3.40745 14.0881Z" fill="#424242"/>
<path d="M3.70374 14.0844H3.57249L2.87378 16.1342H3.14127L3.70374 14.0844Z" fill="#424242"/>
<path d="M14.4455 13.2994C15.048 13.2994 15.5842 13.6819 15.7805 14.2519C15.903 14.6081 15.8805 14.9918 15.7155 15.3306C15.5505 15.6693 15.263 15.9243 14.9068 16.048C14.7568 16.0993 14.6018 16.1255 14.4455 16.1255C13.8431 16.1255 13.3069 15.743 13.1106 15.1731C12.9881 14.8168 13.0106 14.4331 13.1756 14.0944C13.3406 13.7556 13.6281 13.5007 13.9843 13.3769C14.1343 13.3244 14.2893 13.2994 14.4455 13.2994ZM14.4455 12.9244C14.2518 12.9244 14.0556 12.9557 13.8618 13.0232C12.9294 13.3457 12.4332 14.3631 12.7556 15.2956C13.0106 16.0355 13.7043 16.5005 14.4455 16.5005C14.6393 16.5005 14.8355 16.4693 15.0293 16.4018C15.9617 16.0793 16.4579 15.0618 16.1355 14.1294C15.8792 13.3882 15.1868 12.9244 14.4455 12.9244Z" fill="#546E7A"/>
<path d="M14.4458 13.5232C14.952 13.5232 15.4032 13.8457 15.5695 14.3244C15.6732 14.6244 15.6532 14.9469 15.5145 15.2318C15.3757 15.5168 15.1332 15.7318 14.8332 15.8356C14.707 15.8793 14.577 15.9006 14.4458 15.9006C13.9395 15.9006 13.4883 15.5781 13.3221 15.0993C13.2183 14.7994 13.2383 14.4769 13.3771 14.1919C13.5158 13.9069 13.7583 13.6919 14.0583 13.5882C14.1833 13.5444 14.3145 13.5232 14.4458 13.5232ZM14.4458 13.2732C14.2895 13.2732 14.132 13.2982 13.9758 13.3519C13.2246 13.6107 12.8259 14.4294 13.0858 15.1806C13.2908 15.7756 13.8483 16.1505 14.4458 16.1505C14.602 16.1505 14.7595 16.1255 14.9157 16.0718C15.667 15.8131 16.0657 14.9944 15.8057 14.2431C15.5995 13.6469 15.042 13.2732 14.4458 13.2732Z" fill="#F44336"/>
<path fill-rule="evenodd" clip-rule="evenodd" d="M13.1846 14.5244H15.7057V14.8994H13.1846V14.5244Z" fill="#F44336"/>
<path fill-rule="evenodd" clip-rule="evenodd" d="M14.9133 15.8968L13.6521 13.7132L13.9768 13.5256L15.238 15.7093L14.9133 15.8968Z" fill="#F44336"/>
<path fill-rule="evenodd" clip-rule="evenodd" d="M15.238 13.7132L13.9768 15.8968L13.6521 15.7093L14.9133 13.5256L15.238 13.7132Z" fill="#F44336"/>
<path d="M10.5596 13.2994C11.162 13.2994 11.6983 13.6819 11.8945 14.2519C12.017 14.6081 11.9945 14.9918 11.8295 15.3306C11.6645 15.6693 11.377 15.9243 11.0208 16.048C10.8708 16.0993 10.7158 16.1255 10.5596 16.1255C9.9571 16.1255 9.42087 15.743 9.22463 15.1731C9.10214 14.8168 9.12464 14.4331 9.28963 14.0944C9.45462 13.7556 9.74211 13.5007 10.0983 13.3769C10.2483 13.3244 10.4033 13.2994 10.5596 13.2994ZM10.5596 12.9244C10.3658 12.9244 10.1696 12.9557 9.97584 13.0232C9.04339 13.3457 8.54717 14.3631 8.86965 15.2956C9.12464 16.0355 9.81835 16.5005 10.5596 16.5005C10.7533 16.5005 10.9495 16.4693 11.1433 16.4018C12.0757 16.0793 12.572 15.0618 12.2495 14.1294C11.9945 13.3882 11.3008 12.9244 10.5596 12.9244Z" fill="#546E7A"/>
<path d="M10.5595 13.5232C11.0658 13.5232 11.517 13.8457 11.6832 14.3244C11.787 14.6244 11.767 14.9469 11.6282 15.2318C11.4895 15.5168 11.247 15.7318 10.947 15.8356C10.8208 15.8793 10.6908 15.9006 10.5595 15.9006C10.0533 15.9006 9.60209 15.5781 9.43585 15.0993C9.3321 14.7994 9.3521 14.4769 9.49084 14.1919C9.62959 13.9069 9.87207 13.6919 10.1721 13.5882C10.2983 13.5444 10.4283 13.5232 10.5595 13.5232ZM10.5595 13.2732C10.4033 13.2732 10.2458 13.2982 10.0896 13.3519C9.33835 13.6107 8.93962 14.4294 9.19961 15.1806C9.4046 15.7756 9.96207 16.1505 10.5595 16.1505C10.7158 16.1505 10.8733 16.1255 11.0295 16.0718C11.7807 15.8131 12.1795 14.9944 11.9195 14.2431C11.7145 13.6469 11.157 13.2732 10.5595 13.2732Z" fill="#F44336"/>
<path fill-rule="evenodd" clip-rule="evenodd" d="M9.2998 14.5244H11.8209V14.8994H9.2998V14.5244Z" fill="#F44336"/>
<path fill-rule="evenodd" clip-rule="evenodd" d="M11.0285 15.8968L9.76733 13.7132L10.092 13.5256L11.3532 15.7093L11.0285 15.8968Z" fill="#F44336"/>
<path fill-rule="evenodd" clip-rule="evenodd" d="M11.3532 13.7132L10.092 15.8968L9.76733 15.7093L11.0285 13.5256L11.3532 13.7132Z" fill="#F44336"/>
<path fill-rule="evenodd" clip-rule="evenodd" d="M5.08374 13.3057C5.08374 13.2021 5.16768 13.1182 5.27123 13.1182H8.01484C8.11838 13.1182 8.20233 13.2021 8.20233 13.3057C8.20233 13.4092 8.11838 13.4931 8.01484 13.4931H5.27123C5.16768 13.4931 5.08374 13.4092 5.08374 13.3057Z" fill="#E2A610"/>
<path fill-rule="evenodd" clip-rule="evenodd" d="M7.49067 13.1205C7.53223 13.0256 7.6428 12.9824 7.73764 13.024L11.1615 14.5244H14.892C14.9956 14.5244 15.0795 14.6083 15.0795 14.7119C15.0795 14.8154 14.9956 14.8994 14.892 14.8994H11.0829L7.58714 13.3674C7.4923 13.3259 7.4491 13.2153 7.49067 13.1205Z" fill="#E2A610"/>
<path d="M7.05976 12.5444H5.14111V14.1968H7.05976V12.5444Z" fill="#606060"/>
<path d="M7.05971 14.1968C7.16671 14.1968 7.25345 13.8269 7.25345 13.3706C7.25345 12.9143 7.16671 12.5444 7.05971 12.5444C6.95271 12.5444 6.86597 12.9143 6.86597 13.3706C6.86597 13.8269 6.95271 14.1968 7.05971 14.1968Z" fill="#606060"/>
<path d="M5.14125 14.1968C5.24825 14.1968 5.33499 13.8269 5.33499 13.3706C5.33499 12.9143 5.24825 12.5444 5.14125 12.5444C5.03425 12.5444 4.94751 12.9143 4.94751 13.3706C4.94751 13.8269 5.03425 14.1968 5.14125 14.1968Z" fill="#606060"/>
<path d="M6.95115 13.0708H5.23499C5.17 13.0708 5.125 13.012 5.13625 12.9483C5.155 12.8408 5.17374 12.762 5.23374 12.7133C5.24874 12.7008 5.26999 12.697 5.28999 12.697H6.90365C6.9299 12.697 6.9574 12.7058 6.97365 12.7258C7.0299 12.7895 7.0499 12.8545 7.05115 12.9545C7.05115 13.0233 7.01365 13.0708 6.95115 13.0708Z" fill="#78909C"/>
<path opacity="0.85" d="M6.4212 3.77497C6.69744 3.77747 6.92992 3.9912 7.19991 4.04495C8.22735 4.25119 8.47484 3.76497 8.82232 3.65872C9.1698 3.55248 9.66978 4.00495 10.5235 3.62247C10.9672 3.42373 11.1285 2.81627 10.9297 2.39004C10.8647 2.25005 10.4835 1.44884 9.13356 1.65258C9.03106 1.66758 8.93107 1.69507 8.83107 1.71882C8.12361 1.88756 7.79238 1.37259 6.4787 1.59758C4.32881 1.96506 4.38631 4.10495 4.5638 4.47743C4.5638 4.47743 5.28001 3.76247 6.4212 3.77497Z" fill="#BDBDBD"/>
<path opacity="0.65" d="M4.37863 2.11125C4.85236 1.65877 5.69481 1.55003 6.22979 1.93376C6.30853 1.99 6.38353 2.05875 6.48102 2.0825C6.57477 2.10625 6.67476 2.085 6.77101 2.07C7.13474 2.01625 7.54347 2.085 7.7872 2.34248C8.03094 2.59997 8.00969 3.0562 7.69971 3.24244C7.09849 3.60242 6.62102 3.09869 5.59482 3.44243C4.9811 3.64867 4.54862 4.19239 4.38363 4.78236C4.38363 4.78361 3.28869 3.15244 4.37863 2.11125Z" fill="#E0E0E0"/>
<path d="M6.62226 3.72375C6.62226 3.65751 6.56851 3.60376 6.50226 3.60376H3.21618C3.14994 3.60376 3.09619 3.65751 3.09619 3.72375V4.40622C3.35993 5.39242 3.99614 6.33612 4.11739 6.50986V8.95848H5.59981V6.51111C5.7173 6.34862 6.31852 5.48866 6.62101 4.40622V3.72375H6.62226Z" fill="#424242"/>
<path d="M5.98244 12.1845L3.83755 12.1833C3.83755 12.1833 3.93754 11.4008 3.93754 10.4646C3.93754 9.52839 3.8313 8.73718 3.8313 8.73718H5.92744C5.92744 8.73718 6.04493 9.23966 6.04493 10.4146C6.04493 11.5895 5.98244 12.1845 5.98244 12.1845Z" fill="#424242"/>
<path d="M4.05987 9.47844C4.08112 9.65093 4.10987 9.91841 4.11862 10.2021C4.12112 10.2959 4.19736 10.3696 4.29111 10.3696H5.64604C5.74353 10.3696 5.82228 10.2884 5.81978 10.1909C5.81103 9.78342 5.80228 9.54593 5.76978 9.41594C5.74978 9.33845 5.68104 9.28345 5.60104 9.28345H4.23111C4.12737 9.2847 4.04612 9.37594 4.05987 9.47844Z" fill="#2F7889"/>
<path d="M13.877 12.1845H9.75598L9.69849 8.73718L10.7759 8.40344L10.7484 10.3008H13.967L13.877 12.1845Z" fill="#606060"/>
<path d="M15.9468 12.1945H11.0746C10.8933 12.1945 10.7458 12.047 10.7458 11.8658V11.452H16.2743V11.8658C16.2756 12.047 16.1281 12.1945 15.9468 12.1945Z" fill="#E2A610"/>
<path d="M5.9137 12.1845H9.56351C9.64725 11.7546 9.731 11.1546 9.731 10.4696C9.731 9.08719 9.51226 8.73596 9.51226 8.73596H7.63861H5.88745C5.88745 8.73596 6.0012 9.52967 6.0012 10.4659C6.0012 11.4033 5.9137 12.1845 5.9137 12.1845Z" fill="#00796B"/>
<path d="M8.12605 9.47844C8.1423 9.65093 8.16355 9.91841 8.17105 10.2021C8.17355 10.2959 8.2323 10.3696 8.30354 10.3696H9.34349C9.41849 10.3696 9.47848 10.2884 9.47723 10.1909C9.46973 9.78342 9.43973 9.54593 9.41474 9.41594C9.39974 9.33845 9.34724 9.28345 9.28599 9.28345H8.25855C8.17855 9.2847 8.11605 9.37594 8.12605 9.47844Z" fill="#4CA854"/>
<path d="M6.201 9.47844C6.21725 9.65093 6.2385 9.91841 6.246 10.2021C6.2485 10.2959 6.30725 10.3696 6.37849 10.3696H7.41844C7.49344 10.3696 7.55343 10.2884 7.55218 10.1909C7.54468 9.78342 7.51468 9.54593 7.48969 9.41594C7.47469 9.33845 7.42219 9.28345 7.36094 9.28345H6.3335C6.2535 9.2847 6.191 9.37594 6.201 9.47844Z" fill="#4CA854"/>
<path d="M9.86727 10.4946C9.86727 9.59592 9.73228 8.73596 9.73228 8.73596H9.47729C9.47729 8.73596 9.61604 9.50717 9.61604 10.4946C9.61604 11.4908 9.50604 12.1845 9.50604 12.1845H9.75728C9.75603 12.1845 9.86727 11.4358 9.86727 10.4946Z" fill="#E2A610"/>
<path d="M8.01596 10.4946C8.01596 9.59592 7.88096 8.73596 7.88096 8.73596H7.62598C7.62598 8.73596 7.76472 9.50717 7.76472 10.4946C7.76472 11.4908 7.64973 12.1845 7.64973 12.1845H7.90096C7.90096 12.1845 8.01596 11.4358 8.01596 10.4946Z" fill="#E2A610"/>
<path d="M5.03864 6.51233H4.33618V8.73596H5.03864V6.51233Z" fill="#2F7889"/>
<path d="M10.7458 5.86731V11.4508H16.2743V5.86731H10.7458ZM15.7081 10.7458H11.3171V6.48103H15.7068V10.7458H15.7081Z" fill="#C62828"/>
<path fill-rule="evenodd" clip-rule="evenodd" d="M10.5583 11.327C10.5583 11.2235 10.6423 11.1395 10.7458 11.1395H16.2755C16.3791 11.1395 16.463 11.2235 16.463 11.327C16.463 11.4306 16.3791 11.5145 16.2755 11.5145H10.7458C10.6423 11.5145 10.5583 11.4306 10.5583 11.327Z" fill="#FFCA28"/>
<path d="M3.82623 8.73718C3.82623 8.73718 3.46875 9.26466 3.46875 10.4658C3.46875 11.667 3.83748 12.1845 3.83748 12.1845C3.83748 12.1845 3.93873 11.872 3.93873 10.6471C3.93873 9.42215 3.82623 8.73718 3.82623 8.73718Z" fill="#616161"/>
<path d="M3.89243 11.772C3.86493 12.0282 3.83618 12.1845 3.83618 12.1845L5.91232 12.1857C5.91232 12.1857 5.93357 12.0532 5.95232 11.7932C5.96607 11.6095 5.81983 11.4533 5.63484 11.4533H4.24741C4.06492 11.452 3.91118 11.5895 3.89243 11.772Z" fill="#212121"/>
<path d="M3.18384 10.1559H3.55507C3.55507 10.1559 3.60257 10.1871 3.60257 10.4609C3.60257 10.7346 3.55507 10.7659 3.55507 10.7659H3.18384V10.1559Z" fill="#424242"/>
<path d="M3.34118 10.4609C3.34118 10.7596 3.34243 11.0021 3.25743 11.0021C3.17243 11.0021 3.03369 10.7596 3.03369 10.4609C3.03369 10.1622 3.17243 9.91968 3.25743 9.91968C3.34243 9.91968 3.34118 10.1622 3.34118 10.4609Z" fill="#757575"/>
<path d="M11.0771 6.50856V10.6121C11.0771 10.7333 11.1759 10.8321 11.2984 10.8321H15.7582C15.8794 10.8321 15.9781 10.7333 15.9781 10.6121V6.50856C15.9781 6.38732 15.8794 6.28857 15.7582 6.28857H11.2971C11.1759 6.28857 11.0771 6.38732 11.0771 6.50856ZM14.5232 9.69215C14.5232 9.75714 14.4645 9.80964 14.3907 9.80964H12.6633C12.5908 9.80964 12.5308 9.75714 12.5308 9.69215V7.55601C12.6133 7.44601 12.9183 7.10478 13.527 7.10478C14.137 7.10478 14.4407 7.44601 14.5232 7.55601V9.69215Z" fill="#F44336"/>
<path fill-rule="evenodd" clip-rule="evenodd" d="M12.6557 7.59958V9.6833C12.6575 9.68399 12.66 9.68459 12.6632 9.68459H14.3907C14.3939 9.68459 14.3964 9.68408 14.3982 9.68348V7.59954C14.3005 7.48332 14.0308 7.22972 13.527 7.22972C13.0242 7.22972 12.7536 7.48341 12.6557 7.59958ZM12.4308 7.48096C12.5268 7.35294 12.8647 6.97974 13.527 6.97974C14.1906 6.97974 14.5272 7.35302 14.6231 7.48096L14.6481 7.51429V9.69209C14.6481 9.83956 14.5192 9.93458 14.3907 9.93458H12.6632C12.5368 9.93458 12.4058 9.84027 12.4058 9.69209V7.51429L12.4308 7.48096Z" fill="#C62828"/>
<path d="M16.2742 6.05605H10.7483L10.3933 5.86731H16.6292L16.2742 6.05605Z" fill="#004D40"/>
<path d="M16.6292 5.39734H10.3933V5.86731H16.6292V5.39734Z" fill="#00796B"/>
<path d="M4.6811 4.48114H3.40991V3.79993C3.40991 3.73368 3.46366 3.67993 3.52991 3.67993H4.5611C4.62735 3.67993 4.6811 3.73368 4.6811 3.79993V4.48114Z" fill="#2F7889"/>
</svg>
