<svg width="18" height="18" viewBox="0 0 18 18" fill="none" xmlns="http://www.w3.org/2000/svg">
<path d="M9.39587 2.66748C9.08214 2.16001 8.37093 1.76503 7.78221 1.86252C7.12224 1.97127 6.76851 2.44624 6.67477 3.04871C6.64102 3.26745 6.64727 3.48494 6.68477 3.63868C6.68977 3.65743 6.72601 3.79117 6.72851 3.83367C6.75351 3.99616 6.43853 4.1574 6.40228 4.33614C6.37478 4.47114 6.65602 4.55738 6.67852 4.58113C6.78851 4.70237 6.61477 5.27859 7.38598 5.33609C7.68221 5.35859 7.62472 5.33984 7.71221 5.37359C7.84845 5.42609 7.83596 5.78857 7.83596 5.78857C7.83596 5.78857 7.9122 6.38603 8.42217 6.22729C9.00464 6.0473 9.02714 5.63482 9.02714 5.63482C9.02714 5.63482 8.8109 5.05985 9.15839 4.46239C9.43462 3.98491 9.59836 2.99371 9.39587 2.66748Z" fill="#FFCA28"/>
<path d="M6.75598 4.90357C6.86347 4.90982 6.96847 4.88482 7.05971 4.81733C7.15846 4.74358 7.09096 4.66234 6.97722 4.70983C6.90847 4.73858 6.81223 4.75358 6.72473 4.73733L6.75598 4.90357Z" fill="#795548"/>
<path d="M7.21286 4.141C7.29082 4.13855 7.35096 4.03923 7.34718 3.91917C7.34339 3.79912 7.27712 3.70379 7.19916 3.70624C7.12119 3.7087 7.06105 3.80802 7.06483 3.92807C7.06862 4.04813 7.13489 4.14346 7.21286 4.141Z" fill="#404040"/>
<path d="M7.09595 3.60244C6.95595 3.63494 6.92845 3.54245 6.97845 3.47245C7.0147 3.41995 7.10095 3.37996 7.25969 3.41995C7.40968 3.45745 7.46718 3.5487 7.50592 3.60369C7.54467 3.65869 7.53592 3.71119 7.50092 3.71494C7.45343 3.71744 7.26844 3.56245 7.09595 3.60244Z" fill="#6D4C41"/>
<path d="M11.6569 14.5844L9.89827 12.5782C9.78828 12.4532 9.72328 12.2957 9.71328 12.1295L9.54079 9.32214L7.60339 9.53588L8.21336 12.432C8.31211 12.9007 8.57584 13.3182 8.95582 13.6094L11.017 15.1843L11.6569 14.5844Z" fill="#616161"/>
<path d="M9.51832 8.85962L7.32093 9.06086L6.75471 11.6095C6.65097 12.0794 6.61472 12.5632 6.64847 13.0431L6.85221 15.948H7.68591L8.05465 12.8194C8.05465 12.8194 8.68086 11.1545 8.70086 11.1445C9.20958 10.9033 9.64956 10.5295 9.62706 9.91581C9.61581 9.56333 9.55832 9.20835 9.51832 8.85962Z" fill="#7C7C7C"/>
<path d="M9.11091 10.1883H7.62349C7.33976 10.1883 7.10852 9.91583 7.10852 9.58085L7.37726 6.7685C7.43225 6.25478 7.69349 5.7573 7.95598 5.56981C8.20221 5.39357 8.55844 5.36482 8.55844 5.36482C8.74968 5.34982 9.03342 5.39607 9.21466 5.66106C9.3234 5.8198 9.40465 6.12978 9.42215 6.39602L9.62464 9.58085C9.62464 9.91708 9.39465 10.1883 9.11091 10.1883Z" fill="url(#paint0_linear_746_660)"/>
<path d="M9.34967 8.53591L9.06843 6.80725L8.19723 6.94849L8.46596 8.59716L8.01974 9.82709C7.99099 9.88334 7.58726 10.0658 7.56226 10.0783C7.48476 10.1158 7.43102 10.1896 7.39102 10.3358C7.36727 10.4258 7.30727 10.6833 7.43352 10.7283C7.39102 10.847 7.41852 10.9958 7.45102 11.0308C7.52601 11.112 7.61726 11.0758 7.61726 11.0758C7.61726 11.0758 7.62976 11.1795 7.71225 11.2083C7.81475 11.2445 7.88599 11.1883 7.88599 11.1883C7.92224 11.2158 7.96599 11.2308 8.01224 11.2308C8.06723 11.2308 8.11598 11.2095 8.15348 11.182C8.17723 11.192 8.24222 11.2308 8.32472 11.172C8.37722 11.1345 8.54221 10.9183 8.59346 10.7795C8.62845 10.6845 8.62345 10.2071 8.6672 10.1233C8.71095 10.0396 9.30967 8.84839 9.30967 8.84839H9.30842C9.36217 8.74965 9.37466 8.6384 9.34967 8.53591Z" fill="url(#paint1_linear_746_660)"/>
<path d="M8.35969 10.8371C8.33094 10.7621 8.31219 10.7571 8.25969 10.7708C8.18845 10.7896 8.11095 10.7871 8.0672 10.6996C8.05721 10.6783 8.04221 10.6708 8.01971 10.6783C7.94346 10.7033 7.84847 10.7046 7.81597 10.5896C7.80347 10.5471 7.78597 10.5421 7.73972 10.5421C7.72472 10.5421 7.68097 10.5609 7.63598 10.5134C7.58598 10.4596 7.65348 10.3521 7.58973 10.3421C7.57098 10.3396 7.48099 10.3496 7.45349 10.2534C7.43599 10.1909 7.50848 10.1159 7.50973 10.1146C7.45974 10.1584 7.42099 10.2271 7.39224 10.3371C7.36849 10.4271 7.30849 10.6846 7.43474 10.7296C7.39224 10.8483 7.41974 10.9971 7.45224 11.0321C7.52723 11.1133 7.61848 11.0771 7.61848 11.0771C7.61848 11.0771 7.63098 11.1808 7.71347 11.2096C7.81597 11.2458 7.88721 11.1896 7.88721 11.1896C7.92346 11.2171 7.96721 11.2321 8.01346 11.2321C8.06845 11.2321 8.1172 11.2108 8.1547 11.1833C8.17845 11.1933 8.24345 11.2321 8.32594 11.1733C8.36969 11.1421 8.49343 10.9833 8.56218 10.8508C8.50093 10.8996 8.38094 10.8933 8.35969 10.8371Z" fill="url(#paint2_linear_746_660)"/>
<path d="M7.82474 16.4967C7.90349 16.4967 7.96848 16.433 7.96848 16.353V16.003C7.96848 15.7655 7.72724 15.4943 7.72724 15.4943H6.85479L6.06983 15.753C5.87984 15.828 5.7536 16.0105 5.75235 16.2142L5.7511 16.3717C5.7511 16.4405 5.80735 16.4967 5.87609 16.4967H7.82474Z" fill="#4568AD"/>
<path d="M12.2057 14.9793C12.262 14.9231 12.262 14.8331 12.2057 14.7768L11.9582 14.5293C11.7895 14.3606 11.4283 14.3394 11.4283 14.3394L10.812 14.9556L10.4408 15.6943C10.3596 15.8818 10.3996 16.0993 10.5433 16.2455L10.6545 16.358C10.7033 16.4067 10.7833 16.4067 10.832 16.358L12.2057 14.9793Z" fill="#325599"/>
<path d="M8.29587 10.9233C8.30462 10.9846 8.28837 11.0308 8.26587 11.0758C8.24088 11.1183 8.21088 11.1571 8.15463 11.1833C8.14588 11.1221 8.16213 11.0758 8.18463 11.0308C8.20838 10.9883 8.23963 10.9496 8.29587 10.9233Z" fill="#EDA600"/>
<path d="M8.04351 10.8096C8.05225 10.8883 8.03476 10.9583 8.00976 11.0246C7.98226 11.0896 7.94976 11.1533 7.88851 11.2045C7.87976 11.1246 7.89726 11.0558 7.92226 10.9896C7.94976 10.9258 7.98351 10.8621 8.04351 10.8096Z" fill="#EDA600"/>
<path d="M7.74341 10.6846C7.75841 10.7621 7.74591 10.8321 7.72716 10.8996C7.70591 10.9658 7.67716 11.0308 7.62091 11.087C7.60591 11.0096 7.61841 10.9396 7.63716 10.8721C7.65966 10.8058 7.68841 10.7408 7.74341 10.6846Z" fill="#EDA600"/>
<path d="M7.72465 10.2346C7.6859 10.2684 7.64841 10.3034 7.61716 10.3409C7.58341 10.3784 7.56716 10.4121 7.55591 10.4609C7.52716 10.5534 7.49841 10.6496 7.43092 10.7383C7.41092 10.6296 7.43092 10.5271 7.47217 10.4296C7.49341 10.3821 7.53466 10.3271 7.57966 10.2996C7.62591 10.2684 7.67465 10.2471 7.72465 10.2346Z" fill="#EDA600"/>
<path d="M8.04972 7.62469L9.41215 7.3772L9.19216 6.16601C9.12342 5.78978 8.76343 5.5398 8.3872 5.60854C8.01097 5.67729 7.76099 6.03727 7.82973 6.4135L8.04972 7.62469Z" fill="#ED6D23"/>
<path d="M9.8323 2.69118C9.66731 2.27745 9.33232 2.15246 9.22233 2.12246C9.17108 1.97247 8.9111 1.40375 7.9724 1.55874C7.74366 1.59624 7.57617 1.70498 7.42867 1.80123C7.36618 1.84247 7.30618 1.88247 7.24993 1.90872C7.20369 1.92997 7.12369 1.94997 7.05744 1.92872C6.9062 1.87872 6.9537 1.64874 6.9537 1.64874C6.9537 1.64874 6.39873 1.75873 6.63747 2.29495C6.45123 2.37745 6.36498 2.57494 6.33248 2.76118C6.28749 3.01491 6.41123 3.25615 6.65497 3.36489C6.65497 3.36489 6.60622 2.95742 7.19494 2.98116C7.37743 2.98866 7.56867 3.01741 7.73741 2.94867C7.80241 2.92242 7.8624 2.88117 7.9249 2.85117C7.9399 2.85117 7.9474 2.85117 7.9474 2.85117C8.16989 2.96992 7.8774 3.49614 8.12489 3.80362C8.17364 3.86487 8.21488 3.84237 8.21488 3.84237L8.31363 3.69613C8.38862 3.59613 8.45737 3.50864 8.55112 3.52989C8.8286 3.59113 8.7786 4.08611 8.44987 4.19485C8.41737 4.2061 8.49362 4.75732 9.17483 4.75732C9.52731 4.75732 9.65106 4.46484 9.65106 4.46484C9.65106 4.46484 9.50107 4.50233 9.46857 4.37484C9.45107 4.30859 9.51232 4.2186 9.62231 4.1211C9.93979 3.83862 9.8248 3.51364 9.77855 3.41239C9.82855 3.3174 9.96104 3.01491 9.8323 2.69118Z" fill="#543930"/>
<path d="M9.77963 3.41112C9.78588 3.39987 9.68089 3.66236 9.23091 3.61861C9.04592 3.61861 8.78843 4.06483 9.05842 4.35982C9.29841 4.6198 9.65214 4.46356 9.65214 4.46356C9.65214 4.46356 9.60339 4.47731 9.53214 4.45356C9.4859 4.43731 9.46965 4.37732 9.46965 4.37357C9.45215 4.30732 9.51339 4.21733 9.62339 4.11983C9.94087 3.8361 9.82588 3.51236 9.77963 3.41112Z" fill="url(#paint3_radial_746_660)"/>
<path d="M9.83205 2.69116C9.7458 2.47367 9.58706 2.28993 9.37707 2.18368C9.34707 2.16868 9.27208 2.13244 9.22083 2.12244C9.24583 2.21868 9.24333 2.32243 9.20208 2.42867C9.20083 2.43242 9.15333 2.59116 9.01709 2.71741C9.11583 2.8549 9.16583 3.02114 9.21333 3.18488C9.25458 3.32737 9.29458 3.48486 9.23083 3.61861C9.31707 3.61361 9.45457 3.63736 9.60581 3.56986C9.7508 3.50486 9.82705 3.33737 9.86205 3.18738C9.90079 3.02364 9.89454 2.8499 9.83205 2.69116Z" fill="url(#paint4_radial_746_660)"/>
<path d="M9.20087 2.42999C9.30961 2.15126 9.15587 1.89377 8.92463 1.72253C8.65215 1.52129 8.29466 1.50629 7.97218 1.55879C7.74344 1.59629 7.57595 1.70503 7.42846 1.80128C7.36471 1.84252 7.30472 1.88127 7.24847 1.90877C7.20222 1.93002 7.12223 1.95002 7.05598 1.92877C6.90474 1.87877 6.95223 1.64878 6.95223 1.64878C6.95223 1.64878 6.39726 1.75878 6.636 2.295C6.44976 2.3775 6.36352 2.57499 6.33102 2.76123C6.28602 3.01496 6.40976 3.2562 6.6535 3.36494C6.6535 3.36494 6.60475 2.95747 7.19347 2.98121C7.37596 2.98871 7.5672 3.01746 7.73594 2.94872C7.88594 2.88872 7.93593 2.80747 8.10467 2.81622C8.28591 2.82622 8.52715 2.89497 8.71339 2.86622C9.08962 2.80872 9.19962 2.43499 9.20087 2.42999Z" fill="url(#paint5_radial_746_660)"/>
<path d="M9.05835 4.35985C8.9371 4.23111 8.9046 4.01862 8.71461 3.90613C8.67962 4.02987 8.59087 4.14612 8.44963 4.19361C8.41713 4.20486 8.49338 4.75608 9.17459 4.75608C9.52707 4.75608 9.65081 4.4636 9.65081 4.4636C9.65081 4.4636 9.30208 4.61859 9.05835 4.35985Z" fill="url(#paint6_radial_746_660)"/>
<defs>
<linearGradient id="paint0_linear_746_660" x1="7.4838" y1="7.29476" x2="9.63994" y2="8.79468" gradientUnits="userSpaceOnUse">
<stop stop-color="#F78C1F"/>
<stop offset="0.482" stop-color="#F47F12"/>
<stop offset="1" stop-color="#EF6C00"/>
</linearGradient>
<linearGradient id="paint1_linear_746_660" x1="8.39955" y1="9.79744" x2="8.0003" y2="7.45698" gradientUnits="userSpaceOnUse">
<stop offset="0.4606" stop-color="#FFCA28"/>
<stop offset="0.9996" stop-color="#FFB300"/>
</linearGradient>
<linearGradient id="paint2_linear_746_660" x1="7.66643" y1="11.3946" x2="7.94736" y2="10.6631" gradientUnits="userSpaceOnUse">
<stop offset="0.4561" stop-color="#FFCA28"/>
<stop offset="1" stop-color="#FFB300"/>
</linearGradient>
<radialGradient id="paint3_radial_746_660" cx="0" cy="0" r="1" gradientUnits="userSpaceOnUse" gradientTransform="translate(8.92879 4.06173) rotate(20.2616) scale(0.890158 1.28198)">
<stop offset="0.45" stop-color="#6D4C41" stop-opacity="0"/>
<stop offset="1" stop-color="#6D4C41"/>
</radialGradient>
<radialGradient id="paint4_radial_746_660" cx="0" cy="0" r="1" gradientUnits="userSpaceOnUse" gradientTransform="translate(9.03397 3.1643) rotate(-7.72413) scale(0.902291 1.13859)">
<stop offset="0.45" stop-color="#6D4C41" stop-opacity="0"/>
<stop offset="1" stop-color="#6D4C41"/>
</radialGradient>
<radialGradient id="paint5_radial_746_660" cx="0" cy="0" r="1" gradientUnits="userSpaceOnUse" gradientTransform="translate(8.02792 2.85307) rotate(-8.8237) scale(1.85719 1.39599)">
<stop offset="0.45" stop-color="#6D4C41" stop-opacity="0"/>
<stop offset="1" stop-color="#6D4C41"/>
</radialGradient>
<radialGradient id="paint6_radial_746_660" cx="0" cy="0" r="1" gradientUnits="userSpaceOnUse" gradientTransform="translate(9.13416 4.17086) rotate(14.2586) scale(0.999778 0.642747)">
<stop offset="0.45" stop-color="#6D4C41" stop-opacity="0"/>
<stop offset="1" stop-color="#6D4C41"/>
</radialGradient>
</defs>
</svg>
