<svg width="18" height="18" viewBox="0 0 18 18" fill="none" xmlns="http://www.w3.org/2000/svg">
<path d="M1.4939 2.4236C1.4939 2.4236 1.5164 7.96455 1.5164 9.86445C1.5164 11.7644 1.4489 15.9929 1.60639 16.0391C1.76513 16.0841 2.98632 14.7504 3.23505 14.5017C3.48379 14.253 3.77753 13.9142 3.95877 13.8905C4.14001 13.868 5.69992 14.0267 6.35614 14.003C7.01235 13.9792 8.0073 14.003 8.50478 13.573C9.00225 13.143 8.93475 12.0356 9.04725 11.8993C9.15974 11.7631 9.45223 11.2706 9.52097 11.0994C9.58972 10.9281 9.50972 10.6994 9.44098 10.6644C9.37223 10.6307 9.29223 10.3782 9.29223 10.3782L9.70471 9.71446C9.70471 9.71446 9.70471 9.43948 9.57847 9.39448C9.45223 9.34823 8.99475 9.32573 8.9835 9.27949C8.97225 9.23324 9.23474 9.01575 9.39598 8.83326C9.55597 8.65077 9.62472 8.27204 9.53347 8.18079C9.44223 8.08955 8.50353 7.57458 8.32104 7.25459C8.13855 6.93461 7.90856 6.45338 7.82856 6.25964C7.74857 6.06465 7.56483 5.49344 7.42858 5.2872C7.29109 5.08096 7.59982 4.95596 7.59982 4.95596C7.59982 4.95596 8.44603 4.2585 8.36603 3.3423C8.28604 2.4261 7.59857 1.82113 6.43114 1.99237C5.2637 2.16361 4.87497 2.85107 4.87497 2.85107C4.87497 2.85107 4.14251 2.3136 3.20506 2.22236C2.26761 2.13111 1.53264 2.31735 1.4939 2.4236Z" fill="#AFE3FE"/>
<path d="M10.6197 9.69303L9.99219 10.3567C9.99219 10.3567 10.0922 10.4617 10.1759 10.5117C10.2822 10.5742 10.3984 10.608 10.3984 10.608L10.9734 10.2168L12.4158 10.2767C12.4158 10.2767 11.4059 10.7705 11.3284 11.8104C11.2484 12.8854 11.9121 13.9616 13.342 13.9616C14.7719 13.9616 15.4806 12.9666 15.5156 12.0854C15.5494 11.2267 15.0807 10.6092 15.0807 10.6092C15.0807 10.6092 16.6093 10.1593 16.7168 8.76683C16.8318 7.27941 15.8394 6.03572 14.3145 5.89448C12.7008 5.74574 12.0696 7.12191 12.0146 7.62189C11.9233 8.45684 12.4146 9.17806 12.4146 9.17806L10.6197 9.69303Z" fill="url(#paint0_radial_746_96820)"/>
<path d="M9.86351 9.66948C9.93101 10.137 9.47978 10.4369 9.47978 10.4369C9.47978 10.4369 9.65727 10.4832 9.69727 10.6632C9.73227 10.8207 9.62977 10.9732 9.53103 11.0769C9.53103 11.0769 9.43728 10.9532 9.27604 10.8207C9.18979 10.7494 9.08105 10.8207 8.9973 10.6882C8.91356 10.5557 9.1298 10.2907 9.1298 10.2907C9.1298 10.2907 9.32479 9.94197 9.38103 9.82322C9.43728 9.70448 9.54978 9.387 9.54978 9.387C9.54978 9.387 9.81476 9.34075 9.86351 9.66948Z" fill="#4FC1F5"/>
<path d="M8.14611 9.12826C8.07237 9.237 8.20736 10.0582 8.14611 10.8807C8.06987 11.9069 7.54614 12.6118 7.62989 12.7231C7.74613 12.8781 8.57234 12.6531 8.75358 10.8244C8.88357 9.51449 8.2786 8.93202 8.14611 9.12826Z" fill="#4FC1F5"/>
<path d="M7.20723 7.58685C6.95224 7.6331 7.17473 8.07057 6.97599 8.13932C6.851 8.18307 6.69726 8.14807 6.46727 8.02933C6.06979 7.82434 5.68356 7.36686 5.51607 7.61185C5.34733 7.85683 6.17353 9.39425 7.26973 9.07302C7.54221 8.99302 7.6672 8.73429 7.6872 8.50055C7.72095 8.07432 7.47096 7.5381 7.20723 7.58685Z" fill="#159DF5"/>
<path d="M10.3584 10.5881C10.4234 10.6656 10.5896 10.6243 10.7834 10.5031C11.2009 10.2406 12.1283 10.1218 12.8195 10.5556C13.5095 10.9893 13.7082 11.7518 13.2795 12.1492C12.917 12.4855 12.2895 12.3605 12.2345 12.008C12.1908 11.7243 12.5708 11.618 12.6508 11.9105C12.6858 12.038 12.907 12.1492 12.9958 11.9105C13.0845 11.6718 12.777 11.0243 12.1021 11.2818C11.4796 11.5205 11.6633 12.6805 12.5733 12.8667C13.397 13.0354 14.3944 12.238 13.9695 11.0256C13.6582 10.1381 12.527 9.60938 11.3133 9.84811C10.7209 9.96436 10.1847 10.3806 10.3584 10.5881Z" fill="#4FC1F5"/>
<path d="M10.0397 10.4142C10.1722 10.5067 10.2185 10.2292 10.5234 9.97924C10.7897 9.76175 11.4209 9.41427 12.3146 9.54677C13.2083 9.67926 14.342 10.0517 15.1644 9.36927C15.9869 8.68681 15.8194 7.12939 14.5982 6.69567C13.377 6.26194 12.6508 6.9794 12.6946 7.79311C12.7446 8.70681 13.8608 8.67181 14.0995 8.24683C14.3032 7.88435 14.1207 7.58062 13.9608 7.50062C13.802 7.42063 13.587 7.49062 13.6595 7.73061C13.7483 8.0231 13.4208 8.10184 13.2695 7.9256C13.1195 7.74811 13.2045 7.20689 13.597 7.09314C14.2082 6.91565 15.2807 7.33688 15.0844 8.44807C14.8807 9.59926 12.9958 9.18304 12.2258 9.08554C11.4559 8.98805 10.5797 9.34178 10.2522 9.66051C9.92472 9.98049 9.86972 10.2967 10.0397 10.4142Z" fill="#4FC1F5"/>
<path d="M1.50263 12.5055C1.45263 12.568 1.42264 13.0704 1.49513 13.0804C1.65887 13.1042 2.9563 12.2292 3.59877 10.4518C4.24124 8.67442 4.0025 6.88452 4.0025 6.88452C4.0025 6.88452 4.41873 6.36829 4.63247 5.98956C4.8462 5.61208 4.98495 5.01962 4.98495 5.01962C4.98495 5.01962 5.32493 5.47334 6.23238 5.51084C7.13983 5.54834 8.53976 5.15836 8.741 3.92342C8.92724 2.77723 7.87479 2.21226 7.65981 2.16602C7.65981 2.16602 7.87229 2.29101 8.01479 2.45975C8.11353 2.57724 8.22228 2.74224 8.27977 2.94347C8.41852 3.4272 8.32977 3.87968 8.22478 4.11591C8.07728 4.44465 7.82105 4.77463 7.35357 4.94087C6.33238 5.30585 5.08619 4.95712 5.09869 4.32715C5.11119 3.69719 5.86615 3.27346 6.38737 3.28721C6.7711 3.29721 6.97234 3.62344 6.63236 3.81218C6.29238 4.00092 6.02614 3.88218 5.8749 4.02092C5.74116 4.14466 5.8174 4.4034 6.37112 4.31465C6.92484 4.22591 7.39232 3.81093 7.25358 3.3822C7.11483 2.95347 6.32113 2.56724 5.33243 3.23346C4.49622 3.79718 4.71246 4.57464 4.70746 4.64214C4.70496 4.67963 4.46747 5.43584 4.16499 5.95332C3.86251 6.47079 3.47128 6.93576 3.47128 6.93576C3.47128 6.93576 3.63877 8.68817 3.23129 9.88436C2.62882 11.6618 1.50263 12.5055 1.50263 12.5055Z" fill="white"/>
<defs>
<radialGradient id="paint0_radial_746_96820" cx="0" cy="0" r="1" gradientUnits="userSpaceOnUse" gradientTransform="translate(6.09823 8.38667) scale(10.0817 10.0817)">
<stop offset="0.6327" stop-color="#AFE3FE"/>
<stop offset="0.6898" stop-color="#B9E7FE"/>
<stop offset="0.8547" stop-color="#D2F0FE"/>
<stop offset="0.9553" stop-color="#DBF3FE"/>
</radialGradient>
</defs>
</svg>
