<svg width="18" height="18" viewBox="0 0 18 18" fill="none" xmlns="http://www.w3.org/2000/svg">
<path d="M11.9308 11.8494C11.7083 11.6094 11.417 11.2969 11.162 11.0269C10.6671 10.5057 10.0621 10.1157 10.0621 10.1157L9.05591 11.1957C9.05591 11.1957 9.44714 11.9156 9.94586 12.3444C10.1896 12.5543 10.4946 12.7681 10.7433 12.9331C10.7058 13.0568 10.6683 13.2181 10.6521 13.4105C10.6046 14.008 10.6971 14.7955 10.7008 14.883C10.7158 15.3404 10.7208 15.6792 10.7208 15.6792L11.5133 15.6767L12.1732 12.7493C12.2457 12.4281 12.1557 12.0906 11.9308 11.8494Z" fill="url(#paint0_linear_746_564)"/>
<path d="M7.93598 10.1157C7.93598 10.1157 7.33101 10.5057 6.83728 11.0282C6.5823 11.2982 6.29106 11.6106 6.06857 11.8506C5.84359 12.0919 5.75359 12.4294 5.82609 12.7506L6.48605 15.6779L7.27851 15.6804C7.27851 15.6804 7.28351 15.3417 7.29851 14.8842C7.30101 14.7967 7.39475 14.0093 7.34726 13.4118C7.33226 13.2193 7.29351 13.0581 7.25601 12.9343C7.50475 12.7693 7.80973 12.5556 8.05347 12.3456C8.55219 11.9169 8.94342 11.1969 8.94342 11.1969L7.93598 10.1157Z" fill="url(#paint1_linear_746_564)"/>
<path d="M6.28601 14.8831L6.48725 15.6768L7.27971 15.6793L7.29721 14.8831H6.28601Z" fill="#E0E0E0"/>
<path d="M7.55222 15.9917C7.55097 15.7517 7.34474 15.4792 7.34474 15.4792H6.37604L5.62858 15.743C5.43609 15.8192 5.30859 16.0042 5.30859 16.2117V16.3717C5.30859 16.4417 5.36484 16.4992 5.43484 16.4992L7.40848 16.4929C7.48848 16.4929 7.55348 16.4279 7.55348 16.3467L7.55222 15.9917Z" fill="#4568AD"/>
<path d="M10.7008 14.8831L10.7221 15.6793L11.5133 15.6768L11.7133 14.8831H10.7008Z" fill="#E0E0E0"/>
<path d="M12.3707 15.743L11.6245 15.4792H10.6558C10.6558 15.4792 10.4483 15.7517 10.4483 15.993L10.447 16.348C10.447 16.4279 10.512 16.4929 10.592 16.4942L12.5644 16.4992C12.6344 16.4992 12.6907 16.4429 12.6907 16.3717V16.2117C12.6907 16.0042 12.5632 15.8192 12.3707 15.743Z" fill="#4568AD"/>
<path d="M10.3571 6.13852C10.3083 6.05102 10.3708 5.96103 10.4746 5.85103C10.6408 5.67604 10.8221 5.26856 10.6546 4.85483C10.6558 4.85233 10.6221 4.78234 10.6221 4.78109L10.5521 4.77734C10.5296 4.77359 9.76837 4.77234 9.00716 4.77234C8.24595 4.77234 7.48474 4.77359 7.46224 4.77734C7.46224 4.77734 7.35975 4.85233 7.361 4.85483C7.19225 5.26856 7.3735 5.67479 7.54099 5.85103C7.64598 5.96103 7.70723 6.05102 7.65848 6.13852C7.61223 6.22351 7.47224 6.23601 7.47224 6.23601C7.47224 6.23601 7.50474 6.32351 7.58223 6.371C7.65348 6.41475 7.74223 6.42475 7.80222 6.426C7.80222 6.426 8.03971 6.75473 8.66093 6.75473H9.00716H9.35339C9.97461 6.75473 10.2121 6.426 10.2121 6.426C10.2733 6.42475 10.3608 6.41475 10.4321 6.371C10.5096 6.32351 10.5421 6.23601 10.5421 6.23601C10.5421 6.23601 10.4033 6.22476 10.3571 6.13852Z" fill="#543930"/>
<path d="M9.0072 6.75472V6.38974L10.1121 6.30225L10.2121 6.42599C10.2121 6.42599 9.97465 6.75472 9.35343 6.75472H9.0072Z" fill="url(#paint2_radial_746_564)"/>
<path d="M10.2096 6.26722C10.0446 6.01599 10.4108 5.92224 10.4108 5.92224C10.3471 6.00099 10.3183 6.07098 10.3558 6.13848C10.4021 6.22348 10.5421 6.23597 10.5421 6.23597C10.5421 6.23597 10.3521 6.40472 10.2096 6.26722Z" fill="url(#paint3_radial_746_564)"/>
<path d="M10.6545 4.85609C10.8183 5.25607 10.6458 5.66855 10.4845 5.84229C10.462 5.86604 10.3683 5.95854 10.347 6.03228C10.347 6.03228 9.97832 5.51731 9.86832 5.21608C9.84582 5.15483 9.82582 5.09233 9.82332 5.02734C9.82082 4.97859 9.82833 4.92109 9.85707 4.87984C9.89207 4.8286 10.637 4.81485 10.637 4.81485C10.6358 4.8136 10.6545 4.85609 10.6545 4.85609Z" fill="url(#paint4_radial_746_564)"/>
<path d="M7.36103 4.8561C7.19729 5.25608 7.36978 5.66855 7.53102 5.84229C7.55352 5.86604 7.64727 5.95854 7.66852 6.03228C7.66852 6.03228 8.03725 5.51731 8.14724 5.21608C8.16974 5.15483 8.18974 5.09233 8.19224 5.02734C8.19474 4.97859 8.18724 4.92109 8.15849 4.87985C8.12349 4.8286 8.0835 4.84235 8.026 4.84235C7.91475 4.84235 7.42728 4.8136 7.38978 4.8136C7.39103 4.8136 7.36103 4.8561 7.36103 4.8561Z" fill="url(#paint5_radial_746_564)"/>
<path d="M9.0084 6.75472V6.38974L7.90346 6.30225L7.80347 6.42599C7.80347 6.42599 8.04095 6.75472 8.66217 6.75472H9.0084Z" fill="url(#paint6_radial_746_564)"/>
<path d="M7.80721 6.26722C7.97346 6.01599 7.60597 5.92224 7.60597 5.92224C7.66972 6.00099 7.69847 6.07098 7.66097 6.13848C7.61472 6.22348 7.47473 6.23597 7.47473 6.23597C7.47473 6.23597 7.66347 6.40472 7.80721 6.26722Z" fill="url(#paint7_radial_746_564)"/>
<path d="M13.032 3.88987L12.4645 3.60364C12.0108 4.04861 11.7958 4.42984 11.5933 5.09356C11.1646 5.2973 10.7946 5.67103 10.5546 6.05726C10.2996 6.40849 10.1396 6.60348 9.95588 6.95221C9.81714 7.2172 9.91713 7.51218 10.1684 7.69592C10.2871 7.78342 10.3834 7.82091 10.4771 7.82091C10.5821 7.82091 10.6821 7.77217 10.8046 7.68967C11.0633 7.54218 11.4146 7.1522 11.6395 6.86222L11.6333 6.85847C11.9195 6.50223 12.2083 5.99976 12.352 5.52479C12.7545 5.10481 13.032 4.55359 13.032 3.88987Z" fill="url(#paint8_linear_746_564)"/>
<path d="M8.04349 6.95346C7.85975 6.60473 7.69976 6.40974 7.44478 6.05851C7.20479 5.67228 6.83481 5.29855 6.40608 5.09481C6.20234 4.42859 5.98735 4.04861 5.53363 3.60364L4.96741 3.89112C4.96741 4.55484 5.24489 5.10481 5.64737 5.52604C5.79111 5.99976 6.0786 6.50348 6.36608 6.85972L6.35983 6.86347C6.58482 7.15345 6.93605 7.54343 7.19479 7.69092C7.31728 7.77342 7.41728 7.82217 7.52227 7.82217C7.61602 7.82217 7.71226 7.78342 7.83101 7.69717C8.08099 7.51343 8.18224 7.2172 8.04349 6.95346Z" fill="url(#paint9_linear_746_564)"/>
<path d="M10.5545 6.05728C10.3308 6.36476 10.1808 6.5535 10.0233 6.82974C9.86956 6.78974 9.69582 6.76724 9.50332 6.76724H8.48213C8.29339 6.76724 8.12465 6.78974 7.97466 6.82849C7.81716 6.55225 7.66717 6.36351 7.44343 6.05603L6.35974 6.86224C6.58473 7.15222 7.0697 7.68969 7.0697 7.68969C7.17345 8.19717 7.77092 10.2146 7.77092 10.2146H10.3045L10.9507 7.67969C10.9507 7.67969 11.4195 7.14472 11.6395 6.86349L10.5545 6.05728Z" fill="url(#paint10_linear_746_564)"/>
<path d="M8.56592 6.85472C8.56592 7.06221 8.74216 7.23095 8.95965 7.23095H9.03839C9.25588 7.23095 9.43212 7.06221 9.43212 6.85472V6.396H8.56592V6.85472Z" fill="#E59600"/>
<path d="M7.9422 5.82472C7.74846 5.82472 7.58972 5.65473 7.58972 5.44599C7.58972 5.23725 7.74721 5.06726 7.9422 5.06726H10.0571C10.2508 5.06726 10.4096 5.23725 10.4096 5.44599C10.4096 5.65473 10.2521 5.82472 10.0571 5.82472H7.9422Z" fill="#E59600"/>
<path d="M8.99965 3.49365C8.32968 3.49365 7.70972 4.20986 7.70972 5.23981C7.70972 6.26476 8.34843 6.77098 8.99965 6.77098C9.65086 6.77098 10.2896 6.26476 10.2896 5.23981C10.2896 4.20986 9.66961 3.49365 8.99965 3.49365Z" fill="#FFCA28"/>
<path d="M9.1484 5.686C9.14465 5.68475 9.13965 5.6835 9.1359 5.68225H8.86216C8.85841 5.68225 8.85341 5.6835 8.84966 5.686C8.82467 5.696 8.81092 5.72225 8.82342 5.74975C8.83467 5.77725 8.88966 5.85349 8.99966 5.85349C9.10965 5.85349 9.1634 5.77725 9.1759 5.74975C9.18715 5.72225 9.1734 5.696 9.1484 5.686Z" fill="#E59600"/>
<path d="M9.32462 5.99602C9.20087 6.06977 8.79715 6.06977 8.67465 5.99602C8.60341 5.95352 8.53091 6.01852 8.56091 6.08227C8.58966 6.14601 8.81089 6.29226 9.00088 6.29226C9.19087 6.29226 9.40961 6.14601 9.43836 6.08227C9.46711 6.01852 9.39586 5.95352 9.32462 5.99602Z" fill="#795548"/>
<path d="M8.37218 5.5223C8.47573 5.5223 8.55967 5.435 8.55967 5.32731C8.55967 5.21962 8.47573 5.13232 8.37218 5.13232C8.26863 5.13232 8.18469 5.21962 8.18469 5.32731C8.18469 5.435 8.26863 5.5223 8.37218 5.5223Z" fill="#404040"/>
<path d="M9.62707 5.5223C9.73061 5.5223 9.81456 5.435 9.81456 5.32731C9.81456 5.21962 9.73061 5.13232 9.62707 5.13232C9.52352 5.13232 9.43958 5.21962 9.43958 5.32731C9.43958 5.435 9.52352 5.5223 9.62707 5.5223Z" fill="#404040"/>
<path d="M8.65087 4.97733C8.61463 4.92983 8.53213 4.86108 8.37214 4.86108C8.2109 4.86108 8.1284 4.92983 8.0934 4.97733C8.07715 4.99858 8.08215 5.02233 8.09215 5.03732C8.10215 5.05107 8.13215 5.06357 8.1659 5.05232C8.19965 5.04107 8.26339 5.00733 8.37214 5.00608C8.48088 5.00733 8.54588 5.03982 8.57838 5.05232C8.61213 5.06357 8.64212 5.05107 8.65212 5.03732C8.66337 5.02233 8.66712 4.99858 8.65087 4.97733Z" fill="#6D4C41"/>
<path d="M9.90576 4.97733C9.86951 4.92983 9.78701 4.86108 9.62702 4.86108C9.46578 4.86108 9.38328 4.92983 9.34829 4.97733C9.33204 4.99858 9.33704 5.02233 9.34704 5.03732C9.35704 5.05107 9.38703 5.06357 9.42078 5.05232C9.45453 5.04107 9.51828 5.00733 9.62702 5.00608C9.73577 5.00733 9.80076 5.03982 9.83326 5.05232C9.86701 5.06357 9.89701 5.05107 9.90701 5.03732C9.91826 5.02233 9.92201 4.99858 9.90576 4.97733Z" fill="#6D4C41"/>
<path d="M10.557 4.02359C10.4633 3.8811 10.2508 3.68986 10.0621 3.67736C10.0321 3.49487 9.83583 3.33988 9.64709 3.28113C9.13587 3.11864 8.80338 3.30113 8.62339 3.39862C8.58589 3.41862 8.34591 3.55237 8.17842 3.45612C8.07342 3.39612 8.07467 3.23488 8.07467 3.23488C8.07467 3.23488 7.74469 3.35988 7.85718 3.70986C7.74469 3.71486 7.59595 3.76236 7.5172 3.9211C7.42346 4.10984 7.4572 4.26858 7.48345 4.34482C7.38596 4.42732 7.26346 4.60356 7.34721 4.8323C7.41096 5.00479 7.66344 5.08354 7.66344 5.08354C7.64594 5.39352 7.70344 5.58351 7.73344 5.66101C7.73844 5.67475 7.75844 5.6735 7.76094 5.65975C7.79969 5.50601 7.92968 4.97229 7.91718 4.87855C7.91718 4.87855 8.35591 4.79105 8.77338 4.48357C8.85838 4.42107 8.95088 4.36732 9.04837 4.32858C9.57334 4.11984 9.68334 4.47607 9.68334 4.47607C9.68334 4.47607 10.0471 4.40607 10.1571 4.91229C10.1983 5.10228 10.2271 5.40477 10.2496 5.61726C10.2508 5.63226 10.2721 5.63601 10.2771 5.62101C10.3133 5.53726 10.387 5.36977 10.4045 5.19978C10.4108 5.13978 10.572 5.06104 10.642 4.80355C10.7395 4.45607 10.6245 4.12609 10.557 4.02359Z" fill="#543930"/>
<path d="M10.4083 5.19732C10.4146 5.13732 10.5758 5.05857 10.6458 4.80109C10.6533 4.77359 10.6596 4.74609 10.6646 4.71734C10.7208 4.40486 10.6196 4.11737 10.5571 4.02238C10.4696 3.88989 10.2821 3.7174 10.1046 3.68115C10.0896 3.67865 10.0746 3.6774 10.0596 3.67615C10.0596 3.67615 10.0721 3.75864 10.0383 3.82489C9.9946 3.91114 9.9071 3.93113 9.9071 3.93113C10.3696 4.39611 10.3371 4.78359 10.4083 5.19732Z" fill="url(#paint11_radial_746_564)"/>
<path d="M8.73587 3.33864C8.69338 3.35864 8.65588 3.37988 8.62338 3.39738C8.58588 3.41738 8.34589 3.55113 8.1784 3.45488C8.07466 3.39613 8.07466 3.23864 8.07466 3.23364C8.02716 3.29489 7.88342 3.72737 8.3034 3.75611C8.48464 3.76861 8.59713 3.60987 8.66338 3.47613C8.68713 3.42863 8.72587 3.35739 8.73587 3.33864Z" fill="url(#paint12_radial_746_564)"/>
<path d="M9.59331 3.26363C9.8758 3.33987 10.0145 3.48361 10.0608 3.6761C10.0745 3.73235 10.0908 4.25857 9.08584 3.66111C8.71211 3.43862 8.8146 3.29862 8.85835 3.28363C9.02834 3.22238 9.27708 3.17863 9.59331 3.26363Z" fill="url(#paint13_radial_746_564)"/>
<path d="M8.07336 3.23359C8.07211 3.23359 8.07211 3.23359 8.07086 3.23484C8.03461 3.24984 7.75212 3.38108 7.85712 3.70856L8.15835 3.75731C7.89337 3.48732 8.07461 3.23234 8.07336 3.23359C8.07461 3.23359 8.07461 3.23234 8.07336 3.23359Z" fill="url(#paint14_radial_746_564)"/>
<path d="M8.04469 3.73862L7.85845 3.70862C7.85095 3.70862 7.82595 3.71112 7.81345 3.71237C7.70846 3.72737 7.58596 3.78111 7.51847 3.91986C7.44722 4.0686 7.44847 4.19734 7.46847 4.28234C7.47347 4.31109 7.48597 4.34358 7.48597 4.34358C7.48597 4.34358 7.57847 4.25609 7.7972 4.25109L8.04469 3.73862Z" fill="url(#paint15_radial_746_564)"/>
<path d="M7.47593 4.35112C7.38468 4.43237 7.26094 4.61361 7.35218 4.8386C7.42093 5.00859 7.66467 5.08233 7.66467 5.08233C7.66467 5.08358 7.71341 5.09733 7.73841 5.09733L7.79591 4.24988C7.67842 4.24988 7.56592 4.28488 7.49343 4.33487C7.49468 4.33737 7.47593 4.34987 7.47593 4.35112Z" fill="url(#paint16_radial_746_564)"/>
<path d="M6.03229 3.14487C5.91979 3.07862 5.38607 2.99487 5.01734 2.99487C4.81485 2.99487 4.66361 3.02112 4.66361 3.08987L4.66236 3.5186C4.66111 3.94982 4.94234 4.3023 5.40732 4.30355H5.40857C6.25102 4.30355 6.31727 3.31111 6.03229 3.14487Z" fill="url(#paint17_radial_746_564)"/>
<path d="M6.00229 3.60239C5.99729 3.61864 5.95354 3.63488 5.90604 3.64738H5.90479C5.8498 3.66113 5.7848 3.68863 5.66356 3.72238C5.49482 3.76988 5.48107 3.99612 5.48107 3.99612C5.44982 3.87862 5.52981 3.67238 5.64106 3.62489V3.62364C5.69356 3.59864 5.7523 3.58489 5.8148 3.57489C5.8248 3.57364 5.8498 3.57239 5.88105 3.57364H5.8823C5.93854 3.57489 6.00854 3.58239 6.00229 3.60239Z" fill="#EDA600"/>
<path d="M16.4992 3.31236C16.4992 3.48485 16.408 3.62484 16.2942 3.62484H1.70499C1.5925 3.62484 1.5 3.48485 1.5 3.31236C1.5 3.13987 1.5925 2.99988 1.70499 2.99988H16.293C16.4067 2.99988 16.4992 3.13987 16.4992 3.31236Z" fill="url(#paint18_linear_746_564)"/>
<path d="M3.61483 5.12352C4.02856 5.12352 4.36479 4.78728 4.36479 4.37356V2.26742C4.36479 1.85369 4.02856 1.51746 3.61483 1.51746C3.2011 1.51746 2.86487 1.85369 2.86487 2.26742V4.37356C2.86487 4.78728 3.19985 5.12352 3.61483 5.12352Z" fill="url(#paint19_radial_746_564)"/>
<path d="M14.3844 5.12352C13.9706 5.12352 13.6344 4.78728 13.6344 4.37356V2.26742C13.6344 1.85369 13.9706 1.51746 14.3844 1.51746C14.7981 1.51746 15.1343 1.85369 15.1343 2.26742V4.37356C15.1343 4.78728 14.7993 5.12352 14.3844 5.12352Z" fill="url(#paint20_radial_746_564)"/>
<path d="M2.24997 4.40228C2.52621 4.40228 2.74995 4.17855 2.74995 3.90231V2.73862C2.74995 2.46239 2.52621 2.23865 2.24997 2.23865C1.97374 2.23865 1.75 2.46239 1.75 2.73862V3.90231C1.75 4.17855 1.97374 4.40228 2.24997 4.40228Z" fill="url(#paint21_radial_746_564)"/>
<path d="M15.7492 4.40228C15.473 4.40228 15.2493 4.17855 15.2493 3.90231V2.73862C15.2493 2.46239 15.473 2.23865 15.7492 2.23865C16.0255 2.23865 16.2492 2.46239 16.2492 2.73862V3.90231C16.2492 4.17855 16.0255 4.40228 15.7492 4.40228Z" fill="url(#paint22_radial_746_564)"/>
<path d="M5.826 3.62484H4.65981L4.55981 2.99988H5.826V3.62484Z" fill="#646464"/>
<path d="M6.15226 2.87994L6.11601 3.07368L6.10851 3.11617L6.09101 3.20992L6.08101 3.26492C6.05976 3.37741 5.96102 3.45616 5.85102 3.45616C5.83727 3.45616 5.82227 3.45491 5.80853 3.45241C5.75103 3.44241 5.70228 3.41241 5.66853 3.36741C5.62728 3.40491 5.57354 3.42616 5.51479 3.42616C5.47979 3.42616 5.3698 3.37741 5.35105 3.35866C5.34605 3.35366 5.34105 3.34866 5.3373 3.34241C5.3323 3.34616 5.3273 3.35116 5.3223 3.35491C5.3198 3.35616 5.24856 3.39866 5.17606 3.39741C5.10856 3.39616 5.04107 3.35491 5.02107 3.33491C5.00107 3.36366 4.97357 3.38866 4.94107 3.40616C4.91857 3.41991 4.89357 3.42866 4.86608 3.43241C4.85358 3.43491 4.84108 3.43616 4.82858 3.43616C4.77858 3.43616 4.72983 3.41991 4.68983 3.38991C4.63734 3.35241 4.60359 3.29741 4.59484 3.23492L4.57859 3.12867V3.12742L4.55734 2.99118C4.54734 2.92868 4.56234 2.86619 4.59984 2.81494C4.63734 2.76244 4.69233 2.7287 4.75483 2.71995C4.76983 2.71745 4.78483 2.7162 4.79983 2.71745C4.80358 2.71745 4.80858 2.71745 4.81233 2.7187C4.85233 2.7212 4.89232 2.73494 4.92732 2.75994C4.93232 2.76369 4.93607 2.76744 4.93982 2.76994C4.94732 2.74119 4.96232 2.7137 4.98107 2.6912C4.98607 2.6837 4.99107 2.67745 4.99732 2.6712C5.00482 2.66245 5.01107 2.6587 5.01357 2.6562C5.01482 2.6562 5.01482 2.65495 5.01482 2.65495C5.05232 2.62245 5.10106 2.60245 5.15481 2.59995C5.17231 2.5987 5.18981 2.59995 5.20606 2.60245C5.21856 2.60495 5.22981 2.6087 5.24106 2.61245C5.27355 2.62245 5.3023 2.6387 5.3273 2.6612C5.3348 2.6512 5.34355 2.6412 5.3523 2.63245C5.3648 2.61995 5.37855 2.6087 5.3923 2.59995C5.3998 2.59495 5.40855 2.5912 5.41605 2.5862C5.44729 2.5712 5.48229 2.5637 5.51854 2.56495C5.55854 2.56495 5.59729 2.57495 5.63228 2.59495C5.63853 2.59745 5.64353 2.6012 5.64853 2.60495C5.66103 2.6137 5.67228 2.6237 5.68353 2.63495C5.70353 2.65495 5.71978 2.6787 5.73103 2.7037C5.74603 2.6812 5.76603 2.65995 5.78978 2.6437C5.79478 2.63995 5.80103 2.6362 5.80728 2.6337C5.83227 2.61995 5.85852 2.60995 5.88602 2.6062C5.91227 2.60245 5.93852 2.60245 5.96477 2.60745C6.02726 2.6187 6.07976 2.6537 6.11601 2.70495C6.15101 2.75744 6.16351 2.81869 6.15226 2.87994Z" fill="url(#paint23_linear_746_564)"/>
<path d="M10.4308 10.2645L10.3434 10.0195H7.72224L7.67475 10.2695L6.5498 11.2582L7.80474 12.5619C7.80474 12.5619 8.65344 11.8532 8.72969 11.7857C8.81344 11.7107 8.91468 11.7019 8.97593 11.7007C9.03717 11.7019 9.13842 11.7107 9.22216 11.7857C9.29841 11.8544 10.1471 12.5619 10.1471 12.5619L11.4495 11.2582L10.4308 10.2645Z" fill="#7C7C7C"/>
<path d="M6.12856 3.01485C6.08481 3.12734 5.84733 3.01984 5.75733 2.9736C5.74358 2.8636 5.72983 2.79111 5.72983 2.79111C5.72983 2.79111 5.72983 2.79111 5.72983 2.79236C5.73358 2.85485 5.67109 2.89985 5.61234 2.87735C5.54609 2.8511 5.46985 2.82985 5.41485 2.83235C5.3936 2.8336 5.3761 2.83735 5.35985 2.84235C5.34485 2.79361 5.3361 2.76111 5.3361 2.76111C5.3361 2.76111 5.3361 2.76611 5.3361 2.77486C5.3336 2.81736 5.3136 2.85735 5.27861 2.8811C5.14236 2.96985 5.10736 3.13734 5.26861 3.31608C5.21361 3.35358 5.12736 3.35108 5.07862 3.30108C5.01612 3.23858 4.98987 3.03984 4.95362 2.89235C4.96487 2.99735 4.99612 3.18484 4.98112 3.25733C4.96237 3.34483 4.87488 3.39982 4.78738 3.37858C4.71114 3.35983 4.62114 3.29858 4.57739 3.12984L4.59364 3.23608C4.60239 3.29858 4.63614 3.35358 4.68864 3.39108C4.72863 3.42107 4.77738 3.43732 4.82738 3.43732C4.83988 3.43732 4.85238 3.43607 4.86488 3.43357C4.88863 3.42982 4.90988 3.42232 4.92987 3.41232C4.93112 3.41107 4.93362 3.41107 4.93487 3.40982C4.93612 3.40857 4.93862 3.40857 4.93987 3.40732C4.99237 3.37858 5.01862 3.33858 5.01987 3.33608C5.02612 3.34608 5.09112 3.39982 5.16986 3.39982C5.27861 3.39982 5.3211 3.35608 5.3211 3.35608C5.3311 3.36233 5.3411 3.36733 5.3511 3.37108C5.3586 3.37358 5.65109 3.47232 5.63984 3.58356C5.63859 3.59731 5.63984 3.61106 5.64109 3.62481V3.62981C5.64109 3.62981 5.64109 3.62981 5.64109 3.63106C5.64484 3.66356 5.65234 3.69481 5.66359 3.72356L5.66484 3.72231C5.69483 3.69856 5.76733 3.71856 5.77358 3.67606C5.79733 3.51482 5.79108 3.32233 5.77608 3.15734L6.09106 3.20983L6.12856 3.01485Z" fill="#EDA600"/>
<path d="M6.18858 3.42238C6.12734 3.08615 5.72111 2.94616 5.56862 2.89241C5.54987 2.88616 5.27113 2.81991 5.23739 3.0674C5.22239 3.1749 5.30363 3.29239 5.40738 3.33239C5.69111 3.44113 5.68986 3.50113 5.68986 3.54113C5.68861 3.64487 5.74611 3.84111 5.8361 3.89986C5.85485 3.91236 5.8761 3.91986 5.8961 3.91986C5.9086 3.91986 5.9211 3.91736 5.9336 3.91236C6.10984 3.83861 6.22358 3.61862 6.18858 3.42238Z" fill="url(#paint24_linear_746_564)"/>
<path d="M11.982 3.14487C12.0945 3.07862 12.6282 2.99487 12.9969 2.99487C13.1994 2.99487 13.3506 3.02112 13.3506 3.08987L13.3519 3.5186C13.3531 3.94982 13.0719 4.3023 12.6069 4.30355H12.6057C11.7632 4.30355 11.6957 3.31111 11.982 3.14487Z" fill="url(#paint25_radial_746_564)"/>
<path d="M12.012 3.60239C12.017 3.61864 12.0607 3.63488 12.1082 3.64738H12.1095C12.1645 3.66113 12.2295 3.68863 12.3507 3.72238C12.5195 3.76988 12.5332 3.99612 12.5332 3.99612C12.5645 3.87862 12.4845 3.67238 12.3732 3.62489V3.62364C12.3207 3.59864 12.262 3.58489 12.1995 3.57489C12.1895 3.57364 12.1645 3.57239 12.1332 3.57364H12.132C12.0757 3.57489 12.0057 3.58239 12.012 3.60239Z" fill="#EDA600"/>
<path d="M12.1882 2.99988H13.4544L13.3544 3.62484H12.1882V2.99988Z" fill="#646464"/>
<path d="M11.8619 2.87994L11.8982 3.07368L11.9057 3.11617L11.9232 3.20992L11.9332 3.26492C11.9544 3.37741 12.0532 3.45616 12.1632 3.45616C12.1769 3.45616 12.1919 3.45491 12.2057 3.45241C12.2632 3.44241 12.3119 3.41241 12.3456 3.36741C12.3869 3.40491 12.4406 3.42616 12.4994 3.42616C12.5344 3.42616 12.6444 3.37741 12.6631 3.35866C12.6681 3.35366 12.6731 3.34866 12.6769 3.34241C12.6819 3.34616 12.6869 3.35116 12.6919 3.35491C12.6944 3.35616 12.7656 3.39866 12.8381 3.39741C12.9056 3.39616 12.9719 3.35491 12.9931 3.33491C13.0131 3.36366 13.0406 3.38866 13.0731 3.40616C13.0956 3.41991 13.1206 3.42866 13.1481 3.43241C13.1606 3.43491 13.1731 3.43616 13.1856 3.43616C13.2356 3.43616 13.2843 3.41991 13.3243 3.38991C13.3768 3.35241 13.4106 3.29741 13.4193 3.23492L13.4356 3.12867V3.12742L13.4568 2.99118C13.4668 2.92868 13.4518 2.86619 13.4143 2.81494C13.3768 2.76244 13.3218 2.7287 13.2593 2.71995C13.2444 2.71745 13.2294 2.7162 13.2144 2.71745C13.2106 2.71745 13.2056 2.71745 13.2019 2.7187C13.1619 2.7212 13.1219 2.73494 13.0869 2.75994C13.0819 2.76369 13.0781 2.76744 13.0744 2.76994C13.0669 2.74119 13.0519 2.7137 13.0331 2.6912C13.0281 2.6837 13.0231 2.67745 13.0169 2.6712C13.0094 2.66245 13.0031 2.6587 13.0006 2.6562C12.9994 2.6562 12.9994 2.65495 12.9994 2.65495C12.9619 2.62245 12.9131 2.60245 12.8594 2.59995C12.8419 2.5987 12.8244 2.59995 12.8081 2.60245C12.7956 2.60495 12.7844 2.6087 12.7731 2.61245C12.7406 2.62245 12.7119 2.6387 12.6869 2.6612C12.6794 2.6512 12.6706 2.6412 12.6619 2.63245C12.6494 2.61995 12.6356 2.6087 12.6219 2.59995C12.6144 2.59495 12.6056 2.5912 12.5981 2.5862C12.5669 2.5712 12.5319 2.5637 12.4956 2.56495C12.4556 2.56495 12.4169 2.57495 12.3819 2.59495C12.3756 2.59745 12.3706 2.6012 12.3656 2.60495C12.3531 2.6137 12.3419 2.6237 12.3306 2.63495C12.3106 2.65495 12.2944 2.6787 12.2832 2.7037C12.2682 2.6812 12.2482 2.65995 12.2244 2.6437C12.2194 2.63995 12.2132 2.6362 12.2069 2.6337C12.1819 2.61995 12.1557 2.60995 12.1282 2.6062C12.1019 2.60245 12.0757 2.60245 12.0494 2.60745C11.9869 2.6187 11.9344 2.6537 11.8982 2.70495C11.8632 2.75744 11.8507 2.81869 11.8619 2.87994Z" fill="url(#paint26_linear_746_564)"/>
<path d="M11.8857 3.01485C11.9295 3.12734 12.167 3.01984 12.257 2.9736C12.2707 2.8636 12.2845 2.79111 12.2845 2.79111C12.2845 2.79111 12.2845 2.79111 12.2845 2.79236C12.2807 2.85485 12.3432 2.89985 12.402 2.87735C12.4682 2.8511 12.5445 2.82985 12.5995 2.83235C12.6207 2.8336 12.6382 2.83735 12.6545 2.84235C12.6695 2.79361 12.6782 2.76111 12.6782 2.76111C12.6782 2.76111 12.6782 2.76611 12.6782 2.77486C12.6807 2.81736 12.7007 2.85735 12.7357 2.8811C12.8719 2.96985 12.9069 3.13734 12.7457 3.31608C12.8007 3.35358 12.8869 3.35108 12.9357 3.30108C12.9982 3.23858 13.0244 3.03984 13.0607 2.89235C13.0494 2.99735 13.0182 3.18484 13.0332 3.25733C13.0507 3.34483 13.1394 3.39982 13.2269 3.37858C13.3032 3.35983 13.3932 3.29858 13.4369 3.12984L13.4207 3.23608C13.4119 3.29858 13.3782 3.35358 13.3257 3.39108C13.2857 3.42107 13.2369 3.43732 13.1869 3.43732C13.1744 3.43732 13.1619 3.43607 13.1494 3.43357C13.1257 3.42982 13.1044 3.42232 13.0844 3.41232C13.0832 3.41107 13.0807 3.41107 13.0794 3.40982C13.0782 3.40857 13.0757 3.40857 13.0744 3.40732C13.0219 3.37858 12.9957 3.33858 12.9944 3.33608C12.9882 3.34608 12.9232 3.39982 12.8444 3.39982C12.7357 3.39982 12.6932 3.35608 12.6932 3.35608C12.6832 3.36233 12.6732 3.36733 12.6632 3.37108C12.6545 3.37358 12.3645 3.47232 12.3745 3.58356C12.3757 3.59731 12.3745 3.61106 12.3732 3.62481V3.62981C12.3732 3.62981 12.3732 3.62981 12.3732 3.63106C12.3695 3.66356 12.362 3.69481 12.3507 3.72356L12.3495 3.72231C12.3195 3.69856 12.247 3.71856 12.2407 3.67606C12.217 3.51482 12.2232 3.32233 12.2382 3.15734L11.9232 3.20983L11.8857 3.01485Z" fill="#EDA600"/>
<path d="M11.8258 3.42238C11.887 3.08615 12.2933 2.94616 12.4457 2.89241C12.4645 2.88616 12.7432 2.81991 12.777 3.0674C12.792 3.1749 12.7107 3.29239 12.607 3.33239C12.3233 3.44113 12.3245 3.50113 12.3245 3.54113C12.3258 3.64487 12.2683 3.84111 12.1783 3.89986C12.1595 3.91236 12.1383 3.91986 12.1183 3.91986C12.1058 3.91986 12.0933 3.91736 12.0808 3.91236C11.9045 3.83861 11.7908 3.61862 11.8258 3.42238Z" fill="url(#paint27_linear_746_564)"/>
<defs>
<linearGradient id="paint0_linear_746_564" x1="10.6269" y1="10.1718" x2="10.6269" y2="14.9625" gradientUnits="userSpaceOnUse">
<stop stop-color="#FFB300"/>
<stop offset="0.5" stop-color="#FFCA28"/>
</linearGradient>
<linearGradient id="paint1_linear_746_564" x1="7.37247" y1="10.1718" x2="7.37247" y2="14.9625" gradientUnits="userSpaceOnUse">
<stop stop-color="#FFB300"/>
<stop offset="0.5" stop-color="#FFCA28"/>
</linearGradient>
<radialGradient id="paint2_radial_746_564" cx="0" cy="0" r="1" gradientUnits="userSpaceOnUse" gradientTransform="translate(9.5715 6.22792) scale(0.905215 0.444642)">
<stop offset="0.7275" stop-color="#6D4C41" stop-opacity="0"/>
<stop offset="1" stop-color="#6D4C41"/>
</radialGradient>
<radialGradient id="paint3_radial_746_564" cx="0" cy="0" r="1" gradientUnits="userSpaceOnUse" gradientTransform="translate(10.4636 6.093) rotate(154.924) scale(0.267497 0.198445)">
<stop offset="0.6628" stop-color="#6D4C41"/>
<stop offset="1" stop-color="#6D4C41" stop-opacity="0"/>
</radialGradient>
<radialGradient id="paint4_radial_746_564" cx="0" cy="0" r="1" gradientUnits="userSpaceOnUse" gradientTransform="translate(9.77003 5.3368) rotate(-94.2783) scale(1.17501 0.979295)">
<stop offset="0.7247" stop-color="#6D4C41" stop-opacity="0"/>
<stop offset="1" stop-color="#6D4C41"/>
</radialGradient>
<radialGradient id="paint5_radial_746_564" cx="0" cy="0" r="1" gradientUnits="userSpaceOnUse" gradientTransform="translate(8.24653 5.33672) rotate(-85.7217) scale(1.17501 0.979295)">
<stop offset="0.7247" stop-color="#6D4C41" stop-opacity="0"/>
<stop offset="1" stop-color="#6D4C41"/>
</radialGradient>
<radialGradient id="paint6_radial_746_564" cx="0" cy="0" r="1" gradientUnits="userSpaceOnUse" gradientTransform="translate(8.44496 6.22792) rotate(180) scale(0.905215 0.444642)">
<stop offset="0.7275" stop-color="#6D4C41" stop-opacity="0"/>
<stop offset="1" stop-color="#6D4C41"/>
</radialGradient>
<radialGradient id="paint7_radial_746_564" cx="0" cy="0" r="1" gradientUnits="userSpaceOnUse" gradientTransform="translate(7.55314 6.0931) rotate(25.0761) scale(0.267497 0.198445)">
<stop offset="0.6628" stop-color="#6D4C41"/>
<stop offset="1" stop-color="#6D4C41" stop-opacity="0"/>
</radialGradient>
<linearGradient id="paint8_linear_746_564" x1="11.0835" y1="6.45674" x2="12.688" y2="3.82896" gradientUnits="userSpaceOnUse">
<stop stop-color="#FFB300"/>
<stop offset="0.5" stop-color="#FFCA28"/>
</linearGradient>
<linearGradient id="paint9_linear_746_564" x1="6.89949" y1="6.43434" x2="5.2833" y2="3.84146" gradientUnits="userSpaceOnUse">
<stop stop-color="#FFB300"/>
<stop offset="0.5" stop-color="#FFCA28"/>
</linearGradient>
<linearGradient id="paint10_linear_746_564" x1="8.9996" y1="6.76513" x2="8.9996" y2="9.95204" gradientUnits="userSpaceOnUse">
<stop stop-color="#F78C1F"/>
<stop offset="0.4936" stop-color="#F37F20"/>
<stop offset="1" stop-color="#ED6D23"/>
</linearGradient>
<radialGradient id="paint11_radial_746_564" cx="0" cy="0" r="1" gradientUnits="userSpaceOnUse" gradientTransform="translate(9.70413 4.71656) rotate(72.0851) scale(1.37729 1.02192)">
<stop offset="0.6985" stop-color="#6D4C41" stop-opacity="0"/>
<stop offset="1" stop-color="#6D4C41"/>
</radialGradient>
<radialGradient id="paint12_radial_746_564" cx="0" cy="0" r="1" gradientUnits="userSpaceOnUse" gradientTransform="translate(8.36164 3.21519) rotate(28.2026) scale(0.361126 0.42819)">
<stop offset="0.58" stop-color="#6D4C41"/>
<stop offset="1" stop-color="#6D4C41" stop-opacity="0"/>
</radialGradient>
<radialGradient id="paint13_radial_746_564" cx="0" cy="0" r="1" gradientUnits="userSpaceOnUse" gradientTransform="translate(9.16891 3.87042) rotate(-157.19) scale(1.12943 0.634742)">
<stop offset="0.6985" stop-color="#6D4C41" stop-opacity="0"/>
<stop offset="1" stop-color="#6D4C41"/>
</radialGradient>
<radialGradient id="paint14_radial_746_564" cx="0" cy="0" r="1" gradientUnits="userSpaceOnUse" gradientTransform="translate(8.21641 3.54442) scale(0.33147 0.405487)">
<stop offset="0.7016" stop-color="#6D4C41" stop-opacity="0"/>
<stop offset="1" stop-color="#6D4C41"/>
</radialGradient>
<radialGradient id="paint15_radial_746_564" cx="0" cy="0" r="1" gradientUnits="userSpaceOnUse" gradientTransform="translate(8.17068 4.12967) rotate(-164.942) scale(0.62169 0.581789)">
<stop offset="0.6605" stop-color="#6D4C41" stop-opacity="0"/>
<stop offset="1" stop-color="#6D4C41"/>
</radialGradient>
<radialGradient id="paint16_radial_746_564" cx="0" cy="0" r="1" gradientUnits="userSpaceOnUse" gradientTransform="translate(8.02372 4.72975) rotate(7.83355) scale(0.652699 0.917149)">
<stop offset="0.5981" stop-color="#6D4C41" stop-opacity="0"/>
<stop offset="1" stop-color="#6D4C41"/>
</radialGradient>
<radialGradient id="paint17_radial_746_564" cx="0" cy="0" r="1" gradientUnits="userSpaceOnUse" gradientTransform="translate(5.42361 3.64959) scale(0.709625)">
<stop stop-color="#FFB300"/>
<stop offset="0.5" stop-color="#FFCA28"/>
</radialGradient>
<linearGradient id="paint18_linear_746_564" x1="8.9996" y1="2.92224" x2="8.9996" y2="3.67948" gradientUnits="userSpaceOnUse">
<stop stop-color="#BDBDBD"/>
<stop offset="1" stop-color="#757575"/>
</linearGradient>
<radialGradient id="paint19_radial_746_564" cx="0" cy="0" r="1" gradientUnits="userSpaceOnUse" gradientTransform="translate(3.60824 2.08503) rotate(90) scale(2.74387 1.54297)">
<stop offset="0.3956" stop-color="#9E9E9E"/>
<stop offset="0.7899" stop-color="#646464"/>
</radialGradient>
<radialGradient id="paint20_radial_746_564" cx="0" cy="0" r="1" gradientUnits="userSpaceOnUse" gradientTransform="translate(14.3912 2.09584) rotate(90) scale(2.74387 1.54297)">
<stop offset="0.3956" stop-color="#9E9E9E"/>
<stop offset="0.7899" stop-color="#646464"/>
</radialGradient>
<radialGradient id="paint21_radial_746_564" cx="0" cy="0" r="1" gradientUnits="userSpaceOnUse" gradientTransform="translate(2.27778 2.60642) scale(0.590404 1.02122)">
<stop offset="0.4406" stop-color="#9E9E9E"/>
<stop offset="0.9854" stop-color="#646464"/>
</radialGradient>
<radialGradient id="paint22_radial_746_564" cx="0" cy="0" r="1" gradientUnits="userSpaceOnUse" gradientTransform="translate(15.7109 2.60642) rotate(180) scale(0.590404 1.02122)">
<stop offset="0.4406" stop-color="#9E9E9E"/>
<stop offset="0.9854" stop-color="#646464"/>
</radialGradient>
<linearGradient id="paint23_linear_746_564" x1="5.34956" y1="3.0782" x2="5.36265" y2="2.66399" gradientUnits="userSpaceOnUse">
<stop stop-color="#FFB300"/>
<stop offset="0.5" stop-color="#FFCA28"/>
</linearGradient>
<linearGradient id="paint24_linear_746_564" x1="5.37583" y1="3.54136" x2="6.03826" y2="3.20972" gradientUnits="userSpaceOnUse">
<stop stop-color="#FFB300"/>
<stop offset="0.4693" stop-color="#FFCA28"/>
</linearGradient>
<radialGradient id="paint25_radial_746_564" cx="0" cy="0" r="1" gradientUnits="userSpaceOnUse" gradientTransform="translate(12.5906 3.64959) rotate(180) scale(0.709625)">
<stop stop-color="#FFB300"/>
<stop offset="0.5" stop-color="#FFCA28"/>
</radialGradient>
<linearGradient id="paint26_linear_746_564" x1="12.6646" y1="3.0782" x2="12.6515" y2="2.66399" gradientUnits="userSpaceOnUse">
<stop stop-color="#FFB300"/>
<stop offset="0.5" stop-color="#FFCA28"/>
</linearGradient>
<linearGradient id="paint27_linear_746_564" x1="12.6385" y1="3.54136" x2="11.9761" y2="3.20972" gradientUnits="userSpaceOnUse">
<stop stop-color="#FFB300"/>
<stop offset="0.4693" stop-color="#FFCA28"/>
</linearGradient>
</defs>
</svg>
