<svg width="500" height="500" viewBox="0 0 500 500" fill="none" xmlns="http://www.w3.org/2000/svg">
<path d="M123.75 365.167C114.375 365.167 106.042 362.476 98.75 357.094C91.4583 351.712 86.4236 344.507 83.6458 335.479L31.5625 162.562C30.8681 160.826 30.434 158.917 30.2604 156.833C30.0868 154.75 30 152.667 30 150.583V94.3333C30 88.4306 31.9965 83.4826 35.9896 79.4896C39.9826 75.4965 44.9306 73.5 50.8333 73.5C56.7361 73.5 61.684 75.4965 65.6771 79.4896C69.6701 83.4826 71.6667 88.4306 71.6667 94.3333V156.833L123.75 323.5H280C285.903 323.5 290.851 325.497 294.844 329.49C298.837 333.483 300.833 338.431 300.833 344.333C300.833 350.236 298.837 355.184 294.844 359.177C290.851 363.17 285.903 365.167 280 365.167H123.75ZM113.333 427.667C107.431 427.667 102.483 425.67 98.4896 421.677C94.4965 417.684 92.5 412.736 92.5 406.833C92.5 400.931 94.4965 395.983 98.4896 391.99C102.483 387.997 107.431 386 113.333 386H280C285.903 386 290.851 387.997 294.844 391.99C298.837 395.983 300.833 400.931 300.833 406.833C300.833 412.736 298.837 417.684 294.844 421.677C290.851 425.67 285.903 427.667 280 427.667H113.333Z" fill="white"/>
<path d="M307.2 358.352L306.783 359.48L320.294 356.93L320.712 355.802L324.644 360.457C325.445 361.406 326.803 361.699 328.717 361.338C330.631 360.977 332.426 360.088 334.102 358.672C335.778 357.256 336.954 355.635 337.63 353.808C338.307 351.982 338.244 350.594 337.443 349.646L326.083 336.197C325.209 335.163 323.872 334.816 322.07 335.156C320.269 335.496 318.454 336.438 316.625 337.982L292.855 358.061C291.179 359.477 290.003 361.098 289.327 362.925C288.651 364.752 288.713 366.139 289.514 367.087C290.315 368.036 291.673 368.329 293.587 367.968C295.501 367.607 297.296 366.718 298.972 365.302L307.2 358.352Z" fill="#55AFFE"/>
<path d="M369.371 311.985C371.195 311.441 373.008 310.999 374.81 310.659C386.182 308.513 394.445 310.451 399.599 316.475C404.752 322.499 405.34 330.884 401.363 341.63L414.874 339.08C420.204 324.68 419.427 313.483 412.542 305.487C405.657 297.491 394.671 294.916 379.583 297.764C376.768 298.295 373.93 299.031 371.069 299.971C368.207 300.911 365.266 302.065 362.246 303.435C360.245 304.312 358.571 305.653 357.223 307.457C355.874 309.26 355.352 310.883 355.656 312.325C355.96 313.767 356.866 314.645 358.372 314.961C359.879 315.276 361.689 314.985 363.802 314.086C365.689 313.23 367.546 312.53 369.371 311.985Z" fill="#55AFFE"/>
<path d="M300.5 302.167H184.5C167.139 302.167 152.382 296.09 140.229 283.937C128.076 271.785 122 257.028 122 239.667L101.167 99.3333C101.167 93.4306 103.163 88.4826 107.156 84.4896C111.149 80.4965 116.097 78.5 122 78.5H205.333C211.236 78.5 216.184 80.4965 220.177 84.4896C224.17 88.4826 226.167 93.4306 226.167 99.3333L249.417 221.5H300.5C308.486 221.5 315.778 223.67 322.375 228.01C328.972 232.351 334.181 238.167 338 245.458L400.938 350.24L423.854 339.823C431.84 336.003 439.913 335.396 448.073 338C456.233 340.604 462.396 345.726 466.563 353.365C470.729 361.351 471.337 369.51 468.386 377.844C465.434 386.177 459.965 392.253 451.979 396.073L392.083 423.156C386.875 425.587 381.667 425.76 376.458 423.677C371.25 421.594 367.431 418.122 365 413.26L300.5 302.167Z" fill="white"/>
<path d="M309.115 393.074C316 401.07 326.986 403.644 342.074 400.796C344.776 400.286 347.548 399.588 350.39 398.702C353.231 397.816 356.106 396.699 359.014 395.35C361.127 394.452 362.858 393.101 364.206 391.297C365.554 389.493 366.096 387.817 365.832 386.267C365.528 384.825 364.651 383.942 363.2 383.616C361.75 383.29 359.968 383.576 357.855 384.474C355.968 385.33 354.111 386.031 352.287 386.575C350.462 387.119 348.649 387.561 346.847 387.901C335.475 390.048 327.212 388.109 322.058 382.085C316.905 376.061 316.317 367.676 320.294 356.93L306.783 359.48C301.453 373.88 302.23 385.078 309.115 393.074Z" fill="#55AFFE"/>
<path d="M414.457 340.208L414.874 339.08L401.363 341.63L400.945 342.758L397.013 338.103C396.212 337.155 394.854 336.861 392.94 337.223C391.026 337.584 389.231 338.472 387.555 339.888C385.879 341.304 384.703 342.925 384.027 344.752C383.35 346.579 383.413 347.966 384.214 348.915L395.574 362.363C396.448 363.397 397.785 363.745 399.587 363.405C401.388 363.065 403.203 362.122 405.032 360.578L428.802 340.499C430.478 339.084 431.654 337.462 432.33 335.635C433.006 333.809 432.944 332.421 432.143 331.473C431.342 330.525 429.984 330.231 428.07 330.592C426.156 330.954 424.361 331.842 422.685 333.258L414.457 340.208Z" fill="#55AFFE"/>
</svg>
