<svg width="500" height="500" viewBox="0 0 500 500" fill="none" xmlns="http://www.w3.org/2000/svg">
<path d="M107.75 346.667C98.375 346.667 90.0417 343.976 82.75 338.594C75.4583 333.212 70.4236 326.007 67.6458 316.979L15.5625 144.062C14.8681 142.326 14.434 140.417 14.2604 138.333C14.0868 136.25 14 134.167 14 132.083V75.8333C14 69.9306 15.9965 64.9826 19.9896 60.9896C23.9826 56.9965 28.9306 55 34.8333 55C40.7361 55 45.684 56.9965 49.6771 60.9896C53.6701 64.9826 55.6667 69.9306 55.6667 75.8333V138.333L107.75 305H264C269.903 305 274.851 306.997 278.844 310.99C282.837 314.983 284.833 319.931 284.833 325.833C284.833 331.736 282.837 336.684 278.844 340.677C274.851 344.67 269.903 346.667 264 346.667H107.75ZM97.3333 409.167C91.4306 409.167 86.4826 407.17 82.4896 403.177C78.4965 399.184 76.5 394.236 76.5 388.333C76.5 382.431 78.4965 377.483 82.4896 373.49C86.4826 369.497 91.4306 367.5 97.3333 367.5H264C269.903 367.5 274.851 369.497 278.844 373.49C282.837 377.483 284.833 382.431 284.833 388.333C284.833 394.236 282.837 399.184 278.844 403.177C274.851 407.17 269.903 409.167 264 409.167H97.3333Z" fill="white"/>
<path d="M420.555 349.985C422.379 349.441 424.193 348.999 425.994 348.659C437.366 346.513 445.629 348.451 450.783 354.475C455.937 360.499 456.525 368.884 452.547 379.63L466.058 377.08C471.388 362.68 470.611 351.483 463.726 343.487C456.841 335.491 445.855 332.916 430.767 335.764C427.952 336.295 425.114 337.031 422.253 337.971C419.391 338.911 416.45 340.065 413.43 341.435C411.429 342.312 409.755 343.653 408.407 345.457C407.058 347.26 406.536 348.883 406.84 350.325C407.144 351.767 408.05 352.645 409.556 352.961C411.063 353.276 412.873 352.985 414.986 352.086C416.874 351.23 418.73 350.53 420.555 349.985Z" fill="#55AFFE"/>
<path d="M318.849 418.814C328.021 424.03 339.234 422.762 352.486 415.008C354.86 413.62 357.236 412.031 359.614 410.241C361.993 408.451 364.325 406.433 366.61 404.185C368.298 402.629 369.474 400.774 370.137 398.622C370.801 396.47 370.748 394.709 369.978 393.339C369.207 392.083 368.084 391.546 366.608 391.726C365.133 391.907 363.551 392.775 361.863 394.332C360.373 395.772 358.86 397.056 357.324 398.182C355.789 399.308 354.23 400.334 352.647 401.259C342.658 407.103 334.224 408.055 327.346 404.114C320.467 400.173 317.095 392.474 317.229 381.016L305.361 387.959C305.181 403.312 309.677 413.597 318.849 418.814Z" fill="#55AFFE"/>
<path d="M326.334 289.667H152.5C141.042 289.667 131.233 285.587 123.073 277.427C114.913 269.267 110.833 259.458 110.833 248L85.5 81C85.5 75.0972 87.4965 70.1493 91.4896 66.1563C95.4826 62.1632 100.431 60.1667 106.333 60.1667H189.667C195.569 60.1667 200.517 62.1632 204.51 66.1563C208.503 70.1493 210.5 75.0972 210.5 81L233.5 203H347.167C358.625 203 368.434 207.08 376.594 215.239C384.754 223.399 388.834 233.208 388.834 244.667V345.5H420.084C429.111 345.5 436.577 348.451 442.479 354.354C448.382 360.257 451.334 367.722 451.334 376.75C451.334 385.778 448.382 393.243 442.479 399.146C436.577 405.049 429.111 408 420.084 408H347.167C341.264 408 336.316 406.003 332.323 402.01C328.33 398.017 326.334 393.069 326.334 387.167V289.667Z" fill="white"/>
<rect x="291" y="315.5" width="40" height="40" rx="20" fill="#55AFFE"/>
<path d="M313.266 345.5C312.125 345.5 311.555 344.872 311.555 343.617V329.865L309.814 331.035C308.749 331.739 307.922 331.606 307.332 330.636C307.028 330.16 306.933 329.713 307.047 329.295C307.18 328.857 307.503 328.486 308.017 328.182L311.269 326.156C311.65 325.909 312.021 325.738 312.382 325.643C312.743 325.548 313.152 325.5 313.609 325.5C314.503 325.5 314.95 326.128 314.95 327.383V343.617C314.95 344.872 314.389 345.5 313.266 345.5Z" fill="white"/>
<rect x="431" y="405.5" width="40" height="40" rx="20" fill="#55AFFE"/>
<path d="M447.87 435.5C446.623 435.5 446 435.16 446 434.48C446 433.593 446.142 432.724 446.425 431.874C446.708 431.005 447.18 430.108 447.841 429.183C448.521 428.257 449.437 427.247 450.589 426.152C451.156 425.604 451.694 425.056 452.204 424.508C452.714 423.961 453.129 423.423 453.45 422.894C453.771 422.346 453.941 421.836 453.96 421.364C453.979 420.476 453.781 419.815 453.365 419.381C452.969 418.947 452.383 418.729 451.609 418.729C450.646 418.729 450.004 419.192 449.683 420.118C449.494 420.684 449.267 421.119 449.003 421.421C448.738 421.723 448.332 421.874 447.785 421.874C447.256 421.874 446.84 421.704 446.538 421.364C446.236 421.005 446.151 420.514 446.283 419.891C446.604 418.493 447.237 417.417 448.181 416.661C449.126 415.887 450.268 415.5 451.609 415.5C452.704 415.5 453.686 415.736 454.555 416.208C455.443 416.661 456.132 417.332 456.623 418.22C457.133 419.088 457.369 420.165 457.331 421.449C457.313 422.356 457.105 423.177 456.708 423.914C456.33 424.65 455.811 425.377 455.15 426.095C454.508 426.794 453.762 427.549 452.912 428.361C452.1 429.173 451.373 429.938 450.731 430.656C450.108 431.373 449.739 431.959 449.626 432.412H455.065C456.312 432.412 456.935 432.922 456.935 433.942C456.935 434.981 456.312 435.5 455.065 435.5H447.87Z" fill="white"/>
<path d="M305.375 386.756L305.361 387.959L317.229 381.016L317.243 379.813L322.511 382.876C323.584 383.499 324.962 383.32 326.643 382.336C328.324 381.352 329.716 379.912 330.819 378.015C331.922 376.118 332.484 374.196 332.507 372.248C332.53 370.301 332.005 369.015 330.931 368.391L315.712 359.543C314.541 358.863 313.165 358.986 311.582 359.911C310 360.837 308.607 362.335 307.404 364.404L291.767 391.304C290.664 393.201 290.101 395.123 290.079 397.071C290.056 399.019 290.581 400.305 291.654 400.928C292.727 401.552 294.105 401.372 295.786 400.389C297.467 399.405 298.859 397.965 299.962 396.068L305.375 386.756Z" fill="#55AFFE"/>
<path d="M465.641 378.208L466.059 377.08L452.547 379.63L452.129 380.758L448.197 376.103C447.396 375.155 446.039 374.861 444.124 375.223C442.21 375.584 440.415 376.472 438.739 377.888C437.063 379.304 435.887 380.925 435.211 382.752C434.535 384.579 434.597 385.966 435.398 386.915L446.758 400.363C447.632 401.397 448.969 401.745 450.771 401.405C452.572 401.065 454.387 400.122 456.216 398.578L479.986 378.499C481.662 377.084 482.838 375.462 483.514 373.635C484.19 371.809 484.128 370.421 483.327 369.473C482.526 368.525 481.168 368.231 479.254 368.592C477.34 368.954 475.545 369.842 473.869 371.258L465.641 378.208Z" fill="#55AFFE"/>
</svg>
