<svg width="500" height="500" viewBox="0 0 500 500" fill="none" xmlns="http://www.w3.org/2000/svg">
<path d="M123.75 365.167C114.375 365.167 106.042 362.476 98.75 357.094C91.4583 351.712 86.4236 344.507 83.6458 335.479L31.5625 162.562C30.8681 160.826 30.434 158.917 30.2604 156.833C30.0868 154.75 30 152.667 30 150.583V94.3333C30 88.4306 31.9965 83.4826 35.9896 79.4896C39.9826 75.4965 44.9306 73.5 50.8333 73.5C56.7361 73.5 61.684 75.4965 65.6771 79.4896C69.6701 83.4826 71.6667 88.4306 71.6667 94.3333V156.833L123.75 323.5H280C285.903 323.5 290.851 325.497 294.844 329.49C298.837 333.483 300.833 338.431 300.833 344.333C300.833 350.236 298.837 355.184 294.844 359.177C290.851 363.17 285.903 365.167 280 365.167H123.75ZM113.333 427.667C107.431 427.667 102.483 425.67 98.4896 421.677C94.4965 417.684 92.5 412.736 92.5 406.833C92.5 400.931 94.4965 395.983 98.4896 391.99C102.483 387.997 107.431 386 113.333 386H280C285.903 386 290.851 387.997 294.844 391.99C298.837 395.983 300.833 400.931 300.833 406.833C300.833 412.736 298.837 417.684 294.844 421.677C290.851 425.67 285.903 427.667 280 427.667H113.333Z" fill="white"/>
<path d="M379 401L348 423.143C346.095 424.476 344.119 424.643 342.071 423.643C340.024 422.643 339 420.952 339 418.571C339 417.619 339.214 416.714 339.643 415.857C340.071 415 340.667 414.333 341.429 413.857L373.185 391.157C376.663 388.671 381.337 388.671 384.815 391.157L416.571 413.857C417.333 414.333 417.929 415 418.357 415.857C418.786 416.714 419 417.619 419 418.571C419 420.857 417.976 422.524 415.929 423.571C413.881 424.619 411.905 424.476 410 423.143L379 401Z" fill="#55AFFE"/>
<path d="M326.99 240.5L259.394 294.842C252.29 300.553 243.448 303.667 234.332 303.667H161.5C150.042 303.667 140.233 299.587 132.073 291.427C123.913 283.267 119.833 273.458 119.833 262L94.5 95C94.5 89.0972 96.4965 84.1493 100.49 80.1563C104.483 76.1632 109.431 74.1667 115.333 74.1667H198.667C204.569 74.1667 209.517 76.1632 213.51 80.1563C217.503 84.1493 219.5 89.0972 219.5 95L242.5 217L315.241 170.205C319.052 167.753 323.237 165.932 327.727 165.31C339.209 163.719 362.225 162.56 371.26 176.739C378.118 187.5 383.5 194.708 383.5 206.167V307H414.75C423.778 307 431.243 309.951 437.146 315.854C443.049 321.757 446 329.222 446 338.25C446 347.278 443.049 354.743 437.146 360.646C431.243 366.549 423.778 369.5 414.75 369.5H341.833C335.931 369.5 330.983 367.503 326.99 363.51C322.996 359.517 321 354.569 321 348.667L326.99 240.5Z" fill="white"/>
</svg>
