<svg width="500" height="500" viewBox="0 0 500 500" fill="none" xmlns="http://www.w3.org/2000/svg">
<path d="M123.75 365.167C114.375 365.167 106.042 362.476 98.75 357.094C91.4583 351.712 86.4236 344.507 83.6458 335.479L31.5625 162.562C30.8681 160.826 30.434 158.917 30.2604 156.833C30.0868 154.75 30 152.667 30 150.583V94.3333C30 88.4306 31.9965 83.4826 35.9896 79.4896C39.9826 75.4965 44.9306 73.5 50.8333 73.5C56.7361 73.5 61.684 75.4965 65.6771 79.4896C69.6701 83.4826 71.6667 88.4306 71.6667 94.3333V156.833L123.75 323.5H280C285.903 323.5 290.851 325.497 294.844 329.49C298.837 333.483 300.833 338.431 300.833 344.333C300.833 350.236 298.837 355.184 294.844 359.177C290.851 363.17 285.903 365.167 280 365.167H123.75ZM113.333 427.667C107.431 427.667 102.483 425.67 98.4896 421.677C94.4965 417.684 92.5 412.736 92.5 406.833C92.5 400.931 94.4965 395.983 98.4896 391.99C102.483 387.997 107.431 386 113.333 386H280C285.903 386 290.851 387.997 294.844 391.99C298.837 395.983 300.833 400.931 300.833 406.833C300.833 412.736 298.837 417.684 294.844 421.677C290.851 425.67 285.903 427.667 280 427.667H113.333Z" fill="white"/>
<path d="M379 389L348 411.143C346.095 412.476 344.119 412.643 342.071 411.643C340.024 410.643 339 408.952 339 406.571C339 405.619 339.214 404.714 339.643 403.857C340.071 403 340.667 402.333 341.429 401.857L373.185 379.157C376.663 376.671 381.337 376.671 384.815 379.157L416.571 401.857C417.333 402.333 417.929 403 418.357 403.857C418.786 404.714 419 405.619 419 406.571C419 408.857 417.976 410.524 415.929 411.571C413.881 412.619 411.905 412.476 410 411.143L379 389ZM379 355L348 377.143C346.095 378.476 344.119 378.643 342.071 377.643C340.024 376.643 339 374.952 339 372.571C339 371.619 339.214 370.714 339.643 369.857C340.071 369 340.667 368.333 341.429 367.857L373.185 345.157C376.663 342.671 381.337 342.671 384.815 345.157L416.571 367.857C417.333 368.333 417.929 369 418.357 369.857C418.786 370.714 419 371.619 419 372.571C419 374.857 417.976 376.524 415.929 377.571C413.881 378.619 411.905 378.476 410 377.143L379 355Z" fill="#55AFFE"/>
<path d="M260.5 162.5L255.398 264.662C254.335 285.951 236.764 302.667 215.448 302.667H165.167C153.708 302.667 143.899 298.587 135.74 290.427C127.58 282.267 123.5 272.458 123.5 261L101 98C101 92.0972 102.997 87.1493 106.99 83.1562C110.983 79.1632 115.931 77.1667 121.833 77.1667H205.167C211.069 77.1667 216.017 79.1632 220.01 83.1562C224.003 87.1493 226 92.0972 226 98V239.5L191 146C196.723 146 230.82 145.029 244.5 134.417C247.051 132.438 251.074 126.977 255.935 119.398C272.461 93.6287 314.5 103.804 314.5 134.417V134.417L316 240.167H347.25C356.278 240.167 363.743 243.118 369.646 249.021C375.549 254.924 378.5 262.389 378.5 271.417C378.5 280.444 375.549 287.91 369.646 293.812C363.743 299.715 356.278 302.667 347.25 302.667H274.333C268.431 302.667 263.483 300.67 259.49 296.677C255.496 292.684 253.5 287.736 253.5 281.833L260.5 162.5Z" fill="white"/>
<path d="M337.475 160.871C335.829 161.132 334.11 161.355 332.318 161.54C330.527 161.724 328.613 161.854 326.577 161.929C324.336 162.037 322.713 162.318 321.709 162.774C320.706 163.23 320.531 163.778 321.185 164.417C321.839 165.056 323.264 165.585 325.46 166.005C327.655 166.425 329.822 166.589 331.961 166.498C335.218 166.378 338.278 166.191 341.141 165.935C344.004 165.68 346.722 165.348 349.294 164.941C363.08 162.757 370.229 159.323 370.741 154.637C371.252 149.951 364.909 145.336 351.711 140.792L350.677 140.436L361.551 141.387C363.766 141.581 365.748 141.54 367.498 141.262C369.247 140.985 370.145 140.571 370.194 140.019C370.242 139.466 369.429 138.902 367.754 138.325C366.08 137.749 364.135 137.364 361.92 137.17L330.506 134.421C328.089 134.21 326.058 134.235 324.412 134.495C322.766 134.756 321.916 135.188 321.863 135.79L321.178 143.623C321.13 144.175 321.943 144.739 323.617 145.316C325.292 145.892 327.236 146.278 329.451 146.471C331.667 146.665 333.649 146.624 335.398 146.347C337.147 146.07 338.045 145.655 338.094 145.103L338.331 142.391L339.365 142.747C349.214 146.139 353.959 149.596 353.6 153.119C353.241 156.641 347.866 159.226 337.475 160.871Z" fill="#55AFFE"/>
<g filter="url(#filter0_d_113_50)">
<path d="M270.998 132.311C254.577 121.064 236.245 104.294 216 80L216.675 158.629C231.071 170.326 247.604 180.673 266.274 189.671C284.944 198.669 304.177 204.967 323.972 208.566C331.17 209.916 337.581 208.116 343.204 203.168C348.828 198.219 351.64 191.921 351.64 184.273C351.64 176.625 348.94 170.101 343.542 164.703C338.143 159.304 331.62 155.93 323.972 154.58C305.077 150.981 287.419 143.558 270.998 132.311Z" fill="white"/>
</g>
<defs>
<filter id="filter0_d_113_50" x="208" y="56" width="175.64" height="169" filterUnits="userSpaceOnUse" color-interpolation-filters="sRGB">
<feFlood flood-opacity="0" result="BackgroundImageFix"/>
<feColorMatrix in="SourceAlpha" type="matrix" values="0 0 0 0 0 0 0 0 0 0 0 0 0 0 0 0 0 0 127 0" result="hardAlpha"/>
<feOffset dx="12" dy="-4"/>
<feGaussianBlur stdDeviation="10"/>
<feComposite in2="hardAlpha" operator="out"/>
<feColorMatrix type="matrix" values="0 0 0 0 0 0 0 0 0 0 0 0 0 0 0 0 0 0 0.1 0"/>
<feBlend mode="normal" in2="BackgroundImageFix" result="effect1_dropShadow_113_50"/>
<feBlend mode="normal" in="SourceGraphic" in2="effect1_dropShadow_113_50" result="shape"/>
</filter>
</defs>
</svg>
