<svg width="500" height="500" viewBox="0 0 500 500" fill="none" xmlns="http://www.w3.org/2000/svg">
<path d="M98.9842 336.331V138.811C93.3138 132.511 88.0371 125.895 83.1543 118.965C78.2714 112.034 73.7823 104.631 69.687 96.7557C67.4818 92.3453 67.4818 88.0138 69.687 83.7609C71.8922 79.5081 75.3574 76.4366 80.0828 74.5465C84.8081 72.6563 89.5335 72.4988 94.2589 74.0739C98.9842 75.6491 102.607 78.6418 105.127 83.0521C119.933 109.514 140.174 130.463 165.848 145.899C191.522 161.336 219.638 169.054 250.196 169.054C280.123 169.054 307.609 161.651 332.653 146.844C357.698 132.038 377.78 112.034 392.902 86.8324C396.052 81.792 400.068 77.933 404.951 75.2553C409.834 72.5776 414.953 72.3413 420.309 74.5465C425.349 76.7516 428.657 80.3744 430.232 85.4148C431.807 90.4552 431.334 95.3381 428.814 100.063C425.034 107.309 420.86 114.082 416.292 120.382C411.724 126.683 406.763 132.826 401.407 138.811V336.331C401.407 347.357 404.006 357.517 409.204 366.81C414.402 376.103 421.569 383.742 430.704 389.728C434.8 392.248 437.635 395.871 439.21 400.596C440.785 405.322 440.785 410.047 439.21 414.772C437.635 419.813 434.721 423.514 430.468 425.877C426.215 428.24 421.884 428.318 417.473 426.113C400.777 417.292 387.625 404.928 378.017 389.019C368.408 373.11 363.604 355.548 363.604 336.331V171.889C346.908 182.915 329.03 191.499 309.971 197.642C290.913 203.785 270.987 206.857 250.196 206.857C229.404 206.857 209.4 203.785 190.184 197.642C170.967 191.499 153.168 182.915 136.787 171.889V336.331C136.787 355.548 131.904 373.11 122.138 389.019C112.373 404.928 99.1417 417.292 82.4455 426.113C78.0351 428.318 73.7823 428.24 69.687 425.877C65.5917 423.514 62.7565 419.813 61.1813 414.772C59.6062 410.047 59.6062 405.322 61.1813 400.596C62.7565 395.871 65.5917 392.248 69.687 389.728C78.8227 384.057 85.9895 376.497 91.1874 367.046C96.3853 357.595 98.9842 347.357 98.9842 336.331Z" fill="white"/>
<path d="M40.5736 253.956C40.6347 265.38 44.7582 275.185 52.9442 283.371C54.4103 284.837 55.9834 286.196 57.6633 287.448C59.3433 288.701 61.1301 289.785 63.0239 290.701C64.3679 291.434 65.7118 291.526 67.0558 290.976C68.3997 290.427 69.3161 289.419 69.8048 287.952C70.2324 286.547 70.1713 285.203 69.6215 283.921C69.0717 282.638 68.1248 281.63 66.7809 280.897C65.5591 280.286 64.4137 279.568 63.3446 278.743C62.2756 277.919 61.2523 277.017 60.2749 276.04C54.1049 269.87 51.0046 262.494 50.9741 253.91C50.9435 245.327 53.9827 237.982 60.0916 231.873L60.7331 231.231V237.829C60.7331 239.173 61.2523 240.364 62.2908 241.402C63.3293 242.441 64.5206 242.96 65.8645 242.96C67.2085 242.96 68.3997 242.441 69.4383 241.402C70.4768 240.364 70.996 239.173 70.996 237.829L70.996 218.769C70.996 217.303 70.5073 216.081 69.5299 215.104C68.5525 214.126 67.3307 213.637 65.8645 213.637L46.8047 213.637C45.4608 213.637 44.2695 214.157 43.231 215.195C42.1925 216.234 41.6732 217.425 41.6732 218.769C41.6732 220.113 42.1925 221.304 43.231 222.343C44.2695 223.381 45.4608 223.9 46.8047 223.9L53.4024 223.9L52.7609 224.542C44.575 232.728 40.5126 242.533 40.5736 253.956Z" fill="#55AFFE"/>
<path d="M437.243 282.743C438.312 281.919 439.335 281.017 440.313 280.04C446.483 273.87 449.583 266.494 449.614 257.91C449.644 249.327 446.605 241.981 440.496 235.873L439.855 235.231L439.855 241.829C439.855 243.173 439.335 244.364 438.297 245.402C437.258 246.441 436.067 246.96 434.723 246.96C433.379 246.96 432.188 246.441 431.149 245.402C430.111 244.364 429.592 243.173 429.592 241.829L429.592 222.769C429.592 221.303 430.08 220.081 431.058 219.104C432.035 218.126 433.257 217.637 434.723 217.637L453.783 217.637C455.127 217.637 456.318 218.157 457.357 219.195C458.395 220.234 458.914 221.425 458.914 222.769C458.914 224.113 458.395 225.304 457.357 226.343C456.318 227.381 455.127 227.9 453.783 227.9L447.185 227.9L447.827 228.542C456.013 236.728 460.075 246.533 460.014 257.956C459.953 269.38 455.829 279.185 447.643 287.371C446.116 288.898 444.497 290.272 442.787 291.494C441.076 292.716 439.244 293.816 437.289 294.793C436.006 295.465 434.693 295.526 433.349 294.976C432.005 294.427 431.119 293.449 430.691 292.044C430.264 290.639 430.34 289.28 430.92 287.966C431.501 286.653 432.463 285.63 433.807 284.897C435.029 284.286 436.174 283.568 437.243 282.743Z" fill="#55AFFE"/>
<rect x="86" y="230" width="40" height="40" rx="20" fill="#55AFFE"/>
<path d="M108.266 260C107.125 260 106.555 259.372 106.555 258.117V244.365L104.814 245.535C103.749 246.239 102.922 246.106 102.332 245.136C102.028 244.66 101.933 244.213 102.047 243.795C102.18 243.357 102.503 242.986 103.017 242.682L106.269 240.656C106.65 240.409 107.021 240.238 107.382 240.143C107.743 240.048 108.152 240 108.609 240C109.503 240 109.95 240.628 109.95 241.883V258.117C109.95 259.372 109.389 260 108.266 260Z" fill="white"/>
<rect x="374" y="230" width="40" height="40" rx="20" fill="#55AFFE"/>
<path d="M390.87 260C389.623 260 389 259.66 389 258.98C389 258.093 389.142 257.224 389.425 256.374C389.708 255.505 390.18 254.608 390.841 253.683C391.521 252.757 392.437 251.747 393.589 250.652C394.156 250.104 394.694 249.556 395.204 249.008C395.714 248.461 396.129 247.923 396.45 247.394C396.771 246.846 396.941 246.336 396.96 245.864C396.979 244.976 396.781 244.315 396.365 243.881C395.969 243.447 395.383 243.229 394.609 243.229C393.646 243.229 393.004 243.692 392.683 244.618C392.494 245.184 392.267 245.619 392.003 245.921C391.738 246.223 391.332 246.374 390.785 246.374C390.256 246.374 389.84 246.204 389.538 245.864C389.236 245.505 389.151 245.014 389.283 244.391C389.604 242.993 390.237 241.917 391.181 241.161C392.126 240.387 393.268 240 394.609 240C395.704 240 396.686 240.236 397.555 240.708C398.443 241.161 399.132 241.832 399.623 242.72C400.133 243.588 400.369 244.665 400.331 245.949C400.313 246.856 400.105 247.677 399.708 248.414C399.33 249.15 398.811 249.877 398.15 250.595C397.508 251.294 396.762 252.049 395.912 252.861C395.1 253.673 394.373 254.438 393.731 255.156C393.108 255.873 392.739 256.459 392.626 256.912H398.065C399.312 256.912 399.935 257.422 399.935 258.442C399.935 259.481 399.312 260 398.065 260H390.87Z" fill="white"/>
</svg>
